<svg width="24" height="25" viewBox="0 0 24 25" fill="none" xmlns="http://www.w3.org/2000/svg">
<path d="M14 9.14414C14 8.99414 14.0543 8.83981 14.163 8.68114C14.271 8.52314 14.3917 8.41914 14.525 8.36914C15.0083 8.20247 15.4917 8.07747 15.975 7.99414C16.4583 7.91081 16.9667 7.86914 17.5 7.86914C17.8333 7.86914 18.1627 7.88981 18.488 7.93114C18.8127 7.97314 19.1333 8.02747 19.45 8.09414C19.6 8.12747 19.729 8.21081 19.837 8.34414C19.9457 8.47747 20 8.62747 20 8.79414C20 9.07747 19.9083 9.28581 19.725 9.41914C19.5417 9.55247 19.3083 9.58581 19.025 9.51914C18.7917 9.46914 18.546 9.43147 18.288 9.40614C18.0293 9.38147 17.7667 9.36914 17.5 9.36914C17.0667 9.36914 16.6417 9.41081 16.225 9.49414C15.8083 9.57747 15.4083 9.68581 15.025 9.81914C14.725 9.93581 14.4793 9.92747 14.288 9.79414C14.096 9.66081 14 9.44414 14 9.14414ZM14 14.6441C14 14.4941 14.0543 14.3398 14.163 14.1811C14.271 14.0231 14.3917 13.9191 14.525 13.8691C15.0083 13.7025 15.4917 13.5775 15.975 13.4941C16.4583 13.4108 16.9667 13.3691 17.5 13.3691C17.8333 13.3691 18.1627 13.3898 18.488 13.4311C18.8127 13.4731 19.1333 13.5275 19.45 13.5941C19.6 13.6275 19.729 13.7108 19.837 13.8441C19.9457 13.9775 20 14.1275 20 14.2941C20 14.5775 19.9083 14.7858 19.725 14.9191C19.5417 15.0525 19.3083 15.0858 19.025 15.0191C18.7917 14.9691 18.546 14.9315 18.288 14.9061C18.0293 14.8815 17.7667 14.8691 17.5 14.8691C17.0667 14.8691 16.6417 14.9068 16.225 14.9821C15.8083 15.0568 15.4083 15.1608 15.025 15.2941C14.725 15.4108 14.4793 15.4065 14.288 15.2811C14.096 15.1565 14 14.9441 14 14.6441ZM14 11.8941C14 11.7441 14.0543 11.5898 14.163 11.4311C14.271 11.2731 14.3917 11.1691 14.525 11.1191C15.0083 10.9525 15.4917 10.8275 15.975 10.7441C16.4583 10.6608 16.9667 10.6191 17.5 10.6191C17.8333 10.6191 18.1627 10.6398 18.488 10.6811C18.8127 10.7231 19.1333 10.7775 19.45 10.8441C19.6 10.8775 19.729 10.9608 19.837 11.0941C19.9457 11.2275 20 11.3775 20 11.5441C20 11.8275 19.9083 12.0358 19.725 12.1691C19.5417 12.3025 19.3083 12.3358 19.025 12.2691C18.7917 12.2191 18.546 12.1815 18.288 12.1561C18.0293 12.1315 17.7667 12.1191 17.5 12.1191C17.0667 12.1191 16.6417 12.1608 16.225 12.2441C15.8083 12.3275 15.4083 12.4358 15.025 12.5691C14.725 12.6858 14.4793 12.6775 14.288 12.5441C14.096 12.4108 14 12.1941 14 11.8941ZM6.5 16.3691C7.28333 16.3691 8.046 16.4565 8.788 16.6311C9.52933 16.8065 10.2667 17.0691 11 17.4191V7.56914C10.3167 7.16914 9.59167 6.86914 8.825 6.66914C8.05833 6.46914 7.28333 6.36914 6.5 6.36914C5.9 6.36914 5.30433 6.42747 4.713 6.54414C4.121 6.66081 3.55 6.83581 3 7.06914V16.9691C3.58333 16.7691 4.16267 16.6191 4.738 16.5191C5.31267 16.4191 5.9 16.3691 6.5 16.3691ZM13 17.4191C13.7333 17.0691 14.471 16.8065 15.213 16.6311C15.9543 16.4565 16.7167 16.3691 17.5 16.3691C18.1 16.3691 18.6877 16.4191 19.263 16.5191C19.8377 16.6191 20.4167 16.7691 21 16.9691V7.06914C20.45 6.83581 19.8793 6.66081 19.288 6.54414C18.696 6.42747 18.1 6.36914 17.5 6.36914C16.7167 6.36914 15.9417 6.46914 15.175 6.66914C14.4083 6.86914 13.6833 7.16914 13 7.56914V17.4191ZM12 19.8441C11.7667 19.8441 11.546 19.8151 11.338 19.7571C11.1293 19.6985 10.9333 19.6191 10.75 19.5191C10.1 19.1358 9.41667 18.8485 8.7 18.6571C7.98333 18.4651 7.25 18.3691 6.5 18.3691C5.8 18.3691 5.11267 18.4608 4.438 18.6441C3.76267 18.8275 3.11667 19.0858 2.5 19.4191C2.15 19.6025 1.81267 19.5941 1.488 19.3941C1.16267 19.1941 1 18.9025 1 18.5191V6.46914C1 6.28581 1.046 6.11081 1.138 5.94414C1.22933 5.77747 1.36667 5.65247 1.55 5.56914C2.31667 5.16914 3.11667 4.86914 3.95 4.66914C4.78333 4.46914 5.63333 4.36914 6.5 4.36914C7.46667 4.36914 8.41267 4.49414 9.338 4.74414C10.2627 4.99414 11.15 5.36914 12 5.86914C12.85 5.36914 13.7377 4.99414 14.663 4.74414C15.5877 4.49414 16.5333 4.36914 17.5 4.36914C18.3667 4.36914 19.2167 4.46914 20.05 4.66914C20.8833 4.86914 21.6833 5.16914 22.45 5.56914C22.6333 5.65247 22.771 5.77747 22.863 5.94414C22.9543 6.11081 23 6.28581 23 6.46914V18.5191C23 18.9025 22.8377 19.1941 22.513 19.3941C22.1877 19.5941 21.85 19.6025 21.5 19.4191C20.8833 19.0858 20.2373 18.8275 19.562 18.6441C18.8873 18.4608 18.2 18.3691 17.5 18.3691C16.75 18.3691 16.0167 18.4651 15.3 18.6571C14.5833 18.8485 13.9 19.1358 13.25 19.5191C13.0667 19.6191 12.871 19.6985 12.663 19.7571C12.4543 19.8151 12.2333 19.8441 12 19.8441Z" fill="#051019"/>
</svg>
