<svg width="18" height="18" viewBox="0 0 18 18" fill="none" xmlns="http://www.w3.org/2000/svg">
<path d="M2 1.7C2 0.761116 2.7835 0 3.75 0H14.25C15.2165 0 16 0.761116 16 1.7V15.3C16 16.2389 15.2165 17 14.25 17H3.75C2.7835 17 2 16.2389 2 15.3V1.7Z" fill="white"/>
<path d="M4.625 3.1875C4.625 2.83542 4.91881 2.55 5.28125 2.55H12.7188C13.0812 2.55 13.375 2.83542 13.375 3.1875C13.375 3.53958 13.0812 3.825 12.7188 3.825H5.28125C4.91881 3.825 4.625 3.53958 4.625 3.1875Z" fill="#57B8FE"/>
<path d="M4.625 9.9875C4.625 9.63542 4.91881 9.35 5.28125 9.35H12.7188C13.0812 9.35 13.375 9.63542 13.375 9.9875C13.375 10.3396 13.0812 10.625 12.7188 10.625H5.28125C4.91881 10.625 4.625 10.3396 4.625 9.9875Z" fill="#57B8FE"/>
<path d="M4.625 13.3875C4.625 13.0354 4.91881 12.75 5.28125 12.75H7.46875C7.83119 12.75 8.125 13.0354 8.125 13.3875C8.125 13.7396 7.83119 14.025 7.46875 14.025H5.28125C4.91881 14.025 4.625 13.7396 4.625 13.3875Z" fill="#57B8FE"/>
<path d="M4.625 6.5875C4.625 6.23542 4.91881 5.95 5.28125 5.95H7.46875C7.83119 5.95 8.125 6.23542 8.125 6.5875C8.125 6.93958 7.83119 7.225 7.46875 7.225H5.28125C4.91881 7.225 4.625 6.93958 4.625 6.5875Z" fill="#57B8FE"/>
<path d="M9.875 6.5875C9.875 6.23542 10.1688 5.95 10.5312 5.95H12.7188C13.0812 5.95 13.375 6.23542 13.375 6.5875C13.375 6.93958 13.0812 7.225 12.7188 7.225H10.5312C10.1688 7.225 9.875 6.93958 9.875 6.5875Z" fill="#57B8FE"/>
</svg>
