<svg width="18" height="18" viewBox="0 0 18 18" fill="none" xmlns="http://www.w3.org/2000/svg">
<path d="M14.5293 10.9531C14.3092 11.1644 14.208 11.4701 14.2582 11.7699L15.0137 15.9127C15.0775 16.2639 14.9279 16.6192 14.6313 16.8222C14.3406 17.0327 13.9539 17.0579 13.6369 16.8895L9.87274 14.9444C9.74185 14.8753 9.59652 14.8383 9.44779 14.8341H9.21747C9.13758 14.8459 9.05939 14.8711 8.988 14.9099L5.22299 16.8643C5.03687 16.9569 4.82609 16.9897 4.61957 16.9569C4.11644 16.8626 3.78073 16.3877 3.86317 15.8866L4.61957 11.7438C4.66972 11.4415 4.56858 11.1341 4.34846 10.9194L1.27951 7.97223C1.02284 7.72551 0.933603 7.35501 1.05089 7.02071C1.16477 6.68726 1.45543 6.44391 1.80644 6.38917L6.03039 5.78206C6.35165 5.74922 6.63381 5.55555 6.77829 5.26925L8.63955 1.48845C8.68374 1.40424 8.74068 1.32678 8.80952 1.2611L8.88601 1.20215C8.92596 1.15837 8.97185 1.12216 9.02285 1.09269L9.11548 1.059L9.25997 1.00006H9.61777C9.93733 1.0329 10.2186 1.22236 10.3657 1.50529L12.2516 5.26925C12.3876 5.5446 12.6519 5.73574 12.957 5.78206L17.1809 6.38917C17.5379 6.4397 17.8362 6.68389 17.9543 7.02071C18.0657 7.35837 17.9696 7.72887 17.7079 7.97223L14.5293 10.9531Z" fill="white"/>
</svg>
