<svg width="20" height="19" viewBox="0 0 20 19" fill="none" xmlns="http://www.w3.org/2000/svg">
<path fill-rule="evenodd" clip-rule="evenodd" d="M0.877274 0.34098L0.875899 0.342281C0.847081 0.369539 0.819686 0.398108 0.793715 0.427988C0.767743 0.457867 0.743319 0.488915 0.720442 0.521132C0.697566 0.553349 0.676345 0.586581 0.656779 0.620828C0.637215 0.655075 0.619399 0.690175 0.603332 0.726127C0.587265 0.762079 0.573024 0.798712 0.560608 0.836027C0.548192 0.873341 0.537661 0.911159 0.529014 0.94948C0.520367 0.987801 0.513646 1.02645 0.508851 1.06541C0.504055 1.10438 0.501209 1.14348 0.50031 1.18272C0.499412 1.22196 0.500466 1.26114 0.503473 1.30028C0.50648 1.33941 0.511425 1.37831 0.518309 1.41698C0.525193 1.45564 0.533983 1.49389 0.544678 1.53172C0.555374 1.56954 0.567924 1.60676 0.582329 1.64338C0.596734 1.68 0.612925 1.71584 0.630902 1.75092C0.64888 1.78599 0.668559 1.82012 0.689938 1.85331C0.711317 1.8865 0.734296 1.91859 0.758873 1.94959C0.783451 1.98058 0.80951 2.01032 0.837052 2.03881L7.56355 8.9987L0.879552 15.9707C0.852408 15.999 0.826714 16.0286 0.802472 16.0593C0.778229 16.09 0.75555 16.1219 0.734433 16.1548C0.713317 16.1876 0.693861 16.2214 0.676065 16.2561C0.65827 16.2908 0.642217 16.3263 0.627908 16.3625C0.613599 16.3988 0.601098 16.4356 0.590407 16.4729C0.579716 16.5104 0.570883 16.5482 0.563909 16.5864C0.556935 16.6247 0.551852 16.6632 0.54866 16.7019C0.545468 16.7406 0.544181 16.7794 0.5448 16.8182C0.545419 16.8571 0.54794 16.8958 0.552365 16.9344C0.556789 16.973 0.563096 17.0113 0.571285 17.0493C0.579474 17.0873 0.589507 17.1248 0.601385 17.1619C0.613263 17.199 0.62693 17.2354 0.642387 17.2712C0.657843 17.3069 0.675018 17.3419 0.693911 17.376C0.712804 17.4102 0.733327 17.4434 0.755481 17.4756C0.777634 17.5078 0.801316 17.5389 0.826526 17.5689C0.851737 17.5989 0.878358 17.6276 0.906391 17.6551L0.907738 17.6564C1.01998 17.7664 1.14943 17.8511 1.29608 17.9107C1.44274 17.9702 1.59544 18 1.75418 18C1.91292 18 2.06561 17.9702 2.21228 17.9107C2.35893 17.8512 2.48838 17.7665 2.60062 17.6565L9.5 10.8961L16.3994 17.6565C16.5117 17.7665 16.6411 17.8512 16.7878 17.9107C16.9344 17.9702 17.0871 18 17.2458 18C17.4046 18 17.5572 17.9702 17.7039 17.9107C17.8506 17.8511 17.98 17.7664 18.0923 17.6564L18.0936 17.6551C18.1216 17.6276 18.1483 17.5989 18.1735 17.5689C18.1987 17.5389 18.2224 17.5078 18.2446 17.4756C18.2667 17.4434 18.2872 17.4102 18.3061 17.376C18.325 17.3419 18.3422 17.3069 18.3576 17.2712C18.3731 17.2354 18.3867 17.199 18.3986 17.1619C18.4105 17.1248 18.4205 17.0873 18.4287 17.0493C18.4369 17.0113 18.4432 16.973 18.4476 16.9344C18.4521 16.8958 18.4546 16.8571 18.4552 16.8182C18.4558 16.7794 18.4545 16.7406 18.4514 16.7019C18.4481 16.6632 18.443 16.6247 18.4361 16.5864C18.4291 16.5482 18.4203 16.5104 18.4096 16.4729C18.3989 16.4356 18.3864 16.3988 18.3721 16.3625C18.3578 16.3263 18.3418 16.2908 18.324 16.2561C18.3061 16.2214 18.2867 16.1876 18.2656 16.1548C18.2445 16.1219 18.2218 16.09 18.1975 16.0593C18.1733 16.0286 18.1476 15.999 18.1204 15.9707L11.4365 8.9987L18.1629 2.03881C18.1905 2.01032 18.2166 1.98058 18.2412 1.94959C18.2657 1.91859 18.2887 1.8865 18.3101 1.85331C18.3315 1.82012 18.3511 1.78599 18.3691 1.75092C18.3871 1.71584 18.4033 1.68 18.4177 1.64338C18.4321 1.60676 18.4446 1.56954 18.4553 1.53172C18.4661 1.49389 18.4748 1.45564 18.4817 1.41698C18.4886 1.37831 18.4935 1.33941 18.4965 1.30028C18.4995 1.26114 18.5006 1.22196 18.4997 1.18272C18.4988 1.14348 18.4959 1.10438 18.4912 1.06541C18.4864 1.02645 18.4797 0.987801 18.471 0.94948C18.4624 0.911159 18.4518 0.873341 18.4394 0.836027C18.427 0.798712 18.4127 0.762079 18.3967 0.726127C18.3806 0.690175 18.3628 0.655075 18.3432 0.620828C18.3237 0.586581 18.3025 0.553349 18.2796 0.521132C18.2567 0.488915 18.2323 0.457867 18.2063 0.427988C18.1803 0.398108 18.1529 0.369539 18.1241 0.342281L18.1228 0.34098C18.0938 0.313643 18.0636 0.287743 18.0321 0.263278C18.0007 0.238815 17.9681 0.215903 17.9343 0.194543C17.9006 0.173183 17.8659 0.153475 17.8303 0.13542C17.7946 0.117365 17.758 0.101047 17.7207 0.0864672C17.6833 0.0718869 17.6454 0.0591127 17.6069 0.0481445C17.5683 0.0371763 17.5292 0.0280658 17.4897 0.020813C17.4503 0.0135602 17.4106 0.0081993 17.3705 0.00473019C17.3305 0.00126108 17.2904 -0.000299851 17.2503 4.73926e-05C17.2101 0.000394636 17.17 0.00264842 17.13 0.00680874C17.0901 0.0109691 17.0505 0.0170163 17.0111 0.0249506C16.9718 0.0328848 16.9329 0.0426686 16.8946 0.0543021C16.8561 0.0659355 16.8184 0.0793637 16.7814 0.0945869C16.7444 0.10981 16.7082 0.126756 16.6728 0.145425C16.6375 0.164095 16.6031 0.184399 16.5697 0.206339C16.5363 0.228279 16.5042 0.251752 16.4732 0.276756C16.4421 0.30176 16.4124 0.328178 16.384 0.35601L9.5 7.10127L2.61599 0.35601C2.58759 0.328178 2.55787 0.30176 2.52684 0.276756C2.49582 0.251752 2.46363 0.228279 2.43028 0.206339C2.39693 0.184399 2.36257 0.164095 2.3272 0.145425C2.29184 0.126756 2.25564 0.10981 2.2186 0.0945869C2.18155 0.0793637 2.14384 0.0659355 2.10546 0.0543021C2.06709 0.0426686 2.02823 0.0328848 1.98888 0.0249506C1.94953 0.0170163 1.90989 0.0109691 1.86994 0.00680874C1.83 0.00264842 1.78994 0.000394636 1.74977 4.73926e-05C1.7096 -0.000299851 1.66951 0.00126108 1.6295 0.00473019C1.58948 0.0081993 1.54973 0.0135602 1.51025 0.020813C1.47077 0.0280658 1.43173 0.0371763 1.39315 0.0481445C1.35458 0.0591127 1.31663 0.0718869 1.27932 0.0864672C1.242 0.101047 1.2055 0.117365 1.1698 0.13542C1.13411 0.153475 1.09939 0.173183 1.06565 0.194543C1.03191 0.215903 0.999301 0.238815 0.967832 0.263278C0.936362 0.287743 0.906176 0.313643 0.877274 0.34098Z" fill="white"/>
</svg>
