<svg width="24" height="25" viewBox="0 0 24 25" fill="none" xmlns="http://www.w3.org/2000/svg">
<path fill-rule="evenodd" clip-rule="evenodd" d="M12.0121 19.0127L12.1085 18.9259C14.7753 16.5029 16.8106 14.65 18.1893 12.9401C19.5399 11.2651 20.0467 9.98128 20.0013 8.72139L20.0012 8.71981C19.9629 7.63433 19.4 6.60184 18.5344 6.01247L18.529 6.00882C17.8555 5.54705 17.0761 5.48472 16.1526 5.80353C15.1849 6.13763 14.2145 6.8562 13.5206 7.66842L12 9.44821L10.4794 7.66842C9.7867 6.85767 8.81704 6.14118 7.84884 5.80781C6.92406 5.48939 6.14161 5.55152 5.46664 6.01172L5.46555 6.01247C4.60039 6.60151 4.03766 7.63319 3.99879 8.71801C3.95699 9.98095 4.46626 11.2665 5.81408 12.9372C7.19116 14.6442 9.22492 16.4933 11.8918 18.9062L11.8953 18.9094L12.0105 19.0141L12.0121 19.0127ZM1.99997 8.64927C1.86997 12.5293 5.29997 15.6393 10.55 20.3893L10.66 20.4893C11.42 21.1893 12.59 21.1893 13.35 20.4993L13.45 20.4093L13.5104 20.3544C18.7263 15.6154 22.1394 12.5144 22 8.64927C21.94 6.94927 21.07 5.31927 19.66 4.35927C17.6418 2.9756 15.2613 3.67823 13.4656 5.0063C12.9123 5.41549 12.4145 5.88406 12 6.36927C11.5853 5.88386 11.0872 5.41566 10.5337 5.00707C8.73805 3.68166 6.35789 2.98341 4.33997 4.35927C2.92997 5.31927 2.05997 6.94927 1.99997 8.64927Z" fill="#EC5564"/>
</svg>
