<svg width="17" height="20" viewBox="0 0 17 20" fill="none" xmlns="http://www.w3.org/2000/svg">
<path d="M8.00003 3.36917V0.579171C8.00003 0.129171 7.46003 -0.0908289 7.15003 0.229171L3.35003 4.01917C3.15003 4.21917 3.15003 4.52917 3.35003 4.72917L7.14003 8.51917C7.46003 8.82917 8.00003 8.60917 8.00003 8.15917V5.36917C11.73 5.36917 14.68 8.78917 13.86 12.6592C13.39 14.9292 11.55 16.7592 9.29003 17.2292C5.72003 17.9792 2.54003 15.5292 2.06003 12.2192C1.99003 11.7392 1.57003 11.3692 1.08003 11.3692C0.480028 11.3692 2.79993e-05 11.8992 0.080028 12.4992C0.700028 16.8892 4.88003 20.1392 9.61003 19.2192C12.73 18.6092 15.24 16.0992 15.85 12.9792C16.84 7.84917 12.94 3.36917 8.00003 3.36917Z" fill="#38A1FF"/>
</svg>
