<svg width="21" height="19" viewBox="0 0 21 19" fill="none" xmlns="http://www.w3.org/2000/svg">
<path d="M19 9.62964C19 14.186 15.3063 17.8796 10.75 17.8796C6.19365 17.8796 2.5 14.186 2.5 9.62964C2.5 5.07329 6.19365 1.37964 10.75 1.37964C15.3063 1.37964 19 5.07329 19 9.62964Z" fill="white"/>
<path d="M13.75 9.62964C13.75 14.186 12.4069 17.8796 10.75 17.8796C9.09315 17.8796 7.75 14.186 7.75 9.62964C7.75 5.07329 9.09315 1.37964 10.75 1.37964C12.4069 1.37964 13.75 5.07329 13.75 9.62964Z" fill="white"/>
<path d="M19 9.62964C19 14.186 15.3063 17.8796 10.75 17.8796M19 9.62964C19 5.07329 15.3063 1.37964 10.75 1.37964M19 9.62964H2.5M10.75 17.8796C6.19365 17.8796 2.5 14.186 2.5 9.62964M10.75 17.8796C12.4069 17.8796 13.75 14.186 13.75 9.62964C13.75 5.07329 12.4069 1.37964 10.75 1.37964M10.75 17.8796C9.09315 17.8796 7.75 14.186 7.75 9.62964C7.75 5.07329 9.09315 1.37964 10.75 1.37964M2.5 9.62964C2.5 5.07329 6.19365 1.37964 10.75 1.37964" stroke="#8D75FF" stroke-linecap="round"/>
</svg>
