<svg width="28" height="28" viewBox="0 0 28 28" fill="none" xmlns="http://www.w3.org/2000/svg">
<path fill-rule="evenodd" clip-rule="evenodd" d="M14 27.3333C21.3638 27.3333 27.3333 21.3638 27.3333 14C27.3333 6.63621 21.3638 0.666672 14 0.666672C6.63616 0.666672 0.666626 6.63621 0.666626 14C0.666626 21.3638 6.63616 27.3333 14 27.3333ZM9.60944 7.72386C9.08874 7.20316 8.24452 7.20316 7.72382 7.72386C7.20312 8.24456 7.20312 9.08878 7.72382 9.60948L12.1143 14L7.72382 18.3905C7.20312 18.9112 7.20312 19.7554 7.72382 20.2761C8.24452 20.7968 9.08874 20.7968 9.60944 20.2761L14 15.8856L18.3905 20.2761C18.9112 20.7968 19.7554 20.7968 20.2761 20.2761C20.7968 19.7554 20.7968 18.9112 20.2761 18.3905L15.8856 14L20.2761 9.60948C20.7968 9.08878 20.7968 8.24456 20.2761 7.72386C19.7554 7.20316 18.9112 7.20316 18.3905 7.72386L14 12.1144L9.60944 7.72386Z" fill="#FF4444"/>
</svg>
