<svg width="29" height="28" viewBox="0 0 29 28" fill="none" xmlns="http://www.w3.org/2000/svg">
<path d="M15.2906 23.2832C15.6111 23.3578 15.6405 23.7776 15.3283 23.8817L13.485 24.4884C8.8533 25.9817 6.41497 24.7334 4.90997 20.1017L3.41664 15.4934C1.9233 10.8617 3.15997 8.4117 7.79164 6.91836L8.40297 6.71591C8.87298 6.56026 9.33038 7.03166 9.19692 7.50845C9.13077 7.74478 9.06713 7.99142 9.00497 8.24836L7.86164 13.1367C6.5783 18.6317 8.45664 21.665 13.9516 22.9717L15.2906 23.2832Z" fill="#38A1FF"/>
<path d="M20.5317 3.74497L18.5833 3.28997C14.6867 2.3683 12.365 3.12664 11 5.94997C10.65 6.66164 10.37 7.52497 10.1367 8.51664L8.99334 13.405C7.85001 18.2816 9.35501 20.685 14.22 21.84L16.18 22.3066C16.8567 22.47 17.4867 22.575 18.07 22.6216C21.71 22.9716 23.6467 21.2683 24.6267 17.0566L25.77 12.18C26.9133 7.3033 25.42 4.8883 20.5317 3.74497ZM18.3383 15.5516C18.2333 15.9483 17.8833 16.205 17.4867 16.205C17.4167 16.205 17.3467 16.1933 17.265 16.1816L13.87 15.3183C13.4033 15.2016 13.1233 14.7233 13.24 14.2566C13.3567 13.79 13.835 13.51 14.3017 13.6266L17.6967 14.49C18.175 14.6066 18.455 15.085 18.3383 15.5516ZM21.7567 11.6083C21.6517 12.005 21.3017 12.2616 20.905 12.2616C20.835 12.2616 20.765 12.25 20.6833 12.2383L15.025 10.8033C14.5583 10.6866 14.2783 10.2083 14.395 9.74164C14.5117 9.27497 14.99 8.99497 15.4567 9.11164L21.115 10.5466C21.5933 10.6516 21.8733 11.13 21.7567 11.6083Z" fill="#38A1FF"/>
</svg>
