<svg width="28" height="28" viewBox="0 0 28 28" fill="none" xmlns="http://www.w3.org/2000/svg">
<path d="M14 0.666687C6.63996 0.666687 0.666626 6.64002 0.666626 14C0.666626 21.36 6.63996 27.3334 14 27.3334C21.36 27.3334 27.3333 21.36 27.3333 14C27.3333 6.64002 21.36 0.666687 14 0.666687ZM10.3866 19.72L5.59996 14.9334C5.07996 14.4134 5.07996 13.5734 5.59996 13.0534C6.11996 12.5334 6.95996 12.5334 7.47996 13.0534L11.3333 16.8934L20.5066 7.72002C21.0266 7.20002 21.8666 7.20002 22.3866 7.72002C22.9066 8.24002 22.9066 9.08002 22.3866 9.60002L12.2666 19.72C11.76 20.24 10.9066 20.24 10.3866 19.72Z" fill="#16CA52"/>
</svg>
