<svg width="18" height="19" viewBox="0 0 18 19" fill="none" xmlns="http://www.w3.org/2000/svg">
<path d="M16.4326 4.14551C15.1126 4.01906 13.7927 3.92422 12.4645 3.85309V3.84519L12.2841 2.81776C12.1612 2.09066 11.9808 1 10.0623 1H7.91431C6.00405 1 5.82368 2.04324 5.6925 2.80986L5.52033 3.82148C4.75787 3.8689 3.9954 3.91632 3.23294 3.98745L1.56043 4.14551C1.21609 4.17713 0.970137 4.46955 1.00293 4.79358C1.03573 5.11762 1.33087 5.35472 1.67521 5.32311L3.34772 5.16504C7.64376 4.75407 11.9726 4.91213 16.3178 5.33101C16.3424 5.33101 16.3588 5.33101 16.3834 5.33101C16.695 5.33101 16.9655 5.10181 16.9983 4.79358C17.0229 4.46955 16.7769 4.17713 16.4326 4.14551Z" fill="white"/>
<path d="M14.9241 6.44537C14.7274 6.24779 14.4568 6.13715 14.1781 6.13715H3.8151C3.53635 6.13715 3.2576 6.24779 3.06903 6.44537C2.88047 6.64296 2.77388 6.91167 2.79028 7.18828L3.29859 15.2971C3.38878 16.4984 3.50356 18 6.36485 18H11.6283C14.4896 18 14.6044 16.5063 14.6946 15.2971L15.2029 7.19619C15.2193 6.91167 15.1127 6.64296 14.9241 6.44537ZM10.3575 14.0404H7.62743C7.29129 14.0404 7.01254 13.7717 7.01254 13.4477C7.01254 13.1237 7.29129 12.8549 7.62743 12.8549H10.3575C10.6937 12.8549 10.9724 13.1237 10.9724 13.4477C10.9724 13.7717 10.6937 14.0404 10.3575 14.0404ZM11.0462 10.8791H6.94695C6.61081 10.8791 6.33206 10.6104 6.33206 10.2864C6.33206 9.96234 6.61081 9.69363 6.94695 9.69363H11.0462C11.3824 9.69363 11.6611 9.96234 11.6611 10.2864C11.6611 10.6104 11.3824 10.8791 11.0462 10.8791Z" fill="white"/>
</svg>
