<svg width="24" height="24" viewBox="0 0 24 24" fill="none" xmlns="http://www.w3.org/2000/svg">
<g clip-path="url(#clip0_306_1779)">
<path d="M23.9998 11.9999C23.9998 5.37246 18.6273 -0.00012207 11.9998 -0.00012207C5.37243 -0.00012207 -0.000152588 5.37246 -0.000152588 11.9999C-0.000152588 17.9894 4.38807 22.9539 10.1248 23.8541V15.4686H7.07797V11.9999H10.1248V9.35613C10.1248 6.34863 11.9164 4.68738 14.6574 4.68738C15.9703 4.68738 17.3436 4.92175 17.3436 4.92175V7.87488H15.8304C14.3397 7.87488 13.8748 8.79989 13.8748 9.74887V11.9999H17.203L16.6709 15.4686H13.8748V23.8541C19.6116 22.9539 23.9998 17.9894 23.9998 11.9999Z" fill="#1877F2"/>
<path d="M16.6709 15.4686L17.203 11.9999H13.8748V9.74887C13.8748 8.79989 14.3397 7.87488 15.8304 7.87488H17.3436V4.92175C17.3436 4.92175 15.9703 4.68738 14.6574 4.68738C11.9164 4.68738 10.1248 6.34863 10.1248 9.35613V11.9999H7.07797V15.4686H10.1248V23.8541C10.7358 23.95 11.362 23.9999 11.9998 23.9999C12.6377 23.9999 13.2639 23.95 13.8748 23.8541V15.4686H16.6709Z" fill="white"/>
</g>
<defs>
<clipPath id="clip0_306_1779">
<rect width="24" height="24" fill="white"/>
</clipPath>
</defs>
</svg>
