<svg width="341" height="341" viewBox="0 0 341 341" fill="none" xmlns="http://www.w3.org/2000/svg">
<path d="M300.856 71.9563C292.965 61.491 283.101 52.673 271.82 46.0007C253.086 34.8691 231.944 28.1711 210.552 24.4651C142.858 12.7487 105.75 25.1451 77.7611 45.2935C59.2243 58.6691 53.3967 87.1067 47.9227 107.785C44.8491 119.393 42.1087 131.123 38.2871 142.513C32.3507 160.193 18.8663 174.473 14.3715 192.704C9.61152 211.941 9.98552 232.205 16.5747 250.987C29.5967 288.088 51.7239 309.589 102.5 316.729C129.7 320.564 151.562 309.324 174.131 295.799C188.044 287.462 202.466 279.948 218.433 276.548C235.297 272.964 252.644 272.468 269.555 269.136C307.384 261.69 319.522 225.888 324.438 191.976C330.388 150.918 326.662 106.045 300.856 71.9563Z" fill="#407BFF"/>
<path opacity="0.7" d="M300.856 71.9563C292.965 61.491 283.101 52.673 271.82 46.0007C253.086 34.8691 231.944 28.1711 210.552 24.4651C142.858 12.7487 105.75 25.1451 77.7611 45.2935C59.2243 58.6691 53.3967 87.1067 47.9227 107.785C44.8491 119.393 42.1087 131.123 38.2871 142.513C32.3507 160.193 18.8663 174.473 14.3715 192.704C9.61152 211.941 9.98552 232.205 16.5747 250.987C29.5967 288.088 51.7239 309.589 102.5 316.729C129.7 320.564 151.562 309.324 174.131 295.799C188.044 287.462 202.466 279.948 218.433 276.548C235.297 272.964 252.644 272.468 269.555 269.136C307.384 261.69 319.522 225.888 324.438 191.976C330.388 150.918 326.662 106.045 300.856 71.9563Z" fill="white"/>
<g opacity="0.2">
<path d="M325.228 41.064H195.511L190.907 52.1004H325.228V41.064Z" stroke="black" stroke-linejoin="round"/>
<path d="M325.228 52.1006H195.511L190.907 63.1438H325.228V52.1006Z" stroke="black" stroke-linejoin="round"/>
<path d="M325.228 63.1436H195.511L190.907 74.1799H325.228V63.1436Z" stroke="black" stroke-linejoin="round"/>
<path d="M325.228 74.1802H195.511L190.907 85.2234H325.228V74.1802Z" stroke="black" stroke-linejoin="round"/>
<path d="M325.228 85.2231H195.511L190.907 96.2595H325.228V85.2231Z" stroke="black" stroke-linejoin="round"/>
<path d="M325.228 96.2598H195.511L190.907 107.303H325.228V96.2598Z" stroke="black" stroke-linejoin="round"/>
<path d="M325.228 107.303H195.511L190.907 118.339H325.228V107.303Z" stroke="black" stroke-linejoin="round"/>
<path d="M325.228 118.339H195.511L190.907 129.383H325.228V118.339Z" stroke="black" stroke-linejoin="round"/>
<path d="M325.228 129.382H195.511L190.907 140.419H325.228V129.382Z" stroke="black" stroke-linejoin="round"/>
<path d="M325.228 140.419H195.511L190.907 151.462H325.228V140.419Z" stroke="black" stroke-linejoin="round"/>
<path d="M325.228 151.462H195.511L190.907 162.498H325.228V151.462Z" stroke="black" stroke-linejoin="round"/>
<path d="M325.228 162.499H195.511L190.907 173.542H325.228V162.499Z" stroke="black" stroke-linejoin="round"/>
<path d="M325.228 173.542H195.511L190.907 184.578H325.228V173.542Z" stroke="black" stroke-linejoin="round"/>
<path d="M325.228 184.578H195.511L190.907 195.621H325.228V184.578Z" stroke="black" stroke-linejoin="round"/>
<path d="M325.228 195.621H195.511L190.907 206.658H325.228V195.621Z" stroke="black" stroke-linejoin="round"/>
<path d="M325.228 206.658H195.511L190.907 217.701H325.228V206.658Z" stroke="black" stroke-linejoin="round"/>
<path d="M327.981 37.3853H189.526V221.38H327.981V37.3853Z" stroke="black" stroke-linejoin="round"/>
</g>
<g opacity="0.2">
<path d="M72.383 287.741H25.8574V312.296H72.383V287.741Z" stroke="black" stroke-linejoin="round"/>
<path d="M52.8946 297.145H45.3398V300.803H52.8946V297.145Z" stroke="black" stroke-linejoin="round"/>
<path d="M74.7631 255.829H23.4707V318.654H74.7631V255.829Z" stroke="black" stroke-linejoin="round"/>
<path d="M72.383 259.011H25.8574V283.566H72.383V259.011Z" stroke="black" stroke-linejoin="round"/>
<path d="M52.8946 268.415H45.3398V272.073H52.8946V268.415Z" stroke="black" stroke-linejoin="round"/>
<path d="M54.2207 251.851H35.9287V255.829H54.2207V251.851Z" stroke="black" stroke-linejoin="round"/>
<path d="M45.8699 239.529H42.6875V251.857H45.8699V239.529Z" stroke="black" stroke-linejoin="round"/>
<path d="M60.9794 210.894H26.7822V239.522H60.9794V210.894Z" stroke="black" stroke-linejoin="round"/>
</g>
<g opacity="0.2">
<path d="M264.952 288.91V236.414C264.953 235.423 264.758 234.441 264.379 233.525C264 232.608 263.444 231.776 262.743 231.075C262.042 230.374 261.21 229.818 260.294 229.439C259.377 229.06 258.396 228.865 257.404 228.866H188.438V289.434" stroke="black" stroke-linejoin="round"/>
<path d="M189.017 228.866H118.766C117.775 228.866 116.794 229.061 115.878 229.441C114.963 229.82 114.131 230.376 113.431 231.077C112.731 231.778 112.175 232.611 111.797 233.526C111.418 234.442 111.224 235.423 111.225 236.414V288.91" stroke="black" stroke-linejoin="round"/>
<path d="M271.766 293.949V311.629H188.473V288.91H266.747C267.408 288.909 268.063 289.039 268.674 289.292C269.284 289.545 269.839 289.917 270.305 290.385C270.772 290.854 271.141 291.41 271.392 292.021C271.642 292.633 271.769 293.288 271.766 293.949Z" stroke="black" stroke-linejoin="round"/>
<path d="M189.105 288.91H109.423C108.764 288.91 108.112 289.04 107.503 289.292C106.895 289.545 106.342 289.914 105.877 290.38C105.411 290.847 105.042 291.4 104.791 292.009C104.539 292.617 104.41 293.27 104.411 293.929V311.609H189.105" stroke="black" stroke-linejoin="round"/>
<path d="M104.411 319V311.582H271.909V319" stroke="black" stroke-linejoin="round"/>
<path d="M111.224 258.786C110.752 258.294 110.185 257.903 109.557 257.635C108.93 257.367 108.255 257.229 107.573 257.229H92.402C91.7379 257.228 91.0802 257.358 90.4664 257.612C89.8526 257.865 89.2949 258.237 88.825 258.706C88.3551 259.176 87.9823 259.733 87.728 260.346C87.4737 260.96 87.3428 261.617 87.3428 262.281V318.64" stroke="black" stroke-linejoin="round"/>
<path d="M287.073 318.273V262.281C287.073 260.941 286.54 259.656 285.593 258.709C284.645 257.761 283.36 257.229 282.02 257.229H266.849C266.198 257.226 265.553 257.353 264.952 257.603" stroke="black" stroke-linejoin="round"/>
</g>
<path d="M298.653 36.2697V200.15C298.653 202.133 297.865 204.036 296.462 205.439C295.059 206.842 293.157 207.63 291.173 207.63H54.5327C52.5489 207.63 50.6463 206.842 49.2436 205.439C47.8408 204.036 47.0527 202.133 47.0527 200.15V36.2697C47.0527 34.4663 47.7692 32.7366 49.0444 31.4614C50.3197 30.1862 52.0493 29.4697 53.8527 29.4697H291.853C293.656 29.4697 295.386 30.1862 296.661 31.4614C297.936 32.7366 298.653 34.4663 298.653 36.2697Z" fill="#407BFF" stroke="#263238" stroke-miterlimit="10"/>
<path d="M298.653 36.2697V50.4137H47.0527V36.2697C47.0527 34.4663 47.7692 32.7366 49.0444 31.4614C50.3197 30.1862 52.0493 29.4697 53.8527 29.4697H291.853C293.656 29.4697 295.386 30.1862 296.661 31.4614C297.936 32.7366 298.653 34.4663 298.653 36.2697Z" fill="#C9C9C9" stroke="#263238" stroke-miterlimit="10"/>
<path d="M209.205 47.6731H74.987C74.3822 47.6713 73.8028 47.4298 73.3758 47.0015C72.9488 46.5732 72.709 45.9931 72.709 45.3883C72.709 44.7835 72.9488 44.2034 73.3758 43.7751C73.8028 43.3468 74.3822 43.1053 74.987 43.1035H209.205C209.811 43.1035 210.392 43.3442 210.821 43.7727C211.249 44.2012 211.49 44.7824 211.49 45.3883C211.49 45.9943 211.249 46.5754 210.821 47.0039C210.392 47.4324 209.811 47.6731 209.205 47.6731Z" fill="white" stroke="#263238" stroke-miterlimit="10"/>
<path d="M285.902 43.5596H294.579" stroke="#263238" stroke-miterlimit="10"/>
<path d="M285.902 45.3887H294.579" stroke="#263238" stroke-miterlimit="10"/>
<path d="M285.902 47.2178H294.579" stroke="#263238" stroke-miterlimit="10"/>
<path d="M298.653 36.2697V40.3497H47.0527V36.2697C47.0527 34.4663 47.7692 32.7366 49.0444 31.4614C50.3197 30.1862 52.0493 29.4697 53.8527 29.4697H291.853C293.656 29.4697 295.386 30.1862 296.661 31.4614C297.936 32.7366 298.653 34.4663 298.653 36.2697Z" fill="#263238" stroke="#263238" stroke-miterlimit="10"/>
<path d="M273.588 35.1343C273.596 34.7208 273.481 34.3143 273.257 33.9666C273.033 33.619 272.71 33.3459 272.331 33.1824C271.951 33.0188 271.531 32.9721 271.124 33.0483C270.718 33.1245 270.343 33.32 270.048 33.61C269.754 33.9 269.552 34.2713 269.469 34.6765C269.386 35.0816 269.426 35.5023 269.583 35.8848C269.74 36.2673 270.008 36.5942 270.352 36.8239C270.696 37.0536 271.1 37.1756 271.514 37.1743C271.785 37.1788 272.054 37.1294 272.305 37.0289C272.557 36.9284 272.785 36.7788 272.978 36.5889C273.172 36.3991 273.325 36.1726 273.429 35.9229C273.534 35.6731 273.588 35.4051 273.588 35.1343Z" fill="white" stroke="#263238" stroke-miterlimit="10"/>
<path d="M282.183 35.1344C282.19 34.7228 282.074 34.3185 281.85 33.973C281.626 33.6275 281.305 33.3564 280.926 33.1942C280.548 33.032 280.13 32.986 279.726 33.0622C279.321 33.1383 278.948 33.3331 278.655 33.6218C278.361 33.9104 278.16 34.2799 278.078 34.6831C277.995 35.0863 278.034 35.505 278.19 35.886C278.346 36.267 278.611 36.5929 278.953 36.8223C279.295 37.0518 279.697 37.1743 280.109 37.1744C280.38 37.1789 280.649 37.1294 280.9 37.029C281.151 36.9285 281.38 36.7789 281.573 36.589C281.766 36.3991 281.92 36.1727 282.024 35.923C282.129 35.6732 282.183 35.4052 282.183 35.1344Z" fill="white" stroke="#263238" stroke-miterlimit="10"/>
<path d="M290.779 35.1344C290.785 34.7228 290.669 34.3185 290.446 33.973C290.222 33.6275 289.9 33.3564 289.522 33.1942C289.144 33.032 288.726 32.986 288.321 33.0622C287.917 33.1383 287.544 33.3331 287.25 33.6218C286.957 33.9104 286.756 34.2799 286.673 34.6831C286.59 35.0863 286.629 35.505 286.785 35.886C286.941 36.267 287.207 36.5929 287.549 36.8223C287.891 37.0518 288.293 37.1743 288.705 37.1744C288.975 37.1789 289.244 37.1294 289.496 37.029C289.747 36.9285 289.976 36.7789 290.169 36.589C290.362 36.3991 290.515 36.1727 290.62 35.923C290.725 35.6732 290.779 35.4052 290.779 35.1344Z" fill="white" stroke="#263238" stroke-miterlimit="10"/>
<path d="M285.094 57.3975H61.2988V197.45H285.094V57.3975Z" fill="white" stroke="#263238" stroke-miterlimit="10"/>
<path d="M279.382 63.1978H67.0039V191.636H279.382V63.1978Z" stroke="#407BFF" stroke-width="5" stroke-miterlimit="10"/>
<path d="M273.955 69.6235H72.4307V185.224H273.955V69.6235Z" stroke="#407BFF" stroke-miterlimit="10"/>
<path d="M139.492 83.149V84.339H138.091V83.0742C138.091 81.8842 137.622 81.1702 136.548 81.1702C135.473 81.1702 135.004 81.8502 135.004 83.0742V90.051C135.004 91.2342 135.494 91.955 136.548 91.955C137.602 91.955 138.091 91.2342 138.091 90.051V88.3306H139.492V89.949C139.492 91.9482 138.547 93.2674 136.507 93.2674C134.467 93.2674 133.549 91.9482 133.549 89.949V83.149C133.549 81.1498 134.494 79.8306 136.507 79.8306C138.52 79.8306 139.492 81.143 139.492 83.149Z" fill="#263238"/>
<path d="M145.524 85.8011V87.1203H142.294V91.8123H146.258V93.1723H140.818V79.9531H146.258V81.3131H142.294V85.8215L145.524 85.8011Z" fill="#263238"/>
<path d="M150.556 79.9531C152.63 79.9531 153.493 81.0139 153.493 82.9723V84.0467C153.493 85.5019 152.983 86.4063 151.855 86.7667C153.058 87.1271 153.514 88.1267 153.514 89.5207V91.5607C153.47 92.1026 153.562 92.6468 153.779 93.1451H152.29C152.081 92.6399 151.997 92.0917 152.045 91.5471V89.4731C152.045 87.9771 151.365 87.5079 150.121 87.5079H149.08V93.1451H147.611V79.9531H150.556ZM150.175 86.1751C151.345 86.1751 152.045 85.8011 152.045 84.3663V83.1015C152.045 81.9183 151.61 81.2927 150.515 81.2927H149.08V86.1751H150.175Z" fill="#263238"/>
<path d="M156.961 93.1518V81.2926H154.533V79.9326H160.864V81.2926H158.436V93.1518H156.961Z" fill="#263238"/>
<path d="M163.354 79.9531V93.1519H161.885V79.9531H163.354Z" fill="#263238"/>
<path d="M169.371 86.1003V87.4603H166.331V93.1723H164.862V79.9531H170.105V81.3131H166.331V86.1207L169.371 86.1003Z" fill="#263238"/>
<path d="M172.744 79.9531V93.1519H171.269V79.9531H172.744Z" fill="#263238"/>
<path d="M180.074 83.149V84.339H178.66V83.0742C178.66 81.8842 178.19 81.1702 177.116 81.1702C176.042 81.1702 175.566 81.8502 175.566 83.0742V90.051C175.566 91.2342 176.055 91.955 177.116 91.955C178.177 91.955 178.66 91.2342 178.66 90.051V88.3306H180.054V89.949C180.054 91.9482 179.115 93.2674 177.075 93.2674C175.035 93.2674 174.117 91.9482 174.117 89.949V83.149C174.117 81.1498 175.056 79.8306 177.075 79.8306C179.095 79.8306 180.074 81.143 180.074 83.149Z" fill="#263238"/>
<path d="M182.903 90.4931L182.393 93.1519H181.033L183.556 79.9531H185.684L188.214 93.1519H186.752L186.242 90.4931H182.903ZM183.094 89.2283H186.031L184.542 81.6123L183.094 89.2283Z" fill="#263238"/>
<path d="M191.295 93.1518V81.2926H188.86V79.9326H195.198V81.2926H192.764V93.1518H191.295Z" fill="#263238"/>
<path d="M197.7 79.9531V93.1519H196.231V79.9531H197.7Z" fill="#263238"/>
<path d="M199.06 83.149C199.06 81.109 200.059 79.8306 202.072 79.8306C204.085 79.8306 205.112 81.1294 205.112 83.149V89.949C205.112 91.9482 204.112 93.2674 202.072 93.2674C200.032 93.2674 199.06 91.989 199.06 89.949V83.149ZM200.508 90.051C200.508 91.2546 201.018 91.955 202.072 91.955C203.126 91.955 203.636 91.275 203.636 90.051V83.0674C203.636 81.8774 203.146 81.1634 202.072 81.1634C200.998 81.1634 200.508 81.8434 200.508 83.0674V90.051Z" fill="#263238"/>
<path d="M207.825 93.1519H206.54V79.9531H208.403L211.456 89.4731V79.9531H212.762V93.1519H211.232L207.832 82.4827L207.825 93.1519Z" fill="#263238"/>
<path d="M123.75 100.509H224.982" stroke="#263238" stroke-miterlimit="10"/>
<path d="M260.328 113.422H267.332" stroke="#263238" stroke-miterlimit="10"/>
<path d="M200.399 113.422H256.629" stroke="#263238" stroke-miterlimit="10"/>
<path d="M167.848 113.422H197.19" stroke="#263238" stroke-miterlimit="10"/>
<path d="M124.192 113.422H164.884" stroke="#263238" stroke-miterlimit="10"/>
<path d="M97.8008 113.422H119.996" stroke="#263238" stroke-miterlimit="10"/>
<path d="M81.3994 113.422H94.5982" stroke="#263238" stroke-miterlimit="10"/>
<path d="M165.624 119.617H267.332" stroke="#263238" stroke-miterlimit="10"/>
<path d="M86.7031 119.617H162.421" stroke="#263238" stroke-miterlimit="10"/>
<path d="M81.3994 119.617H83.7454" stroke="#263238" stroke-miterlimit="10"/>
<path d="M259.587 125.812H267.332" stroke="#263238" stroke-miterlimit="10"/>
<path d="M217.909 125.812H255.887" stroke="#263238" stroke-miterlimit="10"/>
<path d="M160.442 125.812H214.951" stroke="#263238" stroke-miterlimit="10"/>
<path d="M152.059 125.812H157.24" stroke="#263238" stroke-miterlimit="10"/>
<path d="M81.3994 125.812H147.618" stroke="#263238" stroke-miterlimit="10"/>
<path d="M236.405 132.014H267.332" stroke="#263238" stroke-miterlimit="10"/>
<path d="M125.919 132.014H233.447" stroke="#263238" stroke-miterlimit="10"/>
<path d="M116.053 132.014H121.976" stroke="#263238" stroke-miterlimit="10"/>
<path d="M81.3994 132.014H112.849" stroke="#263238" stroke-miterlimit="10"/>
<path d="M248 138.208H267.332" stroke="#263238" stroke-miterlimit="10"/>
<path d="M165.38 138.208H244.056" stroke="#263238" stroke-miterlimit="10"/>
<path d="M133.807 138.208H161.68" stroke="#263238" stroke-miterlimit="10"/>
<path d="M89.6611 138.208H130.108" stroke="#263238" stroke-miterlimit="10"/>
<path d="M81.3994 138.208H87.1998" stroke="#263238" stroke-miterlimit="10"/>
<path d="M88.9131 165.504L95.2915 182.075L98.3787 174.582L105.879 177.635L98.5487 162.077L88.9131 165.504Z" fill="#263238" stroke="#263238" stroke-linecap="round" stroke-linejoin="round"/>
<path d="M86.636 161.899L78.918 177.886L86.4932 175.023L89.3968 182.578L95.7344 166.591L86.636 161.899Z" fill="#263238" stroke="#263238" stroke-linecap="round" stroke-linejoin="round"/>
<path d="M105.859 157.874C105.859 157.269 107.171 156.575 107.09 155.99C107.008 155.406 105.553 155.1 105.383 154.535C105.213 153.971 106.274 152.924 106.029 152.386C105.784 151.849 104.302 151.972 103.989 151.468C103.676 150.965 104.39 149.673 103.989 149.224C103.588 148.776 102.214 149.313 101.765 148.918C101.316 148.524 101.656 147.089 101.153 146.763C100.65 146.436 99.4804 147.348 98.9296 147.096C98.3788 146.844 98.3108 145.369 97.7328 145.199C97.1548 145.029 96.298 146.232 95.6928 146.151C95.0876 146.069 94.6116 144.668 94.0064 144.668C93.4012 144.668 92.9048 146.069 92.32 146.151C91.7352 146.232 90.8512 145.036 90.28 145.199C89.7088 145.362 89.6 146.851 89.0764 147.096C88.5528 147.341 87.3628 146.416 86.8596 146.763C86.3564 147.11 86.6964 148.531 86.2476 148.925C85.7988 149.32 84.4116 148.776 84.024 149.224C83.6364 149.673 84.3572 150.965 84.024 151.468C83.6908 151.972 82.222 151.842 81.984 152.386C81.746 152.93 82.8 153.957 82.63 154.535C82.46 155.113 81.0116 155.399 80.9232 155.99C80.8348 156.582 82.154 157.269 82.154 157.874C82.154 158.479 80.8416 159.166 80.9232 159.751C81.0048 160.336 82.46 160.642 82.63 161.213C82.8 161.784 81.7324 162.818 81.984 163.355C82.2356 163.892 83.7112 163.776 84.024 164.273C84.3368 164.769 83.616 166.068 84.024 166.517C84.432 166.966 85.792 166.428 86.2476 166.823C86.7032 167.217 86.3564 168.652 86.8596 168.978C87.3628 169.305 88.5324 168.394 89.0764 168.645C89.6204 168.897 89.702 170.372 90.28 170.542C90.858 170.712 91.7148 169.509 92.32 169.597C92.9252 169.686 93.4012 171.073 94.0064 171.073C94.6116 171.073 95.108 169.679 95.6928 169.597C96.2776 169.516 97.1616 170.706 97.7328 170.542C98.304 170.379 98.4128 168.89 98.9364 168.645C99.46 168.4 100.65 169.325 101.153 168.978C101.656 168.632 101.316 167.21 101.765 166.823C102.214 166.435 103.601 166.966 103.989 166.517C104.376 166.068 103.656 164.776 103.989 164.273C104.322 163.77 105.791 163.899 106.029 163.355C106.267 162.811 105.213 161.784 105.383 161.206C105.553 160.628 107.001 160.349 107.09 159.751C107.178 159.152 105.859 158.479 105.859 157.874Z" fill="#407BFF" stroke="#263238" stroke-miterlimit="10"/>
<path d="M94.0201 166.075C98.5493 166.075 102.221 162.403 102.221 157.874C102.221 153.345 98.5493 149.673 94.0201 149.673C89.491 149.673 85.8193 153.345 85.8193 157.874C85.8193 162.403 89.491 166.075 94.0201 166.075Z" fill="#263238" stroke="#263238" stroke-linecap="round" stroke-linejoin="round"/>
<path d="M94.0205 152.237L95.2853 156.133H99.3789L96.0673 158.534L97.3321 162.43L94.0205 160.023L90.7089 162.43L91.9737 158.534L88.6621 156.133H92.7557L94.0205 152.237Z" fill="#407BFF"/>
<path d="M115.509 153.944H146.789" stroke="#263238" stroke-miterlimit="10"/>
<path d="M115.509 161.417H146.789" stroke="#263238" stroke-miterlimit="10"/>
<path d="M249.849 171.685C256.271 171.685 261.477 166.479 261.477 160.057C261.477 153.635 256.271 148.429 249.849 148.429C243.427 148.429 238.221 153.635 238.221 160.057C238.221 166.479 243.427 171.685 249.849 171.685Z" stroke="#407BFF" stroke-miterlimit="10"/>
<path d="M251.533 167.779C255.788 166.847 258.483 162.642 257.551 158.386C256.619 154.13 252.414 151.436 248.159 152.368C243.903 153.299 241.208 157.505 242.14 161.76C243.072 166.016 247.277 168.71 251.533 167.779Z" fill="#407BFF"/>
<path d="M288.14 290.889C288.14 290.889 285.76 286.809 284.57 284.599C283.74 282.999 283.002 281.353 282.36 279.669C282.36 279.669 285.25 281.369 286.1 282.049C286.95 282.729 290.52 286.979 290.52 286.979L291.54 285.789L290.35 281.879L294.26 286.299L296.13 278.309L299.02 285.959L304.46 279.159L304.8 285.959L311.43 280.689L309.05 289.019L306.5 292.589H288.31L288.14 290.889Z" fill="#407BFF" stroke="#263238" stroke-miterlimit="10"/>
<path d="M287.12 290.889C287.12 290.889 285.59 290.209 283.04 287.149C281.411 285.166 279.934 283.063 278.62 280.859C278.62 280.859 284.4 284.089 286.44 285.619C288.181 287.107 289.775 288.757 291.2 290.549C291.2 290.549 289.5 286.299 289.33 284.259C289.16 282.219 288.99 277.799 288.99 277.799C288.99 277.799 293.92 282.729 294.26 284.089C294.6 285.449 296.47 290.039 296.47 290.039C297.034 287.968 297.488 285.868 297.83 283.749C298.17 281.199 300.89 277.119 300.89 277.119C300.89 277.119 301.23 280.009 301.4 282.899C301.57 285.789 299.87 291.229 299.87 291.229C299.87 291.229 302.08 285.959 304.29 283.409C306.025 281.514 307.9 279.752 309.9 278.139C309.9 278.139 308.2 283.409 307.52 285.789C306.885 287.642 306.029 289.411 304.97 291.059C306.565 289.043 308.268 287.113 310.07 285.279C311.729 283.951 313.492 282.758 315.34 281.709C315.34 281.709 313.47 285.279 312.11 287.319C310.841 289.09 309.479 290.792 308.03 292.419H287.12V290.889Z" fill="#407BFF" stroke="#263238" stroke-miterlimit="10"/>
<path d="M311.056 290.549L309.879 300.919L307.86 318.654H286.555L284.536 300.919L283.359 290.549H311.056Z" fill="white" stroke="#263238" stroke-miterlimit="10"/>
<path d="M309.88 300.919L307.86 318.653H286.556L284.536 300.919H309.88Z" fill="#407BFF" stroke="#263238" stroke-miterlimit="10"/>
<path d="M288.48 305.849C289.043 305.849 289.5 305.392 289.5 304.829C289.5 304.266 289.043 303.809 288.48 303.809C287.917 303.809 287.46 304.266 287.46 304.829C287.46 305.392 287.917 305.849 288.48 305.849Z" fill="#263238"/>
<path d="M295.96 305.849C296.524 305.849 296.98 305.392 296.98 304.829C296.98 304.266 296.524 303.809 295.96 303.809C295.397 303.809 294.94 304.266 294.94 304.829C294.94 305.392 295.397 305.849 295.96 305.849Z" fill="#263238"/>
<path d="M291.37 311.119C291.933 311.119 292.39 310.662 292.39 310.099C292.39 309.536 291.933 309.079 291.37 309.079C290.806 309.079 290.35 309.536 290.35 310.099C290.35 310.662 290.806 311.119 291.37 311.119Z" fill="#263238"/>
<path d="M300.38 311.119C300.944 311.119 301.4 310.662 301.4 310.099C301.4 309.536 300.944 309.079 300.38 309.079C299.817 309.079 299.36 309.536 299.36 310.099C299.36 310.662 299.817 311.119 300.38 311.119Z" fill="#263238"/>
<path d="M306.33 311.119C306.893 311.119 307.35 310.662 307.35 310.099C307.35 309.536 306.893 309.079 306.33 309.079C305.766 309.079 305.31 309.536 305.31 310.099C305.31 310.662 305.766 311.119 306.33 311.119Z" fill="#263238"/>
<path d="M303.44 305.849C304.003 305.849 304.46 305.392 304.46 304.829C304.46 304.266 304.003 303.809 303.44 303.809C302.877 303.809 302.42 304.266 302.42 304.829C302.42 305.392 302.877 305.849 303.44 305.849Z" fill="#263238"/>
<path d="M288.48 315.369C289.043 315.369 289.5 314.912 289.5 314.349C289.5 313.786 289.043 313.329 288.48 313.329C287.917 313.329 287.46 313.786 287.46 314.349C287.46 314.912 287.917 315.369 288.48 315.369Z" fill="#263238"/>
<path d="M295.96 315.369C296.524 315.369 296.98 314.912 296.98 314.349C296.98 313.786 296.524 313.329 295.96 313.329C295.397 313.329 294.94 313.786 294.94 314.349C294.94 314.912 295.397 315.369 295.96 315.369Z" fill="#263238"/>
<path d="M303.44 315.369C304.003 315.369 304.46 314.912 304.46 314.349C304.46 313.786 304.003 313.329 303.44 313.329C302.877 313.329 302.42 313.786 302.42 314.349C302.42 314.912 302.877 315.369 303.44 315.369Z" fill="#263238"/>
<path d="M184.902 203.755C184.915 198.573 182.176 194.365 178.785 194.356C175.394 194.348 172.634 198.543 172.622 203.725C172.609 208.908 175.348 213.116 178.739 213.124C182.13 213.133 184.89 208.938 184.902 203.755Z" fill="white" stroke="#263238" stroke-linecap="round" stroke-linejoin="round"/>
<path d="M186.474 180.246C186.474 180.246 183.162 182.144 180.007 180.09C176.852 178.036 179.062 177.098 179.694 175.833C180.327 174.568 178.749 174.256 178.429 172.522C178.11 170.788 179.218 169.366 179.851 169.21C180.483 169.054 180.327 167.313 180.327 165.579C180.327 163.845 182.367 162.267 183.319 162.267C184.271 162.267 184.896 161.009 185.529 159.432C186.161 157.854 187.426 156.433 189.609 157.392C191.791 158.35 192.92 158.337 194.029 156.759C195.137 155.182 197.809 154.869 198.789 155.658C199.768 156.446 200.203 158.024 202.1 156.446C203.997 154.869 206.357 155.188 207.459 156.29C208.56 157.392 208.404 158.656 210.179 158.024C211.953 157.392 214.748 158.337 215.381 160.234C216.013 162.131 219.461 164.178 220.746 163.702C222.031 163.226 224.214 163.702 223.105 166.068C221.997 168.435 223.269 170.012 224.214 170.012C225.159 170.012 227.213 170.645 226.104 172.692C224.996 174.738 224.214 176.323 225.472 176.948C226.73 177.574 228.783 177.737 227.213 180.423C225.642 183.109 224.37 182.946 224.846 184.503C225.322 186.06 226.261 186.543 224.846 187.658C223.432 188.774 221.691 189.236 221.691 190.181C221.691 191.126 223.581 191.596 221.371 192.384C220.097 192.85 218.774 193.169 217.427 193.336C217.427 193.336 214.279 184.816 205.283 181.98C196.286 179.145 191.091 179.451 189.037 180.559C186.984 181.668 186.474 180.246 186.474 180.246Z" fill="#263238" stroke="#263238" stroke-linecap="round" stroke-linejoin="round"/>
<path d="M189.649 238.074L178.089 243.405C178.089 243.405 172.112 276.494 172.541 285.674C172.969 294.854 178.089 317.695 178.089 317.695H205.861C205.861 317.695 201.59 289.727 203.725 279.697C205.861 269.667 210.988 242.127 210.988 242.127C210.988 242.127 202.447 239.781 199.883 239.352C197.32 238.924 189.649 238.074 189.649 238.074Z" fill="white" stroke="#263238" stroke-miterlimit="10"/>
<path d="M176.389 253.53L208.349 256.291C208.091 257.651 207.832 259.011 207.567 260.371L175.743 257.651C175.94 256.209 176.178 254.829 176.389 253.53ZM203.739 279.669C203.983 278.513 204.269 277.126 204.582 275.589L173.533 272.91C173.356 274.338 173.2 275.718 173.057 277.031L203.739 279.689V279.669ZM206.459 265.919L174.845 263.199C174.641 264.559 174.437 265.919 174.247 267.32L205.656 270.04C205.949 268.721 206.214 267.347 206.486 265.947L206.459 265.919ZM172.561 283.083C172.52 284.062 172.513 284.925 172.561 285.646C172.561 286.143 172.622 286.68 172.669 287.244L203.14 289.189C203.14 287.734 203.14 286.333 203.14 285.027L172.561 283.083ZM178.286 243.289L178.096 243.377C178.096 243.377 177.824 244.901 177.416 247.383L209.485 250.157C209.77 248.613 210.035 247.226 210.253 246.077L178.286 243.289ZM204.126 304.095L175.26 303.789C175.532 305.23 175.811 306.624 176.076 307.95L204.636 308.277C204.5 306.971 204.323 305.57 204.174 304.149L204.126 304.095ZM174.023 297.24L203.65 298.981C203.532 297.589 203.43 296.195 203.344 294.799L173.349 293.038C173.594 294.418 173.825 295.833 174.07 297.267L174.023 297.24Z" fill="#263238"/>
<path d="M187.942 232.069C187.942 232.069 185.596 241.031 185.385 245.73C185.175 250.429 190.077 254.264 197.122 253.625C204.167 252.986 205.445 245.302 205.445 243.377C205.445 241.453 205.86 225.269 205.86 225.269C203.499 227.29 200.999 229.144 198.38 230.818C194.348 233.375 187.942 232.069 187.942 232.069Z" fill="#B5B5B5" stroke="#263238" stroke-miterlimit="10"/>
<path d="M194.348 239.78C201.019 236.584 204.344 230.308 205.847 226.323C205.847 225.643 205.847 225.262 205.847 225.262C203.485 227.283 200.986 229.137 198.367 230.811C194.287 233.375 187.908 232.096 187.908 232.096C187.908 232.096 186.446 237.699 185.726 242.364C188.723 241.988 191.637 241.114 194.348 239.78Z" fill="#263238" stroke="#263238" stroke-miterlimit="10"/>
<path d="M217.21 197.825C217.21 197.825 216.938 188.359 213.422 182.946C209.907 177.533 202.495 174.222 194.219 175.629C183.951 177.397 179.341 185.095 177.716 191.589C176.09 198.083 177.988 207.549 177.988 214.029C177.988 220.509 185.563 232.151 187.725 234.048C189.888 235.945 193.226 236.571 197.041 234.64C200.543 232.858 206.303 226.799 209.818 223.284C213.334 219.768 215.428 209.31 215.972 206.875C216.516 204.441 217.21 197.825 217.21 197.825Z" fill="#B5B5B5" stroke="#263238" stroke-linecap="round" stroke-linejoin="round"/>
<path d="M188.527 216.211C188.527 216.211 188.207 218.251 192.94 217.945" stroke="#263238" stroke-linecap="round" stroke-linejoin="round"/>
<path d="M187.105 221.57C187.105 221.57 192.627 225.357 198.149 221.733" stroke="#263238" stroke-linecap="round" stroke-linejoin="round"/>
<path d="M198.149 208.949C198.149 208.949 199.564 206.583 203.671 208.63" stroke="#263238" stroke-width="2" stroke-linecap="round" stroke-linejoin="round"/>
<path d="M187.106 207.535C187.106 208.67 186.575 209.575 185.922 209.575C185.27 209.575 184.739 208.657 184.739 207.535C184.739 206.413 185.27 205.495 185.922 205.495C186.575 205.495 187.106 206.406 187.106 207.535Z" fill="#263238"/>
<path d="M182.061 201.068C182.061 201.068 183.482 197.913 188.181 199.491" stroke="#263238" stroke-linecap="round" stroke-linejoin="round"/>
<path d="M196.096 200.789C196.096 200.789 200.516 198.423 205.405 202.047" stroke="#263238" stroke-linecap="round" stroke-linejoin="round"/>
<path d="M194.219 175.629C183.951 177.397 179.341 185.095 177.716 191.589C177.376 193.03 177.175 194.501 177.117 195.982C177.648 194.329 180.402 187.08 188.208 185.102C197.048 182.898 204.773 185.734 207.452 189.522C210.131 193.309 209.492 198.198 210.451 200.565C211.049 202.061 214.055 204.318 216.183 205.774C216.673 202.87 217.21 197.79 217.21 197.79C217.21 197.79 216.938 188.325 213.422 182.912C209.907 177.499 202.495 174.222 194.219 175.629Z" fill="#263238" stroke="#263238" stroke-linecap="round" stroke-linejoin="round"/>
<path d="M214.551 199.49C214.551 199.49 215.34 191.133 212.973 185.612C210.607 180.09 207.771 177.724 207.771 177.724C207.771 177.724 214.395 181.198 216.761 184.524C219.127 187.849 219.44 195.88 218.801 201.401L213.912 200.612L214.551 199.49Z" fill="#407BFF" stroke="#263238" stroke-miterlimit="10"/>
<path d="M220.909 207.691C219.957 212.785 216.482 216.409 213.143 215.79C209.805 215.171 207.88 210.527 208.832 205.434C209.784 200.34 213.259 196.716 216.591 197.335C219.923 197.954 221.861 202.598 220.909 207.691Z" fill="white" stroke="#263238" stroke-linecap="round" stroke-linejoin="round"/>
<path d="M220.306 208.345C221.028 204.48 219.563 200.964 217.034 200.491C214.505 200.019 211.87 202.77 211.148 206.635C210.426 210.5 211.891 214.016 214.42 214.489C216.948 214.961 219.584 212.21 220.306 208.345Z" fill="#407BFF" stroke="#263238" stroke-miterlimit="10"/>
<path d="M181.754 296.887C183.346 308.175 185.304 318.3 185.304 318.3H173.642C173.642 318.3 170.657 302.925 167.026 294.391C164.986 289.536 164.489 287.591 164.455 286.796C162.871 290.57 152.997 313.887 151.229 314.676C149.305 315.526 142.26 313.996 139.669 313.18C137.078 312.364 136.902 308.699 137.33 307.203C137.758 305.707 155.69 262.37 157.39 259.603C158.984 256.783 160.204 253.768 161.021 250.633C161.232 249.355 160.804 246.363 162.728 245.302C163.891 244.656 172.064 242.766 178.368 241.365C182.489 240.447 185.8 239.747 185.8 239.747C185.8 239.747 180.7 258.739 179.83 272.189C179.456 278.153 180.51 287.891 181.754 296.88C181.761 296.88 181.761 296.88 181.754 296.887Z" fill="#407BFF" stroke="#263238" stroke-miterlimit="10"/>
<path d="M181.755 296.88C180.286 294.466 174.329 284.103 173.533 273.311C172.819 263.628 176.682 247.737 178.382 241.351C182.503 240.433 185.814 239.733 185.814 239.733C185.814 239.733 180.701 258.739 179.83 272.189C179.456 278.153 180.483 287.89 181.755 296.88Z" fill="#407BFF" stroke="#263238" stroke-miterlimit="10"/>
<path d="M166.101 264.424C166.631 262.118 167.025 260.874 167.025 260.874" stroke="#263238" stroke-miterlimit="10"/>
<path d="M164.68 286.279C164.68 286.279 163.394 281.791 164.462 273.685C164.748 271.543 165.054 269.639 165.36 268" stroke="#263238" stroke-miterlimit="10"/>
<path d="M258.601 288.149C253.691 287.931 229.143 272.638 229.143 272.638C229.143 272.638 221.452 287.707 221.242 290.767C221.031 293.827 227.219 318.3 227.219 318.3H200.964C200.964 318.3 200.168 309.712 200.005 300.294C199.93 295.948 200.005 291.454 200.325 287.489C201.392 275.038 205.656 239.889 205.656 239.889L209.933 240.324C209.933 240.324 211.144 240.732 213.041 241.392C218.093 243.146 228.001 246.737 232.346 249.28C238.316 252.775 246.626 258.46 250.706 261.085C254.786 263.71 264.367 269.605 266.285 277.473C268.202 285.34 263.51 288.366 258.601 288.149Z" fill="#407BFF" stroke="#263238" stroke-miterlimit="10"/>
<path d="M213.041 241.365C212.463 250.11 210.763 270.938 207.098 281.016C203.589 290.651 201.066 297.444 200.005 300.294C199.93 295.948 200.005 291.454 200.325 287.489C201.392 275.038 205.656 239.889 205.656 239.889L209.933 240.324C209.933 240.324 211.144 240.705 213.041 241.365Z" stroke="#263238" stroke-miterlimit="10"/>
<path d="M229.143 272.631L219.324 269.578" stroke="#263238" stroke-miterlimit="10"/>
<path d="M215.177 262.961C215.462 266.191 216.353 269.761 218.686 271.761" stroke="#263238" stroke-miterlimit="10"/>
<path d="M215.265 256.25C215.127 257.474 215.057 258.704 215.054 259.936" stroke="#263238" stroke-miterlimit="10"/>
<path d="M214.021 267.606C214.021 267.606 216.367 271.978 219.141 273.508" stroke="#263238" stroke-miterlimit="10"/>
<path d="M228.729 236.313C228.334 234.71 228.128 233.067 228.117 231.417C228.117 228.785 228.729 227.303 227.77 227.391C226.811 227.479 225.138 228.703 224.615 230.791C224.091 232.879 225.227 234.817 225.403 235.517C225.511 235.947 225.57 236.387 225.58 236.829C225.58 236.829 217.964 237.088 216.563 237.088C215.163 237.088 213.762 237.877 213.762 239.189C213.762 240.501 215.251 241.229 215.251 241.229L215.931 241.583C215.931 241.583 215.054 243.242 215.666 244.119C216.004 244.619 216.419 245.062 216.897 245.431C216.713 245.697 216.6 246.005 216.569 246.326C216.538 246.648 216.59 246.972 216.72 247.267C216.946 247.863 217.341 248.381 217.855 248.757C217.855 248.757 216.72 249.811 218.209 251.211C219.698 252.612 222.935 252.701 225.206 252.701C227.477 252.701 229.409 252.782 229.409 252.782L230.374 252.871L238.425 264.866L246.041 256.373C246.041 256.373 234.835 245.493 233.346 243.595C231.857 241.698 228.729 236.313 228.729 236.313Z" fill="#B5B5B5" stroke="#263238" stroke-miterlimit="10"/>
<path d="M245.79 255.359L235.332 265.179C235.332 265.179 244.94 277.99 250.061 284.429C255.181 290.869 264.579 291.909 268.632 288.693C272.684 285.477 273.12 278.235 269.488 273.733C265.857 269.231 245.79 255.359 245.79 255.359Z" fill="#407BFF" stroke="#263238" stroke-miterlimit="10"/>
<path d="M175.805 306.937C175.805 306.937 191.159 309.589 192.594 309.589C194.029 309.589 209.179 305.7 210.199 306.516C211.219 307.332 217.978 313.071 219.617 314.71C220.591 315.677 221.418 316.781 222.072 317.987H207.948L203.651 316.961C203.651 316.961 200.006 318.647 197.959 318.647C195.912 318.647 189.058 318.253 189.058 318.253L176.995 318.055C176.995 318.055 172.935 311.235 175.805 306.937Z" fill="#B5B5B5" stroke="#263238" stroke-miterlimit="10"/>
<path d="M212.245 317.994C212.245 317.994 208.764 314.105 207.336 313.078C206.47 312.452 205.514 311.964 204.5 311.629" stroke="#263238" stroke-miterlimit="10"/>
<path d="M216.958 318.198C216.958 318.198 210.198 310.827 209.382 310.208C208.479 309.684 207.516 309.273 206.513 308.984" stroke="#263238" stroke-miterlimit="10"/>
<path d="M142.226 299.974C142.226 299.974 136.106 304.891 135.059 308.134C134.012 311.378 135.467 315.301 138.744 316.532C142.022 317.763 178.579 318.429 178.579 318.429C177.98 318.708 175.301 316.199 176.824 312.847C177.858 310.575 180.714 307.318 180.714 307.318L150.209 299.539" fill="#407BFF"/>
<path d="M142.226 299.974C142.226 299.974 136.106 304.891 135.059 308.134C134.012 311.378 135.467 315.301 138.744 316.532C142.022 317.763 178.579 318.429 178.579 318.429C177.98 318.708 175.301 316.199 176.824 312.847C177.858 310.575 180.714 307.318 180.714 307.318L150.209 299.539" stroke="#263238" stroke-miterlimit="10"/>
<path d="M193.796 317.042H68.3359V318.653H193.796V317.042Z" fill="#263238" stroke="#263238" stroke-miterlimit="10"/>
<path d="M148.284 318.653H70.036L62.8008 264.24H141.048L148.284 318.653Z" fill="white" stroke="#263238" stroke-miterlimit="10"/>
<path d="M146.693 318.653H68.452L61.2168 264.24H139.458L146.693 318.653Z" fill="white" stroke="#263238" stroke-miterlimit="10"/>
<path d="M74.4971 318.654H146.455L141.015 277.582C131.386 283.702 119.656 291.624 106.872 301.382C97.1277 308.917 86.1827 314.757 74.4971 318.654Z" fill="#263238" stroke="#263238" stroke-miterlimit="10"/>
<path d="M101.466 295.683C104.305 295.683 106.607 293.558 106.607 290.936C106.607 288.315 104.305 286.19 101.466 286.19C98.6268 286.19 96.3252 288.315 96.3252 290.936C96.3252 293.558 98.6268 295.683 101.466 295.683Z" fill="white" stroke="#263238" stroke-miterlimit="10"/>
<path d="M8.0957 318.654H322.14" stroke="#263238" stroke-miterlimit="10"/>
</svg>
