<svg width="886" height="922" viewBox="0 0 886 922" fill="none" xmlns="http://www.w3.org/2000/svg">
<path d="M516.486 438.605C560.669 442.801 603.899 452.439 643.707 466.97C683.515 481.5 719.122 500.639 748.495 523.293C777.868 545.947 800.431 571.672 814.897 599C829.362 626.328 835.447 654.723 832.803 682.564C830.159 710.406 818.839 737.149 799.488 761.265C780.137 785.382 753.135 806.4 720.023 823.121C686.912 839.841 648.339 851.935 606.507 858.714C564.675 865.492 520.404 866.821 476.221 862.625L496.353 650.615L516.486 438.605Z" fill="#051019"/>
<path d="M549.048 95.6919C593.231 99.8875 636.461 109.526 676.269 124.057C716.077 138.587 751.684 157.726 781.057 180.38C810.43 203.034 832.993 228.759 847.459 256.087C861.924 283.414 868.009 311.81 865.365 339.651C862.721 367.493 851.401 394.236 832.05 418.352C812.699 442.469 785.697 463.487 752.585 480.208C719.474 496.928 680.901 509.022 639.069 515.801C597.237 522.579 552.966 523.908 508.783 519.712L528.915 307.702L549.048 95.6919Z" fill="#051019"/>
<path d="M23.3434 211.565L346.153 34.839L340.126 337.804L585.42 391.307L401.266 604.829L615.731 823.038L138.168 713.05L23.3434 211.565Z" fill="#FFC700"/>
</svg>
