<svg width="341" height="341" viewBox="0 0 341 341" fill="none" xmlns="http://www.w3.org/2000/svg">
<path opacity="0.7" d="M46.6929 114.49C46.6929 114.49 27.7345 163.45 54.3769 212.75C81.0193 262.05 135.895 288.094 179.817 310.364C223.738 332.634 269.345 321.788 291.017 285.313C312.689 248.838 282.966 222.801 282.925 170.788C282.884 118.774 290.711 105.004 262.525 61.0629C234.339 17.1213 165.244 7.39053 112.993 39.9829C60.7417 72.5753 46.6929 114.49 46.6929 114.49Z" fill="white"/>
<path d="M160.382 25.1588C244.702 17.6788 244.872 65.2312 282.877 109.567C320.882 153.903 329.008 173.997 314.66 225.106C300.312 276.215 252.1 316.273 192.355 293.575C132.61 270.877 98.42 292.671 60.7548 272.495C23.0896 252.32 9.07484 213.396 36.6692 167.496C64.2636 121.596 56.3824 34.4204 160.382 25.1588Z" fill="#407BFF"/>
<path opacity="0.7" d="M160.382 25.1588C244.702 17.6788 244.872 65.2312 282.877 109.567C320.882 153.903 329.008 173.997 314.66 225.106C300.312 276.215 252.1 316.273 192.355 293.575C132.61 270.877 98.42 292.671 60.7548 272.495C23.0896 252.32 9.07484 213.396 36.6692 167.496C64.2636 121.596 56.3824 34.4204 160.382 25.1588Z" fill="white"/>
<path d="M216.532 45.5085L83.9951 60.2578L104.499 244.502L237.035 229.753L216.532 45.5085Z" fill="white" stroke="#263238" stroke-linecap="round" stroke-linejoin="round"/>
<path d="M216.532 45.509L83.9951 60.2583L86.832 85.7505L219.369 71.0013L216.532 45.509Z" fill="#BFBFBF" stroke="#263238" stroke-linecap="round" stroke-linejoin="round"/>
<path d="M179.708 57.2547L122.493 63.6195C122.227 63.6328 121.966 63.7001 121.728 63.8173C121.489 63.9346 121.276 64.0994 121.103 64.3015C120.93 64.5037 120.8 64.7391 120.72 64.9932C120.641 65.2474 120.615 65.515 120.643 65.7798C120.67 66.0445 120.752 66.3008 120.882 66.533C121.012 66.7652 121.188 66.9685 121.4 67.1303C121.611 67.2922 121.853 67.4092 122.111 67.4744C122.369 67.5395 122.638 67.5513 122.901 67.5091L180.116 61.1443C180.617 61.0686 181.068 60.802 181.377 60.4003C181.685 59.9987 181.826 59.4933 181.769 58.9902C181.713 58.487 181.464 58.0252 181.075 57.7016C180.685 57.3781 180.186 57.2179 179.681 57.2547H179.708Z" fill="white"/>
<path d="M166.291 66.8293L137.691 70.0117C137.563 70.0243 137.439 70.0623 137.326 70.1234C137.213 70.1846 137.114 70.2676 137.033 70.3676C136.953 70.4676 136.893 70.5827 136.858 70.706C136.822 70.8294 136.812 70.9586 136.827 71.0861C136.854 71.3438 136.983 71.5801 137.184 71.7433C137.386 71.9065 137.644 71.9831 137.901 71.9565L166.509 68.7741C166.759 68.7362 166.985 68.6029 167.139 68.4021C167.293 68.2013 167.364 67.9486 167.336 67.697C167.308 67.4454 167.183 67.2145 166.988 67.0527C166.794 66.8909 166.544 66.8109 166.291 66.8293Z" fill="white"/>
<path opacity="0.3" d="M187.67 88.8747L112.7 97.2115C112.508 97.2331 112.332 97.3302 112.212 97.4813C112.091 97.6324 112.036 97.8252 112.057 98.0173C112.079 98.2094 112.176 98.385 112.327 98.5055C112.478 98.626 112.671 98.6815 112.863 98.6599L187.813 90.3231C188.005 90.3015 188.18 90.2044 188.301 90.0533C188.421 89.9022 188.477 89.7094 188.455 89.5173C188.434 89.3252 188.337 89.1496 188.186 89.0291C188.034 88.9086 187.842 88.8531 187.65 88.8747H187.67Z" fill="black"/>
<path opacity="0.3" d="M188.248 94.0771L102.051 103.665C101.859 103.687 101.684 103.784 101.563 103.935C101.443 104.086 101.387 104.279 101.409 104.471C101.431 104.663 101.528 104.839 101.679 104.959C101.83 105.08 102.023 105.135 102.215 105.114L188.411 95.5255C188.51 95.5196 188.605 95.4939 188.693 95.4499C188.781 95.406 188.859 95.3446 188.923 95.2696C188.986 95.1946 189.034 95.1076 189.063 95.0136C189.092 94.9197 189.102 94.8209 189.091 94.7231C189.081 94.6244 189.05 94.5289 189.001 94.4424C188.953 94.3559 188.887 94.2802 188.808 94.2198C188.729 94.1594 188.639 94.1156 188.543 94.0911C188.447 94.0666 188.346 94.0618 188.248 94.0771Z" fill="black"/>
<path opacity="0.3" d="M166.332 101.781L102.63 108.867C102.438 108.888 102.262 108.985 102.141 109.137C102.021 109.288 101.965 109.481 101.987 109.673C102.009 109.865 102.106 110.04 102.257 110.161C102.408 110.281 102.601 110.337 102.793 110.315L166.488 103.23C166.587 103.224 166.682 103.198 166.77 103.154C166.858 103.11 166.936 103.049 167 102.974C167.063 102.899 167.111 102.812 167.14 102.718C167.169 102.624 167.179 102.525 167.168 102.427C167.158 102.329 167.127 102.234 167.079 102.148C167.031 102.062 166.965 101.987 166.887 101.927C166.809 101.866 166.72 101.822 166.625 101.797C166.529 101.772 166.43 101.767 166.332 101.781Z" fill="black"/>
<path opacity="0.3" d="M206.678 86.1119L199.075 86.958C198.053 87.0718 197.316 87.9931 197.43 89.0158L198.276 96.6189C198.39 97.6416 199.311 98.3784 200.334 98.2646L207.937 97.4185C208.959 97.3047 209.696 96.3833 209.582 95.3606L208.736 87.7576C208.622 86.7349 207.701 85.9981 206.678 86.1119Z" stroke="#263238" stroke-linecap="round" stroke-linejoin="round"/>
<path d="M200.427 91.9551L202.929 94.3147L206.22 89.2759" stroke="#407BFF" stroke-width="3" stroke-linecap="round" stroke-linejoin="round"/>
<path opacity="0.3" d="M190.41 113.518L115.461 121.855C115.269 121.877 115.093 121.974 114.972 122.125C114.852 122.276 114.796 122.469 114.818 122.661C114.84 122.853 114.937 123.029 115.088 123.149C115.239 123.27 115.432 123.325 115.624 123.303L190.573 114.967C190.669 114.956 190.761 114.927 190.844 114.88C190.928 114.834 191.002 114.772 191.062 114.697C191.121 114.622 191.166 114.536 191.192 114.444C191.219 114.352 191.227 114.256 191.216 114.161C191.205 114.066 191.176 113.974 191.13 113.89C191.083 113.806 191.021 113.732 190.946 113.673C190.871 113.613 190.786 113.569 190.694 113.542C190.602 113.516 190.505 113.508 190.41 113.518Z" fill="black"/>
<path opacity="0.3" d="M190.988 118.72L104.792 128.308C104.697 128.319 104.605 128.348 104.521 128.394C104.437 128.441 104.363 128.503 104.304 128.578C104.244 128.653 104.2 128.738 104.173 128.83C104.147 128.922 104.138 129.019 104.149 129.114C104.16 129.209 104.189 129.301 104.235 129.385C104.282 129.468 104.344 129.542 104.419 129.602C104.494 129.662 104.58 129.706 104.672 129.732C104.764 129.759 104.86 129.767 104.955 129.756L191.152 120.168C191.344 120.147 191.519 120.05 191.64 119.899C191.76 119.747 191.816 119.555 191.794 119.363C191.773 119.17 191.676 118.995 191.524 118.874C191.373 118.754 191.181 118.698 190.988 118.72Z" fill="black"/>
<path opacity="0.3" d="M169.072 126.425L105.37 133.51C105.178 133.532 105.002 133.629 104.882 133.78C104.761 133.931 104.706 134.124 104.727 134.316C104.749 134.508 104.846 134.684 104.997 134.804C105.148 134.925 105.341 134.98 105.533 134.959L169.229 127.873C169.327 127.867 169.423 127.842 169.511 127.798C169.599 127.754 169.677 127.692 169.74 127.617C169.804 127.542 169.851 127.455 169.88 127.361C169.909 127.267 169.919 127.169 169.909 127.071C169.898 126.973 169.867 126.878 169.819 126.792C169.771 126.706 169.706 126.63 169.628 126.57C169.55 126.51 169.46 126.466 169.365 126.441C169.269 126.416 169.17 126.41 169.072 126.425Z" fill="black"/>
<path opacity="0.3" d="M209.422 110.75L201.819 111.596C200.796 111.709 200.059 112.631 200.173 113.654L201.019 121.257C201.133 122.279 202.054 123.016 203.077 122.902L210.68 122.056C211.703 121.942 212.439 121.021 212.326 119.998L211.479 112.395C211.366 111.373 210.444 110.636 209.422 110.75Z" stroke="#263238" stroke-linecap="round" stroke-linejoin="round"/>
<path d="M203.174 116.599L205.669 118.958L208.961 113.919" stroke="#407BFF" stroke-width="3" stroke-linecap="round" stroke-linejoin="round"/>
<path opacity="0.3" d="M193.151 138.161L118.201 146.498C118.021 146.533 117.861 146.634 117.753 146.782C117.644 146.929 117.595 147.112 117.616 147.294C117.637 147.476 117.725 147.644 117.864 147.764C118.003 147.883 118.181 147.946 118.364 147.94L193.314 139.589C193.409 139.578 193.501 139.549 193.585 139.503C193.669 139.457 193.743 139.394 193.802 139.319C193.862 139.245 193.906 139.159 193.933 139.067C193.959 138.975 193.967 138.879 193.957 138.783C193.946 138.688 193.917 138.596 193.87 138.512C193.824 138.429 193.762 138.355 193.687 138.295C193.612 138.236 193.526 138.191 193.434 138.165C193.342 138.138 193.246 138.13 193.151 138.141V138.161Z" fill="black"/>
<path opacity="0.3" d="M193.735 143.363L107.532 152.951C107.437 152.961 107.344 152.989 107.26 153.035C107.176 153.08 107.102 153.142 107.042 153.217C106.983 153.292 106.939 153.378 106.913 153.47C106.887 153.562 106.88 153.659 106.893 153.754C106.903 153.849 106.932 153.941 106.977 154.025C107.023 154.109 107.085 154.183 107.16 154.243C107.234 154.303 107.32 154.348 107.412 154.375C107.504 154.402 107.6 154.41 107.695 154.4L193.892 144.812C193.99 144.805 194.086 144.778 194.174 144.734C194.262 144.689 194.34 144.627 194.404 144.552C194.467 144.476 194.515 144.388 194.544 144.294C194.573 144.2 194.582 144.101 194.572 144.003C194.561 143.905 194.531 143.81 194.482 143.724C194.434 143.639 194.369 143.564 194.29 143.504C194.212 143.444 194.123 143.401 194.027 143.377C193.932 143.353 193.833 143.348 193.735 143.363Z" fill="black"/>
<path opacity="0.3" d="M171.812 151.068L108.11 158.153C107.918 158.175 107.742 158.272 107.622 158.423C107.501 158.574 107.446 158.767 107.467 158.959C107.489 159.151 107.586 159.327 107.737 159.447C107.888 159.568 108.081 159.623 108.273 159.602L171.969 152.509C172.161 152.489 172.337 152.392 172.458 152.242C172.579 152.091 172.636 151.899 172.615 151.707C172.594 151.515 172.498 151.339 172.347 151.218C172.197 151.097 172.005 151.04 171.812 151.061V151.068Z" fill="black"/>
<path opacity="0.3" d="M212.163 135.387L204.56 136.233C203.537 136.347 202.8 137.269 202.914 138.291L203.76 145.894C203.874 146.917 204.795 147.654 205.818 147.54L213.421 146.694C214.444 146.58 215.181 145.659 215.067 144.636L214.221 137.033C214.107 136.01 213.186 135.273 212.163 135.387Z" stroke="#263238" stroke-linecap="round" stroke-linejoin="round"/>
<path d="M205.915 141.242L208.411 143.601L211.709 138.556" stroke="#407BFF" stroke-width="3" stroke-linecap="round" stroke-linejoin="round"/>
<path opacity="0.3" d="M195.891 162.805L120.941 171.141C120.762 171.176 120.601 171.277 120.493 171.425C120.384 171.573 120.336 171.756 120.356 171.938C120.377 172.12 120.465 172.287 120.604 172.407C120.743 172.527 120.922 172.589 121.105 172.583L196.054 164.246C196.154 164.243 196.253 164.219 196.343 164.175C196.434 164.132 196.514 164.07 196.58 163.994C196.645 163.918 196.694 163.83 196.724 163.734C196.754 163.638 196.763 163.537 196.752 163.437C196.74 163.338 196.709 163.241 196.658 163.155C196.608 163.068 196.54 162.992 196.46 162.933C196.379 162.873 196.287 162.831 196.189 162.809C196.091 162.787 195.99 162.786 195.891 162.805Z" fill="black"/>
<path opacity="0.3" d="M196.477 168.006L110.273 177.594C110.178 177.604 110.085 177.632 110.001 177.678C109.917 177.723 109.843 177.785 109.783 177.86C109.724 177.935 109.68 178.021 109.654 178.113C109.628 178.205 109.622 178.302 109.634 178.397C109.644 178.492 109.673 178.584 109.719 178.668C109.765 178.752 109.827 178.826 109.901 178.886C109.976 178.946 110.061 178.991 110.153 179.018C110.245 179.045 110.341 179.053 110.436 179.043L196.633 169.455C196.826 169.433 197.002 169.335 197.123 169.183C197.244 169.032 197.3 168.838 197.279 168.646C197.257 168.455 197.16 168.28 197.01 168.16C196.859 168.041 196.668 167.985 196.477 168.006Z" fill="black"/>
<path opacity="0.3" d="M174.58 175.711L110.878 182.797C110.782 182.806 110.69 182.834 110.606 182.88C110.522 182.926 110.448 182.988 110.388 183.062C110.328 183.137 110.284 183.223 110.259 183.316C110.233 183.408 110.226 183.504 110.238 183.599C110.249 183.694 110.277 183.786 110.323 183.87C110.369 183.954 110.431 184.029 110.506 184.089C110.58 184.149 110.666 184.193 110.758 184.22C110.849 184.247 110.946 184.255 111.041 184.245L174.736 177.159C174.832 177.149 174.924 177.12 175.008 177.075C175.092 177.029 175.166 176.967 175.226 176.892C175.286 176.818 175.331 176.732 175.357 176.64C175.384 176.548 175.393 176.452 175.382 176.357C175.373 176.262 175.345 176.169 175.299 176.084C175.254 176 175.192 175.926 175.117 175.865C175.042 175.805 174.956 175.761 174.864 175.734C174.772 175.708 174.675 175.7 174.58 175.711Z" fill="black"/>
<path opacity="0.3" d="M214.906 160.032L207.303 160.878C206.28 160.992 205.543 161.913 205.657 162.936L206.503 170.539C206.617 171.562 207.538 172.298 208.561 172.185L216.164 171.338C217.187 171.225 217.924 170.303 217.81 169.281L216.964 161.678C216.85 160.655 215.929 159.918 214.906 160.032Z" stroke="#263238" stroke-linecap="round" stroke-linejoin="round"/>
<path d="M208.655 165.878L211.151 168.238L214.449 163.199" stroke="#407BFF" stroke-width="3" stroke-linecap="round" stroke-linejoin="round"/>
<path opacity="0.3" d="M198.639 187.441L123.689 195.778C123.594 195.788 123.502 195.817 123.418 195.863C123.334 195.909 123.26 195.971 123.2 196.045C123.14 196.12 123.095 196.205 123.068 196.297C123.042 196.389 123.033 196.485 123.043 196.58C123.054 196.675 123.082 196.768 123.128 196.852C123.174 196.935 123.236 197.01 123.311 197.07C123.385 197.13 123.471 197.174 123.563 197.201C123.654 197.228 123.751 197.237 123.846 197.226L198.795 188.89C198.89 188.879 198.983 188.851 199.067 188.805C199.151 188.759 199.225 188.697 199.285 188.622C199.345 188.548 199.389 188.462 199.416 188.37C199.443 188.278 199.452 188.182 199.441 188.087C199.419 187.896 199.322 187.721 199.172 187.6C199.022 187.479 198.831 187.422 198.639 187.441Z" fill="black"/>
<path opacity="0.3" d="M199.216 192.63L113.013 202.218C112.912 202.221 112.814 202.245 112.724 202.289C112.633 202.332 112.553 202.394 112.487 202.47C112.422 202.546 112.373 202.634 112.343 202.73C112.313 202.826 112.304 202.927 112.315 203.027C112.326 203.126 112.358 203.223 112.408 203.309C112.459 203.396 112.526 203.472 112.607 203.531C112.688 203.59 112.78 203.632 112.878 203.655C112.976 203.677 113.077 203.678 113.176 203.659L199.373 194.071C199.473 194.069 199.572 194.046 199.664 194.003C199.755 193.96 199.836 193.899 199.903 193.823C199.969 193.747 200.019 193.659 200.049 193.563C200.079 193.467 200.089 193.365 200.079 193.265C200.068 193.165 200.036 193.068 199.986 192.981C199.936 192.894 199.868 192.818 199.787 192.758C199.706 192.698 199.613 192.656 199.515 192.634C199.417 192.612 199.315 192.61 199.216 192.63Z" fill="black"/>
<path opacity="0.3" d="M177.301 200.354L113.598 207.44C113.406 207.461 113.231 207.559 113.11 207.71C112.99 207.861 112.934 208.054 112.956 208.246C112.977 208.438 113.074 208.613 113.226 208.734C113.377 208.854 113.569 208.91 113.762 208.888L177.464 201.803C177.655 201.779 177.83 201.681 177.949 201.529C178.069 201.378 178.124 201.185 178.103 200.993C178.093 200.899 178.064 200.807 178.018 200.723C177.972 200.639 177.91 200.566 177.836 200.506C177.761 200.447 177.675 200.403 177.583 200.377C177.492 200.35 177.395 200.343 177.301 200.354Z" fill="black"/>
<path opacity="0.3" d="M217.649 184.676L210.046 185.522C209.023 185.636 208.287 186.558 208.4 187.58L209.247 195.183C209.36 196.206 210.282 196.943 211.304 196.829L218.907 195.983C219.93 195.869 220.667 194.948 220.553 193.925L219.707 186.322C219.593 185.299 218.672 184.563 217.649 184.676Z" stroke="#263238" stroke-linecap="round" stroke-linejoin="round"/>
<path d="M211.396 190.521L213.891 192.881L217.189 187.842" stroke="#407BFF" stroke-width="3" stroke-linecap="round" stroke-linejoin="round"/>
<path opacity="0.3" d="M200.727 206.229L125.777 214.58C125.585 214.601 125.409 214.698 125.289 214.849C125.168 215.001 125.113 215.193 125.134 215.385C125.156 215.578 125.253 215.753 125.404 215.874C125.555 215.994 125.748 216.05 125.94 216.028L200.89 207.691C200.985 207.682 201.078 207.654 201.162 207.608C201.246 207.562 201.32 207.5 201.379 207.425C201.439 207.351 201.483 207.265 201.509 207.172C201.534 207.08 201.541 206.984 201.529 206.889C201.521 206.793 201.493 206.699 201.448 206.613C201.403 206.528 201.341 206.452 201.266 206.391C201.192 206.329 201.105 206.283 201.013 206.256C200.92 206.228 200.823 206.219 200.727 206.229Z" fill="black"/>
<path opacity="0.3" d="M201.304 211.452L115.108 221.04C115.007 221.042 114.908 221.065 114.817 221.108C114.725 221.151 114.644 221.212 114.578 221.288C114.511 221.363 114.461 221.452 114.431 221.548C114.401 221.644 114.391 221.745 114.402 221.845C114.413 221.946 114.444 222.042 114.494 222.13C114.544 222.217 114.612 222.293 114.693 222.353C114.774 222.412 114.867 222.455 114.965 222.477C115.063 222.499 115.165 222.5 115.264 222.481L201.468 212.893C201.647 212.859 201.808 212.757 201.916 212.61C202.025 212.462 202.073 212.279 202.053 212.097C202.032 211.915 201.944 211.747 201.805 211.628C201.666 211.508 201.487 211.445 201.304 211.452Z" fill="black"/>
<path opacity="0.3" d="M179.381 219.15L115.685 226.235C115.59 226.245 115.498 226.274 115.414 226.32C115.33 226.366 115.256 226.428 115.196 226.502C115.136 226.577 115.091 226.663 115.064 226.754C115.038 226.846 115.029 226.942 115.039 227.038C115.062 227.23 115.159 227.406 115.311 227.527C115.462 227.649 115.656 227.705 115.849 227.684L179.544 220.598C179.639 220.587 179.731 220.558 179.815 220.512C179.899 220.465 179.973 220.403 180.032 220.328C180.092 220.253 180.136 220.168 180.163 220.076C180.189 219.984 180.198 219.887 180.187 219.792C180.176 219.697 180.147 219.605 180.101 219.521C180.054 219.438 179.992 219.364 179.917 219.304C179.842 219.244 179.756 219.2 179.664 219.174C179.572 219.147 179.476 219.139 179.381 219.15Z" fill="black"/>
<path opacity="0.3" d="M219.743 203.471L212.14 204.317C211.117 204.431 210.38 205.352 210.494 206.375L211.34 213.978C211.454 215.001 212.375 215.738 213.398 215.624L221.001 214.778C222.024 214.664 222.761 213.743 222.647 212.72L221.801 205.117C221.687 204.094 220.766 203.357 219.743 203.471Z" stroke="#263238" stroke-linecap="round" stroke-linejoin="round"/>
<path d="M213.483 209.323L215.979 211.683L219.277 206.644" stroke="#407BFF" stroke-width="3" stroke-linecap="round" stroke-linejoin="round"/>
<path d="M138.41 158.133C138.476 157.351 138.282 156.57 137.859 155.909L137.023 154.427L135.364 155.365L136.268 156.956C136.717 157.752 136.533 158.242 135.976 158.554C135.418 158.867 134.901 158.786 134.452 157.99L132.514 154.549L130.434 154.957L132.65 158.867C133.664 160.656 135.132 161.166 136.853 160.227C137.126 160.07 137.38 159.881 137.608 159.663C137.511 159.439 137.494 159.188 137.56 158.953C137.625 158.718 137.769 158.512 137.968 158.371C138.101 158.268 138.251 158.187 138.41 158.133Z" fill="#407BFF"/>
<path d="M129.366 153.074L129.761 153.754H132.052L131.053 151.986C130.604 151.19 130.781 150.687 131.338 150.374C131.896 150.061 132.419 150.156 132.868 150.959L133.548 152.149L135.201 151.21L134.589 150.129C133.575 148.348 132.107 147.831 130.386 148.81C129.991 149.023 129.641 149.309 129.353 149.653C129.743 149.779 130.153 149.836 130.563 149.823L128.931 150.435C128.811 150.881 128.788 151.346 128.863 151.801C128.939 152.256 129.11 152.69 129.366 153.074Z" fill="#407BFF"/>
<path d="M142.075 145.825C142.293 145.716 142.521 145.627 142.755 145.56C143.632 145.165 143.83 143.9 143.755 143.01L142.85 141.888L140.416 143.248L141.939 145.927C141.979 145.886 142.025 145.852 142.075 145.825Z" fill="#407BFF"/>
<path d="M152.445 151.149L154.098 150.211L147.781 139.072L146.21 139.956C146.713 140.079 147.073 140.317 147.087 140.684C146.597 140.752 145.999 140.684 145.469 140.779L148.651 149.027L144.625 144.009C144.636 144.12 144.62 144.232 144.577 144.335C144.534 144.439 144.467 144.53 144.381 144.601C144.197 144.73 143.932 144.73 143.789 144.9C143.646 145.07 143.667 145.274 143.544 145.423C143.422 145.573 143.231 145.614 143.082 145.723C142.932 145.831 142.769 146.11 142.599 146.294C142.517 146.38 142.414 146.444 142.3 146.477L146.774 154.365L148.297 153.495L143.83 145.621L149.569 152.774L151.228 151.836L147.876 143.179L152.445 151.149Z" fill="#407BFF"/>
<path d="M156.628 141.453C156.749 141.513 156.856 141.597 156.944 141.7C157.031 141.803 157.097 141.922 157.138 142.051C157.281 141.211 157.099 140.348 156.628 139.637L155.805 138.182C154.792 136.4 153.384 135.917 151.63 136.91L149.053 138.372L155.377 149.517L157.016 148.586C156.485 148.253 155.894 147.967 155.39 147.607C155.154 147.456 154.96 147.248 154.826 147.001C154.762 146.877 154.736 146.737 154.751 146.598C154.765 146.46 154.82 146.328 154.908 146.219C155.023 146.122 155.163 146.06 155.312 146.039C155.462 146.019 155.614 146.041 155.751 146.104L154.751 144.336L155.581 143.867C156.037 143.619 156.433 143.276 156.744 142.86C156.397 142.309 155.792 141.14 156.628 141.453ZM154.676 142.309L153.847 142.779L151.705 139.005L152.534 138.535C153.092 138.223 153.541 138.304 153.99 139.1L154.942 140.773C155.39 141.534 155.234 141.963 154.676 142.309Z" fill="#407BFF"/>
<path d="M166.005 143.486L165.107 141.894L162.224 143.526L158.008 136.094L157.817 136.244C157.694 136.358 157.545 136.439 157.382 136.481C157.3 136.5 157.215 136.488 157.141 136.448C157.067 136.408 157.01 136.343 156.981 136.264C156.958 136.159 156.958 136.05 156.981 135.944C156.982 135.312 156.782 134.695 156.41 134.183L155.05 134.972L161.367 146.11L166.005 143.486Z" fill="#407BFF"/>
<path d="M165.216 139.589C165.406 139.093 165.998 138.909 166.331 138.461C166.361 138.415 166.388 138.367 166.413 138.318L165.733 137.175L167.453 136.203C167.422 136.095 167.366 135.995 167.29 135.911C167.043 135.79 166.779 135.708 166.508 135.666C166.466 135.581 166.445 135.488 166.446 135.394C166.448 135.299 166.472 135.207 166.516 135.123C166.561 135.04 166.625 134.969 166.703 134.915C166.78 134.862 166.87 134.828 166.964 134.816C167.079 134.816 167.215 134.816 167.304 134.761C167.366 134.687 167.397 134.593 167.392 134.496L167.236 134.224L164.828 135.584L163.074 132.483L166.093 130.763L165.189 129.172L160.429 131.892L165.107 140.14C165.115 139.952 165.152 139.766 165.216 139.589Z" fill="#407BFF"/>
<path d="M171.547 140.344L170.642 138.753L167.616 140.467L166.712 138.909L165.597 139.957L165.209 140.331L166.773 143.085L171.547 140.344Z" fill="#407BFF"/>
<path d="M169.296 127.404C169.296 127.642 169.126 127.907 168.895 127.927C168.777 127.926 168.66 127.907 168.548 127.873C168.338 127.877 168.128 127.856 167.922 127.812C167.878 127.793 167.837 127.768 167.8 127.737L165.801 128.872L166.705 130.47L168.534 129.43L173.974 138.95L175.722 137.957L170.282 128.437L172.118 127.397L171.214 125.806L169.337 126.866C169.303 127.043 169.316 127.227 169.296 127.404Z" fill="#407BFF"/>
<path d="M176.933 134.149L178.293 136.55L180.129 135.509C180.172 135.389 180.227 135.273 180.292 135.163C180.696 134.572 181.241 134.091 181.876 133.762L182.72 133.238L182.162 132.245L179.136 133.966L177.286 130.702L179.694 129.342L178.789 127.751L176.382 129.111L174.628 125.989L177.654 124.276L176.749 122.685L171.989 125.405L175.423 131.463C176.253 131.021 176.668 132.613 176.933 134.149Z" fill="#407BFF"/>
<path d="M141.715 156.154C142.001 156.202 142.171 156.487 142.395 156.678C142.477 156.753 142.571 156.813 142.674 156.855C142.804 156.803 142.931 156.744 143.055 156.678C144.768 155.705 145.129 154.155 144.122 152.367L144.02 152.19L141.667 152.129L142.436 153.489C142.885 154.284 142.708 154.787 142.15 155.1C141.593 155.413 141.069 155.311 140.62 154.515L137.22 148.497C136.765 147.702 136.948 147.205 137.506 146.886C138.063 146.566 138.58 146.675 139.036 147.471L141.341 151.551C142.049 151.375 142.774 151.284 143.503 151.279L140.845 146.593C139.838 144.812 138.322 144.329 136.601 145.301C134.881 146.274 134.521 147.831 135.534 149.613L138.818 155.406C139.026 155.853 139.336 156.244 139.724 156.548C140.111 156.851 140.565 157.059 141.049 157.154C141.045 157.113 141.045 157.072 141.049 157.031C140.967 156.589 141.293 156.073 141.715 156.154Z" fill="#407BFF"/>
<path d="M165.196 124.173L170.534 121.147C169.004 121.569 167.658 122.847 166.08 122.671C165.795 122.596 165.495 122.596 165.21 122.671C165.031 122.786 164.903 122.964 164.85 123.169C164.797 123.374 164.823 123.592 164.924 123.779C164.993 123.924 165.085 124.057 165.196 124.173Z" fill="#407BFF"/>
<path d="M151.807 131.769C151.795 131.652 151.819 131.533 151.875 131.429C152.006 131.475 152.144 131.498 152.283 131.497L154.126 130.457C154.414 130.131 154.743 129.843 155.105 129.6C155.454 129.413 155.824 129.267 156.206 129.165L156.614 129.042L160.014 127.125C160.05 127.055 160.099 126.993 160.157 126.941C160.21 126.906 160.267 126.879 160.327 126.86L156.818 125.799L155.873 126.329L155.771 127.077L151.725 129.24C151.325 129.49 150.879 129.658 150.413 129.736C150.239 129.756 150.063 129.756 149.889 129.736L144.123 133.007C144.169 133.28 144.246 133.547 144.354 133.802C144.016 133.739 143.694 133.607 143.409 133.415L142.226 134.095C143.069 134.652 143.898 135.224 144.708 135.829L151.807 131.769Z" fill="#407BFF"/>
<path d="M176.49 117.775L173.702 116.211L172.383 116.959C173.16 117.758 174.164 118.3 175.259 118.509L176.49 117.775Z" fill="#407BFF"/>
<path d="M191.484 134.238L180.958 115.68C180.548 114.963 179.872 114.436 179.075 114.216C178.279 113.995 177.428 114.099 176.708 114.504L175.443 115.225L175.926 115.694C176.429 116.197 176.946 116.707 177.415 117.244L178.054 116.884C178.143 116.835 178.247 116.822 178.345 116.848C178.443 116.875 178.527 116.939 178.578 117.027L189.111 135.591C189.16 135.68 189.172 135.785 189.144 135.883C189.116 135.981 189.05 136.064 188.961 136.114L174.634 144.274C175.871 144.349 177.123 144.172 178.36 144.315C178.806 144.371 179.249 144.451 179.686 144.553L190.308 138.528C190.669 138.326 190.985 138.053 191.24 137.727C191.495 137.401 191.683 137.028 191.792 136.629C191.901 136.23 191.93 135.813 191.878 135.402C191.825 134.992 191.691 134.596 191.484 134.238Z" fill="#407BFF"/>
<path d="M126.98 157.854L122.029 149.109C122.004 149.065 121.987 149.016 121.98 148.966C121.974 148.915 121.977 148.864 121.99 148.814C122.004 148.765 122.027 148.719 122.058 148.678C122.089 148.638 122.128 148.604 122.172 148.579L136.452 140.473C136.404 140.364 136.343 140.255 136.302 140.147C136.504 140.138 136.706 140.161 136.901 140.215L142.674 136.944C142.484 136.883 142.3 136.808 142.116 136.74L139.396 135.659L137.22 136.896L139.587 138.345C138.764 137.841 137.084 137.773 135.636 137.794L120.86 146.205C120.141 146.614 119.613 147.29 119.392 148.087C119.172 148.884 119.276 149.736 119.683 150.455L123.981 158.031C124.178 157.976 124.382 157.929 124.579 157.895C125.124 157.816 125.675 157.789 126.225 157.813C126.477 157.811 126.729 157.825 126.98 157.854Z" fill="#407BFF"/>
<path d="M144.619 161.267C144.861 161.485 145.137 161.661 145.435 161.791C145.741 161.927 146.149 162.253 145.911 162.471C144.81 162.974 143.45 162.6 142.368 163.151C141.777 163.437 141.206 164.001 140.573 163.831C141.338 164.295 142.026 164.876 142.613 165.551L169.616 150.238C169.616 150.129 169.65 150.02 169.67 149.905C169.671 149.691 169.721 149.48 169.815 149.288C169.909 149.096 170.047 148.928 170.216 148.796C170.385 148.665 170.582 148.574 170.791 148.531C171.001 148.487 171.217 148.492 171.425 148.545C171.775 148.529 172.126 148.566 172.465 148.653L175.831 146.743C175.369 145.947 174.822 145.203 174.199 144.526L144.619 161.267Z" fill="#407BFF"/>
<path d="M140.246 165.762C139.595 165.551 138.995 165.206 138.485 164.749L133.099 167.809C133.056 167.835 133.007 167.851 132.957 167.858C132.907 167.864 132.856 167.861 132.808 167.847C132.759 167.834 132.713 167.811 132.673 167.78C132.634 167.749 132.6 167.71 132.576 167.666L127.816 159.323C127.36 159.165 126.874 159.109 126.394 159.16C125.844 159.268 125.361 159.908 125.66 160.377C125.941 160.384 126.215 160.466 126.454 160.614C126.693 160.762 126.889 160.971 127.02 161.22C126.727 161.453 126.404 161.647 126.061 161.798L130.141 169.013C130.344 169.377 130.617 169.697 130.946 169.954C131.274 170.212 131.65 170.401 132.053 170.51C132.455 170.62 132.875 170.648 133.288 170.593C133.702 170.538 134.1 170.4 134.459 170.189L141.518 166.184L141.436 166.136C141.046 165.99 140.649 165.865 140.246 165.762Z" fill="#407BFF"/>
<g opacity="0.2">
<path d="M138.41 158.133C138.476 157.351 138.282 156.57 137.859 155.909L137.023 154.427L135.364 155.365L136.268 156.956C136.717 157.752 136.533 158.242 135.976 158.554C135.418 158.867 134.901 158.786 134.452 157.99L132.514 154.549L130.434 154.957L132.65 158.867C133.664 160.656 135.132 161.166 136.853 160.227C137.126 160.07 137.38 159.881 137.608 159.663C137.511 159.439 137.494 159.188 137.56 158.953C137.625 158.718 137.769 158.512 137.968 158.371C138.101 158.268 138.251 158.187 138.41 158.133Z" fill="black"/>
<path d="M129.366 153.074L129.761 153.754H132.052L131.053 151.986C130.604 151.19 130.781 150.687 131.338 150.374C131.896 150.061 132.419 150.156 132.868 150.959L133.548 152.149L135.201 151.21L134.589 150.129C133.575 148.348 132.107 147.831 130.386 148.81C129.991 149.023 129.641 149.309 129.353 149.653C129.743 149.779 130.153 149.836 130.563 149.823L128.931 150.435C128.811 150.881 128.788 151.346 128.863 151.801C128.939 152.256 129.11 152.69 129.366 153.074Z" fill="black"/>
<path d="M142.075 145.825C142.293 145.716 142.521 145.627 142.755 145.56C143.632 145.165 143.83 143.9 143.755 143.01L142.85 141.888L140.416 143.248L141.939 145.927C141.979 145.886 142.025 145.852 142.075 145.825Z" fill="black"/>
<path d="M152.445 151.149L154.098 150.211L147.781 139.072L146.21 139.956C146.713 140.079 147.073 140.317 147.087 140.684C146.597 140.752 145.999 140.684 145.469 140.779L148.651 149.027L144.625 144.009C144.636 144.12 144.62 144.232 144.577 144.335C144.534 144.439 144.467 144.53 144.381 144.601C144.197 144.73 143.932 144.73 143.789 144.9C143.646 145.07 143.667 145.274 143.544 145.423C143.422 145.573 143.231 145.614 143.082 145.723C142.932 145.831 142.769 146.11 142.599 146.294C142.517 146.38 142.414 146.444 142.3 146.477L146.774 154.365L148.297 153.495L143.83 145.621L149.569 152.774L151.228 151.836L147.876 143.179L152.445 151.149Z" fill="black"/>
<path d="M156.628 141.453C156.749 141.513 156.856 141.597 156.944 141.7C157.031 141.803 157.097 141.922 157.138 142.051C157.281 141.211 157.099 140.348 156.628 139.637L155.805 138.182C154.792 136.4 153.384 135.917 151.63 136.91L149.053 138.372L155.377 149.517L157.016 148.586C156.485 148.253 155.894 147.967 155.39 147.607C155.154 147.456 154.96 147.248 154.826 147.001C154.762 146.877 154.736 146.737 154.751 146.598C154.765 146.46 154.82 146.328 154.908 146.219C155.023 146.122 155.163 146.06 155.312 146.039C155.462 146.019 155.614 146.041 155.751 146.104L154.751 144.336L155.581 143.867C156.037 143.619 156.433 143.276 156.744 142.86C156.397 142.309 155.792 141.14 156.628 141.453ZM154.676 142.309L153.847 142.779L151.705 139.005L152.534 138.535C153.092 138.223 153.541 138.304 153.99 139.1L154.942 140.773C155.39 141.534 155.234 141.963 154.676 142.309Z" fill="black"/>
<path d="M166.005 143.486L165.107 141.894L162.224 143.526L158.008 136.094L157.817 136.244C157.694 136.358 157.545 136.439 157.382 136.481C157.3 136.5 157.215 136.488 157.141 136.448C157.067 136.408 157.01 136.343 156.981 136.264C156.958 136.159 156.958 136.05 156.981 135.944C156.982 135.312 156.782 134.695 156.41 134.183L155.05 134.972L161.367 146.11L166.005 143.486Z" fill="black"/>
<path d="M165.216 139.589C165.406 139.093 165.998 138.909 166.331 138.461C166.361 138.415 166.388 138.367 166.413 138.318L165.733 137.175L167.453 136.203C167.422 136.095 167.366 135.995 167.29 135.911C167.043 135.79 166.779 135.708 166.508 135.666C166.466 135.581 166.445 135.488 166.446 135.394C166.448 135.299 166.472 135.207 166.516 135.123C166.561 135.04 166.625 134.969 166.703 134.915C166.78 134.862 166.87 134.828 166.964 134.816C167.079 134.816 167.215 134.816 167.304 134.761C167.366 134.687 167.397 134.593 167.392 134.496L167.236 134.224L164.828 135.584L163.074 132.483L166.093 130.763L165.189 129.172L160.429 131.892L165.107 140.14C165.115 139.952 165.152 139.766 165.216 139.589Z" fill="black"/>
<path d="M171.547 140.344L170.642 138.753L167.616 140.467L166.712 138.909L165.597 139.957L165.209 140.331L166.773 143.085L171.547 140.344Z" fill="black"/>
<path d="M169.296 127.404C169.296 127.642 169.126 127.907 168.895 127.927C168.777 127.926 168.66 127.907 168.548 127.873C168.338 127.877 168.128 127.856 167.922 127.812C167.878 127.793 167.837 127.768 167.8 127.737L165.801 128.872L166.705 130.47L168.534 129.43L173.974 138.95L175.722 137.957L170.282 128.437L172.118 127.397L171.214 125.806L169.337 126.866C169.303 127.043 169.316 127.227 169.296 127.404Z" fill="black"/>
<path d="M176.933 134.149L178.293 136.55L180.129 135.509C180.172 135.389 180.227 135.273 180.292 135.163C180.696 134.572 181.241 134.091 181.876 133.762L182.72 133.238L182.162 132.245L179.136 133.966L177.286 130.702L179.694 129.342L178.789 127.751L176.382 129.111L174.628 125.989L177.654 124.276L176.749 122.685L171.989 125.405L175.423 131.463C176.253 131.021 176.668 132.613 176.933 134.149Z" fill="black"/>
<path d="M141.715 156.154C142.001 156.202 142.171 156.487 142.395 156.678C142.477 156.753 142.571 156.813 142.674 156.855C142.804 156.803 142.931 156.744 143.055 156.678C144.768 155.705 145.129 154.155 144.122 152.367L144.02 152.19L141.667 152.129L142.436 153.489C142.885 154.284 142.708 154.787 142.15 155.1C141.593 155.413 141.069 155.311 140.62 154.515L137.22 148.497C136.765 147.702 136.948 147.205 137.506 146.886C138.063 146.566 138.58 146.675 139.036 147.471L141.341 151.551C142.049 151.375 142.774 151.284 143.503 151.279L140.845 146.593C139.838 144.812 138.322 144.329 136.601 145.301C134.881 146.274 134.521 147.831 135.534 149.613L138.818 155.406C139.026 155.853 139.336 156.244 139.724 156.548C140.111 156.851 140.565 157.059 141.049 157.154C141.045 157.113 141.045 157.072 141.049 157.031C140.967 156.589 141.293 156.073 141.715 156.154Z" fill="black"/>
<path d="M165.196 124.173L170.534 121.147C169.004 121.569 167.658 122.847 166.08 122.671C165.795 122.596 165.495 122.596 165.21 122.671C165.031 122.786 164.903 122.964 164.85 123.169C164.797 123.374 164.823 123.592 164.924 123.779C164.993 123.924 165.085 124.057 165.196 124.173Z" fill="black"/>
<path d="M151.807 131.769C151.795 131.652 151.819 131.533 151.875 131.429C152.006 131.475 152.144 131.498 152.283 131.497L154.126 130.457C154.414 130.131 154.743 129.843 155.105 129.6C155.454 129.413 155.824 129.267 156.206 129.165L156.614 129.042L160.014 127.125C160.05 127.055 160.099 126.993 160.157 126.941C160.21 126.906 160.267 126.879 160.327 126.86L156.818 125.799L155.873 126.329L155.771 127.077L151.725 129.24C151.325 129.49 150.879 129.658 150.413 129.736C150.239 129.756 150.063 129.756 149.889 129.736L144.123 133.007C144.169 133.28 144.246 133.547 144.354 133.802C144.016 133.739 143.694 133.607 143.409 133.415L142.226 134.095C143.069 134.652 143.898 135.224 144.708 135.829L151.807 131.769Z" fill="black"/>
<path d="M176.49 117.775L173.702 116.211L172.383 116.959C173.16 117.758 174.164 118.3 175.259 118.509L176.49 117.775Z" fill="black"/>
<path d="M191.484 134.238L180.958 115.68C180.548 114.963 179.872 114.436 179.075 114.216C178.279 113.995 177.428 114.099 176.708 114.504L175.443 115.225L175.926 115.694C176.429 116.197 176.946 116.707 177.415 117.244L178.054 116.884C178.143 116.835 178.247 116.822 178.345 116.848C178.443 116.875 178.527 116.939 178.578 117.027L189.111 135.591C189.16 135.68 189.172 135.785 189.144 135.883C189.116 135.981 189.05 136.064 188.961 136.114L174.634 144.274C175.871 144.349 177.123 144.172 178.36 144.315C178.806 144.371 179.249 144.451 179.686 144.553L190.308 138.528C190.669 138.326 190.985 138.053 191.24 137.727C191.495 137.401 191.683 137.028 191.792 136.629C191.901 136.23 191.93 135.813 191.878 135.402C191.825 134.992 191.691 134.596 191.484 134.238Z" fill="black"/>
<path d="M126.98 157.854L122.029 149.109C122.004 149.065 121.987 149.016 121.98 148.966C121.974 148.915 121.977 148.864 121.99 148.814C122.004 148.765 122.027 148.719 122.058 148.678C122.089 148.638 122.128 148.604 122.172 148.579L136.452 140.473C136.404 140.364 136.343 140.255 136.302 140.147C136.504 140.138 136.706 140.161 136.901 140.215L142.674 136.944C142.484 136.883 142.3 136.808 142.116 136.74L139.396 135.659L137.22 136.896L139.587 138.345C138.764 137.841 137.084 137.773 135.636 137.794L120.86 146.205C120.141 146.614 119.613 147.29 119.392 148.087C119.172 148.884 119.276 149.736 119.683 150.455L123.981 158.031C124.178 157.976 124.382 157.929 124.579 157.895C125.124 157.816 125.675 157.789 126.225 157.813C126.477 157.811 126.729 157.825 126.98 157.854Z" fill="black"/>
<path d="M144.619 161.267C144.861 161.485 145.137 161.661 145.435 161.791C145.741 161.927 146.149 162.253 145.911 162.471C144.81 162.974 143.45 162.6 142.368 163.151C141.777 163.437 141.206 164.001 140.573 163.831C141.338 164.295 142.026 164.876 142.613 165.551L169.616 150.238C169.616 150.129 169.65 150.02 169.67 149.905C169.671 149.691 169.721 149.48 169.815 149.288C169.909 149.096 170.047 148.928 170.216 148.796C170.385 148.665 170.582 148.574 170.791 148.531C171.001 148.487 171.217 148.492 171.425 148.545C171.775 148.529 172.126 148.566 172.465 148.653L175.831 146.743C175.369 145.947 174.822 145.203 174.199 144.526L144.619 161.267Z" fill="black"/>
<path d="M140.246 165.762C139.595 165.551 138.995 165.206 138.485 164.749L133.099 167.809C133.056 167.835 133.007 167.851 132.957 167.858C132.907 167.864 132.856 167.861 132.808 167.847C132.759 167.834 132.713 167.811 132.673 167.78C132.634 167.749 132.6 167.71 132.576 167.666L127.816 159.323C127.36 159.165 126.874 159.109 126.394 159.16C125.844 159.268 125.361 159.908 125.66 160.377C125.941 160.384 126.215 160.466 126.454 160.614C126.693 160.762 126.889 160.971 127.02 161.22C126.727 161.453 126.404 161.647 126.061 161.798L130.141 169.013C130.344 169.377 130.617 169.697 130.946 169.954C131.274 170.212 131.65 170.401 132.053 170.51C132.455 170.62 132.875 170.648 133.288 170.593C133.702 170.538 134.1 170.4 134.459 170.189L141.518 166.184L141.436 166.136C141.046 165.99 140.649 165.865 140.246 165.762Z" fill="black"/>
</g>
<path opacity="0.3" d="M109.626 141.479C113.774 144.526 117.242 159.159 117.555 172.576C117.868 185.992 124.355 208.616 125.13 212.322C125.905 216.028 125.62 221.373 130.434 213.933C135.248 206.494 149.331 193.581 155.2 197.872C161.068 202.163 151.188 216.585 145.836 224.351C140.484 232.117 139.94 245.791 133.528 254.353C127.116 262.914 121.322 275.841 115.039 275.643C108.756 275.446 67.1396 306.318 67.1396 306.318L67.9556 264.063L105.356 202.863L109.626 141.479Z" fill="black" fill-opacity="0.7"/>
<path d="M158.614 199.946C158.403 201.272 151.079 210.976 146.775 218.238C142.47 225.5 138.438 238.142 137.357 239.998C136.276 241.854 123.077 253.448 119.459 258.297C115.842 263.145 109.382 265.287 102.928 269.857C98.7805 272.794 85.8537 287.952 77.1429 298.417C72.3013 304.231 68.7585 308.617 68.7585 308.617L13.0732 294.099C13.0732 294.099 17.6836 290.298 23.7492 285.17H23.79L23.8512 285.123C33.82 276.657 47.7124 264.709 51.5476 260.201C57.7289 252.938 66.3377 244.309 66.3377 244.309C65.8141 234.225 66.8817 224.671 65.9365 221.04C65.4469 219.142 64.5765 208.351 63.8965 205.032C62.2441 196.553 55.0565 187.767 54.2473 184.306C53.4381 180.845 43.952 166.109 48.5829 163.389C49.4247 162.859 50.4254 162.64 51.4117 162.77C57.6677 163.634 62.8221 178.744 66.3717 182.592C67.8926 184.414 69.2703 186.351 70.4925 188.386C73.2941 192.826 76.0413 197.818 76.0413 197.818C77.1157 193.513 69.3161 178.179 67.1605 163.654C65.0049 149.13 58.8237 141.33 67.1605 140.432C67.8455 140.356 68.5389 140.416 69.2005 140.609C75.0689 142.323 77.6121 154.515 81.1209 166.347C81.4473 167.435 84.1197 175.248 86.2005 181.273C87.5605 185.217 88.6485 188.393 88.6485 188.393C88.9137 180.994 86.6085 174.113 86.2277 167.408C86.0645 164.722 86.9077 153.958 85.8469 143.2C84.9357 134.122 85.3505 130.443 88.9001 129.729C89.6604 129.592 90.4354 129.556 91.2053 129.62C97.3593 130.008 99.5421 146.362 99.5421 152.74C99.5421 156.446 100.174 163.682 100.705 169.108C101.092 173.032 101.426 176.01 101.426 176.01C101.426 176.01 102.5 167 101.698 147.566C101.514 143.309 101.793 140.262 103.466 139.032C104.384 138.352 105.71 138.236 107.614 138.753C112.992 140.208 114.74 160.139 114.74 167.673C114.74 175.208 119.044 188.114 119.854 198.273C120.663 208.432 124.185 220.917 124.185 220.917C124.185 220.917 126.178 221.726 127.517 221.461C128.857 221.196 138.146 207.474 138.146 207.474C142.47 198.083 150.889 195.234 155.472 196.288C157.58 196.77 158.94 198.069 158.614 199.946Z" fill="white"/>
<path opacity="0.4" d="M158.613 199.946C158.403 201.272 151.079 210.976 146.775 218.238C142.47 225.5 138.438 238.142 137.357 239.998C136.275 241.854 123.077 253.448 119.459 258.297C115.841 263.145 109.381 265.287 102.928 269.857C98.7802 272.794 85.8534 287.952 77.1426 298.417C78.1014 294.622 80.2502 289.774 85.867 285.116C95.6182 277.017 96.203 270.666 101.446 265.287C106.689 259.908 115.923 261.52 119.241 255.087C122.56 248.654 134.133 242.711 136.554 237.06C138.975 231.41 134.133 230.213 138.438 223.413C142.742 216.613 146.917 214.96 146.305 212.295C145.693 209.629 143.885 205.59 147.618 202.224C149.95 200.13 152.691 197.498 155.492 196.288C157.58 196.77 158.94 198.069 158.613 199.946Z" fill="#407BFF"/>
<path opacity="0.4" d="M88.846 231.865C87.0576 230.967 88.4924 229.179 87.2344 227.69C85.9764 226.201 83.1068 235.816 82.4744 235.85C81.842 235.884 79.9176 230.961 79.156 230.471C78.3944 229.981 77.9456 232.042 76.8644 235.85C75.7832 239.658 71.812 241.589 69.5068 244.309C67.2016 247.029 53.3364 261.819 49.9296 267.375C46.5228 272.93 25.4836 283.926 23.8516 285.109C33.8204 276.657 47.7128 264.709 51.548 260.201C57.7292 252.938 66.338 244.309 66.338 244.309C65.8144 234.225 66.882 224.671 65.9368 221.039C65.4472 219.142 64.5768 208.351 63.8968 205.032C62.2444 196.553 55.0568 187.767 54.2476 184.306C53.4384 180.845 43.9524 166.109 48.5832 163.389C49.425 162.859 50.4257 162.64 51.412 162.77C50.358 163.518 49.3312 164.593 50.29 166.17C51.9968 168.931 53.8736 171.835 53.8736 174.888C53.8736 177.941 59.0756 182.239 61.0952 185.088C63.1148 187.937 61.2312 186.931 62.5776 190.834C63.924 194.737 65.5356 193.921 66.338 197.865C67.1404 201.809 71.6284 204.325 70.9144 209.241C70.2004 214.158 73.0632 220.999 73.0632 220.999C73.0632 220.999 75.3956 214.369 74.5456 210.799C73.6956 207.229 74.6816 202.727 73.8656 201.517C73.1856 200.429 71.3224 193.044 70.4656 188.454C73.2672 192.894 76.0144 197.885 76.0144 197.885C77.0888 193.581 69.2892 178.247 67.1336 163.722C64.978 149.197 58.7968 141.398 67.1336 140.5C67.8186 140.423 68.512 140.483 69.1736 140.677C72.73 147.321 70.2548 152.237 69.466 155.12C68.6024 158.262 73.7432 166.327 74.5048 171.882C75.1848 177.071 76.5856 176.533 76.7692 176.438C76.6128 176.581 75.2868 177.934 76.0892 181.783C76.9256 185.863 82.8892 195.553 82.8892 198.259C82.8892 200.966 82.3996 205.42 82.3996 206.739C82.3996 208.058 87.1596 216.885 87.7308 219.197C88.302 221.509 87.5064 214.743 88.8052 212.397C90.104 210.051 90.7908 201.863 90.9608 202.305C93.198 207.99 90.6412 232.749 88.846 231.865Z" fill="#407BFF"/>
<path opacity="0.4" d="M92.7014 171.1C91.1782 173.405 91.219 191.398 88.6214 191.459C87.3634 191.459 86.7514 186.937 86.2414 181.259C87.6014 185.203 88.6894 188.379 88.6894 188.379C88.9546 180.981 86.6494 174.099 86.2686 167.394C86.1054 164.708 86.9486 153.944 85.8878 143.186C84.9766 134.108 85.3914 130.429 88.941 129.715C89.689 132.136 91.525 134.992 91.9942 137.644C92.6334 141.303 91.3822 144.329 90.3078 144.784C89.2334 145.24 89.0498 147.599 90.3962 147.946C91.7426 148.293 90.3961 165.463 91.0217 167.666C91.6473 169.869 94.2313 168.829 92.7014 171.1Z" fill="#407BFF"/>
<path opacity="0.4" d="M106.675 150.959C103.88 152.19 103.731 154.393 102.894 157.555C102.058 160.717 104.091 165.334 102.894 172.59C101.697 179.845 106.063 184.524 102.894 192.643C99.7254 200.762 101.215 185.843 100.684 179.043C100.501 175.731 100.515 172.411 100.725 169.101C101.113 173.025 101.446 176.003 101.446 176.003C101.446 176.003 102.52 166.993 101.718 147.559C101.534 143.302 101.813 140.256 103.486 139.025C106.355 141.629 109.055 149.912 106.675 150.959Z" fill="#407BFF"/>
<path d="M68.7585 308.623C68.7585 308.623 96.4685 274.46 102.929 269.863C109.389 265.266 115.849 263.138 119.459 258.303C123.07 253.468 136.283 241.888 137.357 240.004C138.431 238.121 142.471 225.48 146.775 218.244C151.079 211.009 158.403 201.244 158.614 199.952C159.552 194.03 144.49 193.764 138.166 207.487C138.166 207.487 128.884 221.202 127.538 221.474C126.191 221.746 124.206 220.93 124.206 220.93C124.206 220.93 120.683 208.452 119.874 198.286C119.065 188.12 114.761 175.2 114.761 167.686C114.761 160.172 113.013 140.221 107.634 138.766C102.255 137.311 101.439 140.996 101.718 147.606C102.521 167.04 101.446 176.05 101.446 176.05C101.446 176.05 99.5625 159.166 99.5625 152.781C99.5625 146.396 97.3797 130.042 91.2257 129.661C85.5749 129.3 84.7861 132.476 85.8673 143.261C86.9485 154.046 86.0849 164.783 86.2481 167.469C86.6493 174.194 88.9681 181.069 88.6689 188.454C88.6689 188.454 81.6717 168.196 81.1345 166.394C77.2381 153.189 74.5385 139.589 67.1401 140.405C58.8033 141.302 64.9913 149.102 67.1401 163.627C69.2889 178.152 77.0953 193.486 76.0209 197.79C76.0209 197.79 69.5677 186.074 66.3513 182.565C62.2713 178.152 56.1105 158.921 48.5761 163.362C43.9453 166.082 53.4585 180.865 54.2609 184.326C55.0633 187.787 62.2577 196.566 63.9101 205.052C64.5901 208.371 65.4401 219.162 65.9501 221.06C66.8953 224.691 65.8277 234.245 66.3513 244.329C66.3513 244.329 57.7425 252.938 51.5613 260.2C45.3801 267.463 13.0869 294.098 13.0869 294.098" stroke="#263238" stroke-linecap="round" stroke-linejoin="round"/>
<path d="M124.206 220.924C125.447 223.988 125.447 227.414 124.206 230.478" stroke="#263238" stroke-linecap="round" stroke-linejoin="round"/>
<path d="M126.47 221.495C127.242 222.062 127.814 222.859 128.103 223.772C128.393 224.685 128.385 225.666 128.081 226.575" stroke="#263238" stroke-linecap="round" stroke-linejoin="round"/>
<path d="M101.446 176.003C101.446 176.003 103.602 191.201 102.657 194.023" stroke="#263238" stroke-linecap="round" stroke-linejoin="round"/>
<path d="M88.6689 188.379C88.8998 189.848 88.8998 191.344 88.6689 192.812" stroke="#263238" stroke-linecap="round" stroke-linejoin="round"/>
<path d="M76.0273 197.791C76.0273 197.791 76.4285 200.082 76.0273 200.619" stroke="#263238" stroke-linecap="round" stroke-linejoin="round"/>
<path d="M144.218 210.704C144.218 210.704 146.652 212.023 147.448 213.934" stroke="#263238" stroke-linecap="round" stroke-linejoin="round"/>
<path d="M88.7568 147.559C89.5459 147.748 90.37 147.736 91.1531 147.523C91.9363 147.31 92.6533 146.904 93.238 146.341" stroke="#263238" stroke-linecap="round" stroke-linejoin="round"/>
<path d="M89.5801 169.414C89.5801 169.414 94.4217 171.026 96.1761 169.414" stroke="#263238" stroke-linecap="round" stroke-linejoin="round"/>
<path d="M105.35 174.119C105.35 174.119 108.573 172.909 110.728 173.582" stroke="#263238" stroke-linecap="round" stroke-linejoin="round"/>
<path d="M74.5449 178.424C74.5449 178.424 77.1017 175.058 79.1213 176.003" stroke="#263238" stroke-linecap="round" stroke-linejoin="round"/>
<path d="M64.0527 188.379C64.0527 188.379 61.7679 189.453 61.0947 190.596" stroke="#263238" stroke-linecap="round" stroke-linejoin="round"/>
<path d="M66.3379 244.309C66.8984 243.68 67.395 242.997 67.8203 242.269C68.2215 241.46 67.6843 232.851 67.8203 227.309" stroke="#263238" stroke-linecap="round" stroke-linejoin="round"/>
<path d="M94.5578 278.2C91.389 281.75 81.6718 288.183 77.7754 292.079" stroke="#263238" stroke-linecap="round" stroke-linejoin="round"/>
<path d="M107.362 197.791C105.75 202.367 107.498 208.147 107.362 210.711C107.226 213.274 106.682 224.991 106.682 224.991" stroke="#263238" stroke-linecap="round" stroke-linejoin="round"/>
<path d="M92.7012 197.791C90.5524 201.422 91.2256 206.263 91.8988 208.671C92.572 211.078 91.9736 220.911 91.9736 220.911" stroke="#263238" stroke-linecap="round" stroke-linejoin="round"/>
<path d="M69.5681 209.357C69.39 211.725 69.8601 214.097 70.9281 216.218" stroke="#263238" stroke-linecap="round" stroke-linejoin="round"/>
<path d="M82.8822 202.23C81.6718 206.671 83.2902 208.684 83.4262 209.357" stroke="#263238" stroke-linecap="round" stroke-linejoin="round"/>
<path opacity="0.3" d="M192.138 172.909L189.846 159.609C189.745 159.018 189.764 158.412 189.903 157.829C190.042 157.246 190.297 156.697 190.653 156.215C191.009 155.733 191.46 155.327 191.976 155.024C192.493 154.72 193.066 154.524 193.661 154.447L198.795 153.767C198.795 153.767 197.081 150.293 202.596 140.167C208.111 130.042 234.624 103.148 254.725 148.327C274.826 193.507 293.192 285.572 293.192 285.572C293.192 285.572 238.935 222.386 237.208 219.149C235.481 215.913 218.964 217.851 215.149 209.167C211.334 200.483 203.324 175.704 203.324 175.704L197.122 176.554C195.981 176.708 194.825 176.415 193.896 175.736C192.966 175.056 192.336 174.043 192.138 172.909Z" fill="black" fill-opacity="0.7"/>
<path d="M239.956 142.391L229.545 144.281L215.074 146.913L196.123 150.36C195.759 150.427 195.386 150.421 195.025 150.344C194.664 150.266 194.321 150.118 194.017 149.907C193.713 149.697 193.454 149.429 193.254 149.118C193.054 148.807 192.918 148.46 192.852 148.096L188.69 125.214C188.559 124.48 188.724 123.725 189.148 123.112C189.573 122.499 190.222 122.079 190.955 121.943L201.978 119.903L218.012 116.993L234.788 113.94C235.151 113.873 235.524 113.879 235.886 113.956C236.247 114.034 236.589 114.183 236.893 114.393C237.197 114.603 237.456 114.872 237.656 115.182C237.856 115.493 237.993 115.84 238.058 116.204L242.22 139.086C242.292 139.452 242.29 139.829 242.214 140.194C242.139 140.559 241.992 140.906 241.781 141.213C241.57 141.521 241.3 141.783 240.987 141.986C240.673 142.188 240.323 142.326 239.956 142.391Z" fill="#407BFF"/>
<mask id="mask0_567_5439" style="mask-type:luminance" maskUnits="userSpaceOnUse" x="188" y="113" width="55" height="38">
<path d="M239.956 142.391L229.545 144.281L215.074 146.913L196.123 150.36C195.759 150.427 195.386 150.421 195.025 150.344C194.664 150.266 194.321 150.118 194.017 149.907C193.713 149.697 193.454 149.429 193.254 149.118C193.054 148.807 192.918 148.46 192.852 148.096L188.69 125.214C188.559 124.48 188.724 123.725 189.148 123.112C189.573 122.499 190.222 122.079 190.955 121.943L201.978 119.903L218.012 116.993L234.788 113.94C235.151 113.873 235.524 113.879 235.886 113.956C236.247 114.034 236.589 114.183 236.893 114.393C237.197 114.603 237.456 114.872 237.656 115.182C237.856 115.493 237.993 115.84 238.058 116.204L242.22 139.086C242.292 139.452 242.29 139.829 242.214 140.194C242.139 140.559 241.992 140.906 241.781 141.213C241.57 141.521 241.3 141.783 240.987 141.986C240.673 142.188 240.323 142.326 239.956 142.391Z" fill="white"/>
</mask>
<g mask="url(#mask0_567_5439)">
<path opacity="0.3" d="M232.591 127.199L229.544 144.281L215.074 146.913C210.885 145.07 203.976 141.86 202.596 140.113C200.95 138.073 201.182 126.05 201.977 119.903L218.012 116.993C223.662 120.889 232.591 127.199 232.591 127.199Z" fill="black" fill-opacity="0.7"/>
<path opacity="0.3" d="M198.999 149.837L196.123 150.36C195.759 150.427 195.386 150.421 195.025 150.343C194.664 150.266 194.321 150.117 194.017 149.907C193.714 149.697 193.454 149.428 193.254 149.118C193.054 148.807 192.918 148.46 192.852 148.096L188.69 125.214C188.559 124.48 188.724 123.724 189.148 123.112C189.573 122.499 190.222 122.079 190.955 121.943L193.824 121.419C193.092 121.555 192.443 121.975 192.02 122.588C191.597 123.201 191.434 123.957 191.567 124.69L195.728 147.572C195.794 147.936 195.931 148.283 196.131 148.594C196.331 148.905 196.59 149.173 196.894 149.383C197.198 149.594 197.54 149.742 197.901 149.82C198.263 149.898 198.636 149.903 198.999 149.837Z" fill="black" fill-opacity="0.7"/>
</g>
<path d="M239.956 142.391L229.545 144.281L215.074 146.913L196.123 150.36C195.759 150.427 195.386 150.421 195.025 150.344C194.664 150.266 194.321 150.118 194.017 149.907C193.713 149.697 193.454 149.429 193.254 149.118C193.054 148.807 192.918 148.46 192.852 148.096L188.69 125.214C188.559 124.48 188.724 123.725 189.148 123.112C189.573 122.499 190.222 122.079 190.955 121.943L201.978 119.903L218.012 116.993L234.788 113.94C235.151 113.873 235.524 113.879 235.886 113.956C236.247 114.034 236.589 114.183 236.893 114.393C237.197 114.603 237.456 114.872 237.656 115.182C237.856 115.493 237.993 115.84 238.058 116.204L242.22 139.086C242.292 139.452 242.29 139.829 242.214 140.194C242.139 140.559 241.992 140.906 241.781 141.213C241.57 141.521 241.3 141.783 240.987 141.986C240.673 142.188 240.323 142.326 239.956 142.391Z" stroke="#263238" stroke-linecap="round" stroke-linejoin="round"/>
<path d="M236.863 112.731L193.207 120.749C191.683 121.029 190.675 122.491 190.955 124.015L195.14 146.799C195.42 148.323 196.882 149.331 198.405 149.051L242.061 141.033C243.585 140.753 244.593 139.291 244.314 137.767L240.129 114.983C239.849 113.459 238.387 112.451 236.863 112.731Z" stroke="#263238" stroke-width="0.996394" stroke-linecap="round" stroke-linejoin="round"/>
<path d="M235.643 115.482L194.503 122.958C193.764 123.093 193.274 123.801 193.408 124.54L197.506 147.086C197.64 147.825 198.348 148.316 199.087 148.181L240.226 140.705C240.965 140.571 241.456 139.863 241.321 139.124L237.224 116.577C237.089 115.838 236.382 115.348 235.643 115.482Z" stroke="#263238" stroke-linecap="round" stroke-linejoin="round"/>
<path d="M242.832 141.867L239.976 142.384C240.706 142.247 241.351 141.827 241.772 141.215C242.192 140.604 242.354 139.85 242.22 139.12L238.059 116.238C237.993 115.874 237.857 115.527 237.657 115.216C237.457 114.906 237.197 114.637 236.894 114.427C236.59 114.217 236.247 114.068 235.886 113.991C235.525 113.913 235.152 113.907 234.788 113.974L237.664 113.45C238.398 113.319 239.154 113.484 239.767 113.908C240.38 114.332 240.8 114.982 240.935 115.715L245.097 138.597C245.228 139.33 245.063 140.086 244.639 140.699C244.215 141.312 243.565 141.732 242.832 141.867Z" stroke="#263238" stroke-linecap="round" stroke-linejoin="round"/>
<path d="M325.54 215.164L297.381 290.699C297.381 290.699 285.604 268.259 274.724 247.492C266.033 230.886 257.914 215.314 256.819 213.022C254.365 207.861 245.98 197.049 245.98 197.049C245.98 197.049 237.378 192.126 233.441 183.551C229.504 174.976 225.172 144.302 225.172 144.302C225.172 144.302 213.864 140.045 211.164 138.182C208.465 136.318 206.003 119.101 206.003 117.136C206.003 115.17 208.723 111.233 208.723 111.233C208.723 111.233 208.118 108.35 211.572 105.44C212.701 104.513 213.953 103.746 215.292 103.162H215.36C215.36 103.162 214.911 96.654 218.297 94.7568C218.459 94.6653 218.627 94.5858 218.801 94.5188C221.82 93.356 231.721 91.8532 231.721 91.8532C233.12 90.6234 234.75 89.6827 236.515 89.0856C238.269 88.6028 247.898 90.84 253.277 92.166C255.439 92.6964 256.915 93.0772 256.915 93.0772C256.915 93.0772 266.013 93.492 267.733 94.5188C268.933 95.3056 270.03 96.24 270.997 97.3L271.167 97.4972C271.167 97.4972 279.28 99.1836 281 102.155C282.721 105.127 283.455 119.869 282.231 129.45C281.007 139.032 283.203 155.29 283.203 155.29C283.203 155.29 285.74 167.85 287.705 172.617C289.67 177.384 325.54 215.164 325.54 215.164Z" fill="white"/>
<path opacity="0.4" d="M274.724 247.492C266.033 230.886 257.914 215.314 256.819 213.022C254.365 207.861 245.98 197.049 245.98 197.049C245.98 197.049 237.378 192.126 233.441 183.551C229.504 174.976 225.172 144.302 225.172 144.302C225.172 144.302 213.864 140.045 211.164 138.182C208.465 136.318 206.003 119.101 206.003 117.136C206.003 115.17 208.723 111.233 208.723 111.233C208.723 111.233 208.118 108.35 211.572 105.44C211.572 106.215 211.572 107.52 211.572 109.574C211.491 113.47 216.081 136.964 217.216 136.25C218.352 135.536 220.106 133.816 219.644 132.3C219.644 132.3 217.42 123.181 215.319 103.162H215.387C215.387 103.162 214.938 96.654 218.325 94.7568C217.742 96.166 217.368 97.6528 217.216 99.17C217.141 102.339 220.909 129.491 222.384 130.178C223.86 130.865 227.6 127.247 227.6 127.247C227.6 127.247 226.321 119.543 226.777 116.258C226.777 116.258 238.153 123.194 238.493 131.069C238.527 131.932 240.71 144.274 240.71 144.274C240.71 144.274 230.925 162.906 240.914 179.906C240.914 179.906 235.835 176.86 234.624 172.018C234.624 172.018 233.149 186.258 243.641 193.778C243.641 193.778 251.169 186.387 258.601 185.448C258.601 185.448 258.737 185.938 253.759 189.862C248.782 193.785 248.109 195.533 248.109 195.533C248.109 195.533 253.494 190.093 257.799 189.862C257.799 189.862 253.358 194.996 253.494 196.07C253.63 197.144 266.19 218.619 270.759 233.599C272.623 239.855 273.894 244.37 274.724 247.492Z" fill="#407BFF"/>
<path opacity="0.4" d="M239.459 104.977C239.459 104.977 243.083 107.697 244.158 104.977C244.775 103.522 245.167 101.981 245.321 100.407C245.321 100.407 246.715 99.7683 248.041 103.127C249.367 106.487 262.661 107.343 265.775 109.064C268.889 110.784 270.127 109.064 270.127 109.064C270.852 109.66 271.35 110.488 271.536 111.409C271.722 112.329 271.584 113.285 271.147 114.116C269.637 117.237 273.915 117.516 275.574 115.218C277.233 112.919 275.948 121.793 271.847 122.698C271.847 122.698 271.963 126.574 269.325 129.233H271.562C271.562 129.233 265.605 133.959 264.021 134.217C262.436 134.475 269.916 137.121 268.529 137.678C267.142 138.236 263.211 138.188 263.211 138.188C263.211 138.188 265.755 139.949 265.775 141.112C265.795 142.275 264.571 143.152 264.021 142.18C263.47 141.207 259.077 127.281 256.887 122.133C254.698 116.986 245.654 112.913 239.459 104.977Z" fill="#407BFF"/>
<path opacity="0.4" d="M270.991 97.2522C263.361 95.1646 253.127 92.193 253.127 92.193L253.27 92.1182C255.432 92.6486 256.908 93.0294 256.908 93.0294C256.908 93.0294 266.006 93.4442 267.727 94.471C268.927 95.2578 270.023 96.1921 270.991 97.2522Z" fill="#407BFF"/>
<path d="M260.26 109.255C253.623 107.895 248.884 113.566 248.884 113.566C248.884 113.566 255.48 119.536 256.942 122.1C258.404 124.663 260.831 133.306 260.831 133.306C263.613 133.755 268.74 130.885 269.971 123.269C271.201 115.653 266.863 110.608 260.26 109.255Z" fill="#407BFF"/>
<path d="M297.381 290.699C297.381 290.699 259.301 218.183 256.819 213.022C254.337 207.861 245.98 197.049 245.98 197.049C245.98 197.049 237.378 192.126 233.441 183.551C229.504 174.976 225.172 144.302 225.172 144.302C225.172 144.302 213.864 140.045 211.164 138.182C208.465 136.318 206.003 119.101 206.003 117.136C206.003 115.17 208.723 111.233 208.723 111.233C208.723 111.233 207.744 106.575 215.36 103.128C215.36 103.128 214.87 95.9943 218.801 94.4847C221.82 93.3219 231.721 91.8191 231.721 91.8191C233.12 90.5893 234.75 89.6486 236.515 89.0515C238.969 88.3715 256.915 93.0431 256.915 93.0431C256.915 93.0431 266.013 93.4579 267.733 94.4847C268.992 95.3147 270.137 96.3044 271.14 97.4291C271.14 97.4291 279.253 99.1155 280.973 102.087C282.693 105.059 283.428 119.801 282.204 129.382C280.98 138.964 283.176 155.222 283.176 155.222C283.176 155.222 285.713 167.782 287.678 172.549C289.643 177.315 325.54 215.164 325.54 215.164" stroke="#263238" stroke-linecap="round" stroke-linejoin="round"/>
<path d="M265.143 143.302C265.143 143.302 263.423 142.935 261.213 134.823C259.003 126.71 258.418 122.916 253.835 118.108C250.584 114.708 243.145 109.153 239.459 104.977C235.774 100.802 231.701 97.4293 228.518 100.013C225.975 102.053 224.316 107.351 226.553 115.524C229.429 126.023 238.501 131.021 238.501 131.021L240.717 144.227C240.717 144.227 231.095 163.498 241.941 181.688" stroke="#263238" stroke-linecap="round" stroke-linejoin="round"/>
<path d="M248.85 113.565C248.85 113.565 253.61 107.901 260.226 109.254C266.842 110.607 271.14 115.646 269.936 123.269C268.733 130.892 263.578 133.755 260.797 133.306" stroke="#263238" stroke-linecap="round" stroke-linejoin="round"/>
<path d="M231.701 91.8057C230.707 94.3039 229.942 96.8871 229.416 99.5237" stroke="#263238" stroke-linecap="round" stroke-linejoin="round"/>
<path d="M227.675 118.435C227.675 118.435 228.246 126.833 229.429 129.41C230.612 131.987 232.578 134.081 233.434 137.4C234.291 140.718 234.42 145.879 234.665 146.621C234.91 147.362 236.331 147.552 236.331 147.552C238.371 147.6 239.194 146.539 240.37 144.921" stroke="#263238" stroke-linecap="round" stroke-linejoin="round"/>
<path d="M215.381 103.114C215.381 103.114 217.224 121.052 218.699 128.675C220.175 136.298 222.779 137.399 227.056 139.861C231.334 142.323 233.693 147.341 234.067 148.096C234.441 148.851 235.842 148.932 235.842 148.932C236.665 148.864 237.458 148.591 238.149 148.138C238.84 147.686 239.408 147.068 239.8 146.341" stroke="#263238" stroke-linecap="round" stroke-linejoin="round"/>
<path d="M208.73 111.22C208.267 111.934 212.211 130.151 214.265 135.435C216.319 140.718 216.55 141.555 221.983 143.051C227.416 144.547 231.544 147.035 233.013 146.158" stroke="#263238" stroke-linecap="round" stroke-linejoin="round"/>
<path d="M246.463 101.142C246.463 101.142 249.285 107.901 247.422 112.348" stroke="#263238" stroke-linecap="round" stroke-linejoin="round"/>
<path d="M256.908 93.0298C261.533 94.8581 266.291 96.3289 271.141 97.4294" stroke="#263238" stroke-linecap="round" stroke-linejoin="round"/>
<path d="M275.594 116.388C275.594 116.388 273.432 120.338 270.154 121.188" stroke="#263238" stroke-linecap="round" stroke-linejoin="round"/>
<path d="M270.148 112.083C270.148 112.083 269.373 114.123 268.55 114.687" stroke="#263238" stroke-linecap="round" stroke-linejoin="round"/>
<path d="M272.868 128.308C272.868 128.308 267.952 132.028 263.232 132.993" stroke="#263238" stroke-linecap="round" stroke-linejoin="round"/>
<path d="M261.213 134.829C261.213 134.829 263.253 137.406 268.55 137.651" stroke="#263238" stroke-linecap="round" stroke-linejoin="round"/>
<path d="M245.301 123.548C245.301 123.548 250.115 118.924 252.862 119.563" stroke="#263238" stroke-linecap="round" stroke-linejoin="round"/>
<path d="M254.725 124.486C254.725 124.486 251.08 127.206 250.414 127.206" stroke="#263238" stroke-linecap="round" stroke-linejoin="round"/>
<path d="M217.196 138.909C217.196 138.909 218.407 139.133 219.352 137.671" stroke="#263238" stroke-linecap="round" stroke-linejoin="round"/>
<path d="M221.5 132.286C221.5 132.286 224.424 130.477 226.335 130.13" stroke="#263238" stroke-linecap="round" stroke-linejoin="round"/>
<path d="M247.259 193.622C247.864 193.085 253.515 188.515 257.01 186.897" stroke="#263238" stroke-linecap="round" stroke-linejoin="round"/>
<path d="M254.589 191.459C254.188 191.337 250.978 194.696 249.285 196.043" stroke="#263238" stroke-linecap="round" stroke-linejoin="round"/>
<path d="M256.181 201.421C256.181 201.421 266.945 221.821 269.366 229.981" stroke="#263238" stroke-linecap="round" stroke-linejoin="round"/>
<path d="M287.705 172.576C288.616 177.587 291.574 181.28 293.193 183.279" stroke="#263238" stroke-linecap="round" stroke-linejoin="round"/>
<path opacity="0.4" d="M253.774 111.22C252.21 112.185 253.855 115.34 254.726 116.952C255.596 118.564 259.486 121.127 260.295 123.548C261.104 125.969 266.218 125.901 267.775 123.548C269.332 121.195 269.135 116.496 264.892 112.92C260.648 109.343 255.997 109.86 253.774 111.22Z" fill="white"/>
<path d="M223.914 246.737C216.989 245.56 209.869 246.764 203.716 250.152C197.562 253.541 192.739 258.915 190.032 265.397C187.324 271.879 186.893 279.087 188.808 285.845C190.723 292.604 194.871 298.514 200.576 302.612" stroke="#263238" stroke-linecap="round" stroke-linejoin="round"/>
<path d="M236.868 252.156C233.985 250.074 230.764 248.505 227.348 247.519" stroke="#263238" stroke-linecap="round" stroke-linejoin="round"/>
<path d="M233.74 304.544C237.931 302.223 241.529 298.965 244.251 295.023C246.974 291.081 248.747 286.563 249.434 281.822C250.12 277.081 249.7 272.245 248.207 267.693C246.713 263.142 244.187 258.997 240.826 255.583" stroke="#263238" stroke-linecap="round" stroke-linejoin="round"/>
<path d="M235.243 314.349L237.092 315.981L234.209 306.101" stroke="#263238" stroke-linecap="round" stroke-linejoin="round"/>
<path d="M213.482 307.998C218.054 308.782 222.744 308.529 227.205 307.257L233.06 312.425" stroke="#263238" stroke-linecap="round" stroke-linejoin="round"/>
<path d="M206.356 305.89C207.517 306.39 208.707 306.819 209.92 307.175" stroke="#263238" stroke-linecap="round" stroke-linejoin="round"/>
<path d="M221.153 262.254C225.005 262.913 228.47 264.989 230.868 268.075C233.265 271.16 234.421 275.031 234.108 278.926C233.794 282.821 232.034 286.457 229.173 289.119C226.313 291.782 222.56 293.277 218.652 293.31C214.745 293.344 210.967 291.914 208.061 289.301C205.155 286.689 203.333 283.083 202.952 279.194C202.572 275.305 203.661 271.415 206.005 268.288C208.349 265.162 211.778 263.027 215.618 262.302" stroke="#263238" stroke-linecap="round" stroke-linejoin="round"/>
<path d="M215.618 294.751C211.089 293.98 207.051 291.441 204.394 287.693C201.736 283.945 200.676 279.295 201.446 274.766" stroke="#263238" stroke-linecap="round" stroke-linejoin="round"/>
<path d="M234.822 283.559C233.755 286.508 231.909 289.113 229.479 291.096C227.049 293.079 224.128 294.366 221.024 294.819" stroke="#263238" stroke-linecap="round" stroke-linejoin="round"/>
<path d="M202.779 270.442C204.535 266.624 207.618 263.575 211.455 261.861C215.291 260.147 219.62 259.886 223.634 261.126C227.649 262.366 231.076 265.023 233.278 268.602C235.48 272.181 236.306 276.438 235.603 280.58" stroke="#263238" stroke-linecap="round" stroke-linejoin="round"/>
<path d="M228.926 271.427L229.123 271.217" stroke="#263238" stroke-width="2" stroke-linecap="round" stroke-linejoin="round"/>
<path d="M226.151 274.419L227.532 272.93" stroke="#263238" stroke-width="2" stroke-linecap="round" stroke-linejoin="round"/>
<path d="M209.213 276.616L215.884 285.483L224.941 275.725" stroke="#263238" stroke-width="2" stroke-linecap="round" stroke-linejoin="round"/>
</svg>
