<svg width="21" height="20" viewBox="0 0 21 20" fill="none" xmlns="http://www.w3.org/2000/svg">
<path d="M10.4173 9.08337C9.86731 9.08337 9.50064 8.71671 9.50064 8.16671V1.75004C9.50064 1.20004 9.86731 0.833374 10.4173 0.833374C10.9673 0.833374 11.334 1.20004 11.334 1.75004V8.16671C11.334 8.71671 10.9673 9.08337 10.4173 9.08337Z" fill="#FF7474"/>
<path d="M10.4167 19.1669C5.83332 19.1669 2.16666 15.5002 2.16666 10.9169C2.16666 7.98357 3.72499 5.23357 6.29166 3.7669C6.74999 3.4919 7.29999 3.67524 7.57499 4.13357C7.84999 4.50024 7.66666 5.05024 7.20832 5.32524C5.28332 6.5169 3.99999 8.62524 3.99999 10.9169C3.99999 14.4919 6.84166 17.3336 10.4167 17.3336C13.9917 17.3336 16.8333 14.4919 16.8333 10.9169C16.8333 8.62524 15.55 6.5169 13.625 5.32524C13.1667 5.05024 12.9833 4.50024 13.2583 4.13357C13.5333 3.67524 14.0833 3.58357 14.5417 3.7669C17.1083 5.23357 18.6667 7.98357 18.6667 10.9169C18.6667 15.5002 15 19.1669 10.4167 19.1669Z" fill="#FF7474"/>
</svg>
