<svg width="32" height="34" viewBox="0 0 32 34" fill="none" xmlns="http://www.w3.org/2000/svg">
<path d="M30.7804 21.5885C32.0063 13.9778 26.8303 6.81433 19.2196 5.58848C11.6089 4.36263 4.44545 9.53859 3.2196 17.1493C1.99375 24.76 7.16969 31.9234 14.7804 33.1493C22.3911 34.3751 29.5546 29.1992 30.7804 21.5885Z" fill="#051019"/>
<path d="M29.7804 19.5885C31.0063 11.9778 25.8303 4.81433 18.2196 3.58848C10.6089 2.36263 3.44545 7.53859 2.2196 15.1493C0.993747 22.76 6.16969 29.9234 13.7804 31.1493C21.3911 32.3751 28.5546 27.1992 29.7804 19.5885Z" fill="white"/>
<path d="M22.0871 14.1518C22.0871 15.3561 21.73 16.5333 21.061 17.5346C20.3919 18.5359 19.441 19.3164 18.3284 19.7772C17.2158 20.2381 15.9915 20.3586 14.8104 20.1237C13.6293 19.8888 12.5444 19.3089 11.6928 18.4573C10.8413 17.6058 10.2614 16.5208 10.0264 15.3397C9.79148 14.1586 9.91207 12.9343 10.3729 11.8217C10.8338 10.7091 11.6142 9.7582 12.6155 9.08915C13.6168 8.42009 14.794 8.06299 15.9983 8.06299C17.6131 8.06299 19.1619 8.70449 20.3038 9.84638C21.4457 10.9883 22.0871 12.537 22.0871 14.1518Z" fill="#38A1FF"/>
<path d="M5.97803 27.0768C7.27833 28.4202 8.83547 29.4884 10.5569 30.2179C12.2783 30.9474 14.1288 31.3233 15.9984 31.3233C17.868 31.3233 19.7185 30.9474 21.4399 30.2179C23.1613 29.4884 24.7184 28.4202 26.0187 27.0768V26.675C26.0195 25.9699 25.8813 25.2715 25.6121 24.6198C25.3428 23.9681 24.9477 23.3759 24.4493 22.877C23.951 22.3781 23.3592 21.9823 22.7079 21.7122C22.0565 21.4422 21.3582 21.3032 20.6531 21.3032H11.3498C9.92513 21.3032 8.55881 21.8692 7.5514 22.8766C6.54399 23.884 5.97803 25.2503 5.97803 26.675V27.0768Z" fill="#38A1FF"/>
<path d="M15.4599 11.6062C15.4978 12.1985 15.4617 12.7896 15.3538 13.3459C15.246 13.9022 15.0684 14.4128 14.8312 14.8484C14.5941 15.2841 14.302 15.6363 13.9717 15.885C13.6414 16.1337 13.2793 16.2739 12.906 16.2978C12.5328 16.3216 12.1558 16.2286 11.7965 16.0239C11.4373 15.8193 11.1027 15.5071 10.8121 15.1052C10.5214 14.7032 10.2803 14.2194 10.1026 13.6813C9.9248 13.1433 9.81383 12.5615 9.776 11.9692L12.618 11.7877L15.4599 11.6062Z" fill="#051019"/>
<path d="M20.0565 11.3127C20.0943 11.905 20.0583 12.4962 19.9504 13.0525C19.8425 13.6088 19.665 14.1193 19.4278 14.555C19.1906 14.9906 18.8986 15.3429 18.5682 15.5915C18.2379 15.8402 17.8758 15.9805 17.5026 16.0043C17.1294 16.0282 16.7524 15.9351 16.3931 15.7305C16.0338 15.5258 15.6993 15.2137 15.4087 14.8117C15.118 14.4098 14.8769 13.926 14.6991 13.3879C14.5214 12.8498 14.4104 12.2681 14.3726 11.6758L17.2145 11.4943L20.0565 11.3127Z" fill="#051019"/>
<path d="M11.0409 10.6201L9.11914 3.82997L14.7562 5.23925L16.8061 0.883301L20.009 5.23925L25.0055 2.16446L20.9058 10.6201H11.0409Z" fill="#FFC700"/>
</svg>
