<svg width="53" height="52" viewBox="0 0 53 52" fill="none" xmlns="http://www.w3.org/2000/svg">
<circle cx="17.8141" cy="50.2775" r="0.876089" fill="#FFC700"/>
<circle cx="34.7517" cy="48.8803" r="0.29203" fill="#FFC700"/>
<circle cx="2.62824" cy="38.5963" r="1.46015" fill="#FFC700"/>
<circle cx="26.8669" cy="26.3937" r="19.858" fill="#FFC700"/>
<circle cx="46.7251" cy="45.8961" r="0.58406" fill="#FFC700"/>
<circle cx="47.8925" cy="31.6502" r="0.58406" fill="#FFC700"/>
<circle cx="0.291908" cy="22.0135" r="0.29203" fill="#FFC700"/>
<path d="M30.1666 34.3334H21.8333C21.4916 34.3334 21.2083 34.05 21.2083 33.7084C21.2083 33.3667 21.4916 33.0834 21.8333 33.0834H30.1666C30.5083 33.0834 30.7916 33.3667 30.7916 33.7084C30.7916 34.05 30.5083 34.3334 30.1666 34.3334Z" fill="white"/>
<path d="M32.9585 20.6001L29.6252 22.9834C29.1835 23.3001 28.5502 23.1084 28.3585 22.6001L26.7835 18.4001C26.5168 17.6751 25.4918 17.6751 25.2252 18.4001L23.6418 22.5917C23.4502 23.1084 22.8252 23.3001 22.3835 22.9751L19.0502 20.5917C18.3835 20.1251 17.5002 20.7834 17.7752 21.5584L21.2418 31.2667C21.3585 31.6001 21.6752 31.8167 22.0252 31.8167H29.9669C30.3169 31.8167 30.6335 31.5917 30.7502 31.2667L34.2169 21.5584C34.5002 20.7834 33.6169 20.1251 32.9585 20.6001ZM28.0835 28.2917H23.9168C23.5752 28.2917 23.2918 28.0084 23.2918 27.6667C23.2918 27.3251 23.5752 27.0417 23.9168 27.0417H28.0835C28.4252 27.0417 28.7085 27.3251 28.7085 27.6667C28.7085 28.0084 28.4252 28.2917 28.0835 28.2917Z" fill="white"/>
<circle cx="50.5212" cy="8.3517" r="2.04421" fill="#FFC700"/>
<circle cx="29.7872" cy="2.09236" r="0.58406" fill="#FFC700"/>
<circle cx="5.84046" cy="3.38734" r="2.9203" fill="#FFC700"/>
</svg>
