<svg width="96" height="117" viewBox="0 0 96 117" fill="none" xmlns="http://www.w3.org/2000/svg">
<g filter="url(#filter0_dd_253_1457)">
<path d="M54.8023 33.5429C53.5948 33.4229 52.3873 33.3329 51.1723 33.2654V33.2579L51.0073 32.2829C50.8948 31.5929 50.7298 30.5579 48.9748 30.5579H47.0098C45.2623 30.5579 45.0973 31.5479 44.9773 32.2754L44.8198 33.2354C44.1223 33.2804 43.4248 33.3254 42.7273 33.3929L41.1973 33.5429C40.8823 33.5729 40.6573 33.8504 40.6873 34.1579C40.7173 34.4654 40.9873 34.6904 41.3023 34.6604L42.8323 34.5104C46.7623 34.1204 50.7223 34.2704 54.6973 34.6679C54.7198 34.6679 54.7348 34.6679 54.7573 34.6679C55.0423 34.6679 55.2898 34.4504 55.3198 34.1579C55.3423 33.8504 55.1173 33.5729 54.8023 33.5429Z" fill="white"/>
<path d="M53.4223 35.7254C53.2423 35.5379 52.9948 35.4329 52.7398 35.4329H43.2598C43.0048 35.4329 42.7498 35.5379 42.5773 35.7254C42.4048 35.9129 42.3073 36.1679 42.3223 36.4304L42.7873 44.1254C42.8698 45.2654 42.9748 46.6904 45.5923 46.6904H50.4073C53.0248 46.6904 53.1298 45.2729 53.2123 44.1254L53.6773 36.4379C53.6923 36.1679 53.5948 35.9129 53.4223 35.7254ZM49.2448 42.9329H46.7473C46.4398 42.9329 46.1848 42.6779 46.1848 42.3704C46.1848 42.0629 46.4398 41.8079 46.7473 41.8079H49.2448C49.5523 41.8079 49.8073 42.0629 49.8073 42.3704C49.8073 42.6779 49.5523 42.9329 49.2448 42.9329ZM49.8748 39.9329H46.1248C45.8173 39.9329 45.5623 39.6779 45.5623 39.3704C45.5623 39.0629 45.8173 38.8079 46.1248 38.8079H49.8748C50.1823 38.8079 50.4373 39.0629 50.4373 39.3704C50.4373 39.6779 50.1823 39.9329 49.8748 39.9329Z" fill="white"/>
</g>
<defs>
<filter id="filter0_dd_253_1457" x="-1" y="-0.379578" width="98" height="118" filterUnits="userSpaceOnUse" color-interpolation-filters="sRGB">
<feFlood flood-opacity="0" result="BackgroundImageFix"/>
<feColorMatrix in="SourceAlpha" type="matrix" values="0 0 0 0 0 0 0 0 0 0 0 0 0 0 0 0 0 0 127 0" result="hardAlpha"/>
<feOffset/>
<feGaussianBlur stdDeviation="15"/>
<feComposite in2="hardAlpha" operator="out"/>
<feColorMatrix type="matrix" values="0 0 0 0 0.34902 0 0 0 0 0.407843 0 0 0 0 0.698039 0 0 0 0.06 0"/>
<feBlend mode="normal" in2="BackgroundImageFix" result="effect1_dropShadow_253_1457"/>
<feColorMatrix in="SourceAlpha" type="matrix" values="0 0 0 0 0 0 0 0 0 0 0 0 0 0 0 0 0 0 127 0" result="hardAlpha"/>
<feOffset dy="30"/>
<feGaussianBlur stdDeviation="20"/>
<feComposite in2="hardAlpha" operator="out"/>
<feColorMatrix type="matrix" values="0 0 0 0 0.35 0 0 0 0 0.40625 0 0 0 0 0.7 0 0 0 0.06 0"/>
<feBlend mode="normal" in2="effect1_dropShadow_253_1457" result="effect2_dropShadow_253_1457"/>
<feBlend mode="normal" in="SourceGraphic" in2="effect2_dropShadow_253_1457" result="shape"/>
</filter>
</defs>
</svg>
