<svg width="37" height="30" viewBox="0 0 37 30" fill="none" xmlns="http://www.w3.org/2000/svg">
<path fill-rule="evenodd" clip-rule="evenodd" d="M5.2501 9.28309C8.79641 8.34215 12.725 10.5466 15.5583 12.45C16.3093 12.9555 17.871 14.1169 18.4864 14.383C19.8719 13.7727 23.1606 10.759 27.5773 9.34762C29.4317 8.75348 30.0092 9.14061 31.777 9.22664C31.3079 4.13747 25.88 1.50014 21.5908 3.76378C20.2921 4.44933 19.4869 5.39565 18.4864 6.33928C16.9464 4.84184 14.6012 2.19913 10.6021 3.10243C8.06709 3.67775 5.0332 6.2882 5.2501 9.28309Z" fill="url(#paint0_linear_144_560)"/>
<path fill-rule="evenodd" clip-rule="evenodd" d="M1.43265 13.4743C0.380685 16.2515 -0.10734 18.2839 1.75529 20.9185C7.6848 29.2983 17.7625 17.4263 26.2569 13.0738C35.3206 8.43087 37.4706 21.0019 30.3915 22.0369C28.9139 22.252 28.6373 21.2412 27.1299 23.2655C32.3816 25.841 38.4114 19.9615 35.9171 14.3319C35.0223 12.3102 33.1082 10.466 30.2316 10.2133C27.786 9.99821 24.5298 11.8962 22.9139 12.8963C18.6789 15.5148 15.645 18.3484 11.0766 20.7976C8.49817 22.1794 6.096 22.7736 3.89718 20.7088C1.46519 18.4264 2.63916 16.0552 2.40057 15.2245L1.43265 13.4743Z" fill="url(#paint1_linear_144_560)"/>
<path fill-rule="evenodd" clip-rule="evenodd" d="M10.4882 19.8486C9.90532 18.7382 6.77653 16.3456 5.38295 14.3696C0.963608 8.10826 7.47875 -0.77157 15.3278 2.43033C17.0603 3.13738 17.3965 3.93584 18.4891 4.6644C19.7878 3.75303 20.0915 2.91693 22.2876 2.18299C24.0364 1.59961 26.0047 1.63725 27.7426 2.28784C31.1182 3.54871 32.425 5.99516 32.9564 9.06533C33.0865 9.8154 33.1895 10.095 34.7648 10.7429C34.7973 6.66458 33.3902 3.22072 29.6731 1.2313C26.9998 -0.198939 23.7191 -0.459715 20.7856 0.881803C19.8583 1.30926 19.1426 1.93297 18.4891 2.23139C17.9686 2.00825 17.3721 1.47594 16.6563 1.11032C14.3924 -0.0403223 11.7137 -0.330671 9.27359 0.403266C2.86691 2.33086 0.0444934 9.75625 4.0463 15.5283C4.96813 16.859 6.51896 18.128 7.65498 19.2464C9.3468 20.9159 8.16469 20.6363 10.4882 19.8486Z" fill="url(#paint2_linear_144_560)"/>
<path fill-rule="evenodd" clip-rule="evenodd" d="M18.4891 27.4863L13.6252 22.8004L12.0689 23.6527L18.4674 30C19.5113 29.0752 20.8425 27.61 22.1358 26.3706C23.5294 25.0372 24.4891 24.1688 25.8583 22.7628C27.0296 21.5611 32.6256 16.1816 33.0458 15.2809C32.7829 14.6169 32.5416 14.2916 31.9858 13.9905L30.4078 15.8025C28.8976 17.3349 19.1344 27.1422 18.4891 27.4863Z" fill="url(#paint3_linear_144_560)"/>
<path fill-rule="evenodd" clip-rule="evenodd" d="M14.7612 22.0289L18.4783 25.833C19.007 25.4001 21.8972 22.5719 22.2361 21.9993C20.9645 21.5826 19.6252 20.1873 18.4891 19.6711C17.3802 20.1873 16.0788 21.4885 14.7612 22.0289Z" fill="url(#paint4_linear_144_560)"/>
<path fill-rule="evenodd" clip-rule="evenodd" d="M5.34228 10.5225C5.12809 11.1139 5.39108 11.5037 5.52664 12.1839C7.82036 12.0817 7.9505 11.4983 11.3016 13.3749L16.0355 16.2273C16.6509 15.8321 17.0468 15.6036 17.429 15.1008C15.0675 13.8453 9.17599 8.75348 5.34228 10.5225Z" fill="url(#paint5_linear_144_560)"/>
<path fill-rule="evenodd" clip-rule="evenodd" d="M11.6541 19.0582C12.2343 18.8458 14.3138 17.5957 14.8371 17.0203C13.8556 16.0713 12.3726 15.3159 11.0956 14.6169C9.71282 13.8615 8.22976 12.8533 6.28308 13.2888C6.31291 14.1115 10.8434 18.2947 11.6541 19.0582Z" fill="url(#paint6_linear_144_560)"/>
<path fill-rule="evenodd" clip-rule="evenodd" d="M22.1412 17.0203L25.3242 19.0609C26.2298 18.0984 27.157 17.2408 28.1087 16.3052C28.6211 15.8025 28.9979 15.4234 29.5077 14.9126C29.9306 14.4932 30.7087 14.0013 30.6979 13.2673C28.2171 12.8049 23.8655 15.4449 22.1412 17.0203Z" fill="url(#paint7_linear_144_560)"/>
<path fill-rule="evenodd" clip-rule="evenodd" d="M19.5465 18.9372C20.65 19.5528 21.7806 20.4803 23.0467 21.2035L24.3726 20.0045L20.9781 17.7677C20.4087 18.1092 19.861 18.5366 19.5465 18.9372Z" fill="url(#paint8_linear_144_560)"/>
<path fill-rule="evenodd" clip-rule="evenodd" d="M7.42181 20.8809L3.59081 16.9397C3.13532 17.7785 4.25236 20.9723 7.42181 20.8809Z" fill="url(#paint9_linear_144_560)"/>
<path fill-rule="evenodd" clip-rule="evenodd" d="M29.5538 20.897C32.4548 20.8675 33.8294 18.2409 33.4227 16.9101L29.5538 20.897Z" fill="url(#paint10_linear_144_560)"/>
<defs>
<linearGradient id="paint0_linear_144_560" x1="8.55223" y1="2.10616" x2="24.4602" y2="31.6073" gradientUnits="userSpaceOnUse">
<stop stop-color="#38A1FF"/>
<stop offset="1" stop-color="#63B5FF"/>
</linearGradient>
<linearGradient id="paint1_linear_144_560" x1="8.55223" y1="2.10616" x2="24.4602" y2="31.6073" gradientUnits="userSpaceOnUse">
<stop stop-color="#38A1FF"/>
<stop offset="1" stop-color="#63B5FF"/>
</linearGradient>
<linearGradient id="paint2_linear_144_560" x1="8.55223" y1="2.10616" x2="24.4602" y2="31.6073" gradientUnits="userSpaceOnUse">
<stop stop-color="#38A1FF"/>
<stop offset="1" stop-color="#63B5FF"/>
</linearGradient>
<linearGradient id="paint3_linear_144_560" x1="8.55223" y1="2.10616" x2="24.4602" y2="31.6073" gradientUnits="userSpaceOnUse">
<stop stop-color="#38A1FF"/>
<stop offset="1" stop-color="#63B5FF"/>
</linearGradient>
<linearGradient id="paint4_linear_144_560" x1="8.55223" y1="2.10616" x2="24.4602" y2="31.6073" gradientUnits="userSpaceOnUse">
<stop stop-color="#38A1FF"/>
<stop offset="1" stop-color="#63B5FF"/>
</linearGradient>
<linearGradient id="paint5_linear_144_560" x1="8.55223" y1="2.10616" x2="24.4602" y2="31.6073" gradientUnits="userSpaceOnUse">
<stop stop-color="#38A1FF"/>
<stop offset="1" stop-color="#63B5FF"/>
</linearGradient>
<linearGradient id="paint6_linear_144_560" x1="8.55223" y1="2.10616" x2="24.4602" y2="31.6073" gradientUnits="userSpaceOnUse">
<stop stop-color="#38A1FF"/>
<stop offset="1" stop-color="#63B5FF"/>
</linearGradient>
<linearGradient id="paint7_linear_144_560" x1="8.55223" y1="2.10616" x2="24.4602" y2="31.6073" gradientUnits="userSpaceOnUse">
<stop stop-color="#38A1FF"/>
<stop offset="1" stop-color="#63B5FF"/>
</linearGradient>
<linearGradient id="paint8_linear_144_560" x1="8.55223" y1="2.10616" x2="24.4602" y2="31.6073" gradientUnits="userSpaceOnUse">
<stop stop-color="#38A1FF"/>
<stop offset="1" stop-color="#63B5FF"/>
</linearGradient>
<linearGradient id="paint9_linear_144_560" x1="8.55223" y1="2.10616" x2="24.4602" y2="31.6073" gradientUnits="userSpaceOnUse">
<stop stop-color="#38A1FF"/>
<stop offset="1" stop-color="#63B5FF"/>
</linearGradient>
<linearGradient id="paint10_linear_144_560" x1="8.55223" y1="2.10616" x2="24.4602" y2="31.6073" gradientUnits="userSpaceOnUse">
<stop stop-color="#38A1FF"/>
<stop offset="1" stop-color="#63B5FF"/>
</linearGradient>
</defs>
</svg>
