<svg width="37" height="36" viewBox="0 0 37 36" fill="none" xmlns="http://www.w3.org/2000/svg">
<path fill-rule="evenodd" clip-rule="evenodd" d="M8.48819 24.1778C7.37445 22.3805 6.7308 20.2634 6.7308 17.9999C6.7308 11.5147 12.0148 6.23071 18.5 6.23071C20.7635 6.23071 22.8806 6.87436 24.6779 7.9881L8.48819 24.1778ZM12.4242 28.0743C14.1993 29.1496 16.2793 29.7692 18.5 29.7692C24.9853 29.7692 30.2693 24.4852 30.2693 17.9999C30.2693 15.7792 29.6497 13.6992 28.5744 11.9241L12.4242 28.0743ZM1.88464 17.9999C1.88464 27.1617 9.33831 34.6153 18.5 34.6153C27.6618 34.6153 35.1154 27.1617 35.1154 17.9999C35.1154 8.83821 27.6618 1.38455 18.5 1.38455C9.33831 1.38455 1.88464 8.83821 1.88464 17.9999Z" fill="url(#paint0_linear_144_553)"/>
<defs>
<linearGradient id="paint0_linear_144_553" x1="9.31784" y1="3.71654" x2="28.5567" y2="33.4493" gradientUnits="userSpaceOnUse">
<stop stop-color="#38A1FF"/>
<stop offset="1" stop-color="#63B5FF"/>
</linearGradient>
</defs>
</svg>
