<svg width="345" height="207" viewBox="0 0 345 207" fill="none" xmlns="http://www.w3.org/2000/svg">
<g clip-path="url(#clip0_564_2348)">
<path d="M274.386 17.4876C239.966 13.0044 220.42 32.094 174.143 34.1724C128.183 30.5964 110.658 10.8636 75.8248 14.2044C38.3464 17.7948 9.31596 66.63 17.5768 115.484C25.8376 164.339 77.0296 191.646 103.199 191.478C124.118 191.344 142.593 182.838 166.444 180.793C190.036 183.616 207.59 192.721 228.455 193.547C254.562 194.584 308.529 169.009 321.902 120.515C335.274 72.0204 311.423 22.3068 274.386 17.4876Z" fill="#0C66FF"/>
<path opacity="0.7" d="M274.386 17.4876C239.966 13.0044 220.42 32.094 174.143 34.1724C128.183 30.5964 110.658 10.8636 75.8248 14.2044C38.3464 17.7948 9.31596 66.63 17.5768 115.484C25.8376 164.339 77.0296 191.646 103.199 191.478C124.118 191.344 142.593 182.838 166.444 180.793C190.036 183.616 207.59 192.721 228.455 193.547C254.562 194.584 308.529 169.009 321.902 120.515C335.274 72.0204 311.423 22.3068 274.386 17.4876Z" fill="white"/>
<path d="M8.16394 202.864H343.9" stroke="#263238" stroke-linecap="round" stroke-linejoin="round"/>
<g opacity="0.15">
<path d="M88.3624 23.6943C86.3368 25.6863 80.3416 27.8271 80.3368 27.8271C80.332 27.8271 80.1256 23.4447 80.1496 23.1663C80.4088 19.9407 82.8088 13.8543 86.3416 13.0239C88.8856 12.4239 91.1416 14.3295 91.4824 16.8159C91.8232 19.3023 90.0904 21.9951 88.3624 23.6943Z" fill="black"/>
<path d="M84.7337 104.43C84.7625 104.574 84.7913 104.709 84.8153 104.853L82.9337 106.59C82.8281 106.01 82.7225 105.424 82.6217 104.814C82.3193 103.096 82.0361 101.253 81.7625 99.3567C79.9352 99.3278 78.1113 99.1915 76.3 98.9487C75.2825 101.493 71.6824 105.39 71.2121 105.89C72.3832 107.142 73.5401 108.352 74.6488 109.48C75.4072 110.254 76.1433 110.994 76.8569 111.698L74.6105 112.562L73.0937 110.968C71.8985 109.696 70.6457 108.314 69.3689 106.888C68.7832 107.262 63.9785 110.315 61.3385 110.699C58.9385 111.045 55.7945 110.819 53.9753 109.014C52.1561 107.21 52.0553 104.291 54.0665 102.63C56.8649 100.322 63.1625 102.093 65.8888 103.84C66.052 103.946 67.6745 105.256 68.6825 106.101C68.1641 105.515 67.6553 104.949 67.132 104.339C66.0808 103.139 65.0729 101.91 63.9832 100.59L62.452 98.6079C61.9288 97.9551 61.4585 97.1967 60.9545 96.4911C59.8121 94.8255 58.7417 93.0783 57.7001 91.2975C56.6489 92.2143 52.8569 95.4063 50.5337 96.0975C48.2105 96.7887 45.0761 97.0575 43.0025 95.5503C40.9289 94.0431 40.3865 91.1727 42.1241 89.2239C44.5241 86.5167 51.0377 87.3039 53.9945 88.6287C54.1817 88.7103 56.1977 89.8911 57.2969 90.5487C56.6777 89.4735 56.0585 88.4031 55.4681 87.2943C53.7641 84.0975 52.1417 80.8047 50.5097 77.5263C50.0297 76.5231 49.4969 75.5295 48.9881 74.5311C48.6185 74.8623 44.1881 78.7551 41.5913 79.5471C39.2777 80.2527 36.1337 80.5071 34.0649 78.9999C31.9961 77.4927 31.4441 74.6223 33.1865 72.6735C35.5865 69.9663 42.0953 70.7535 45.0569 72.0783C45.2777 72.1791 48.1817 73.8831 48.8969 74.3487C47.7785 72.1551 46.6457 69.9759 45.4409 67.8735C43.8279 65.0274 42.0321 62.2889 40.0649 59.6751C39.8921 59.8287 35.2985 63.9135 32.6297 64.7247C30.3161 65.4303 27.1721 65.6847 25.0985 64.1775C23.0249 62.6703 22.4825 59.7999 24.2249 57.8511C26.6249 55.1439 33.1337 55.9311 36.0953 57.2559C36.3257 57.3615 39.4553 59.1759 39.9881 59.5647C39.8729 59.4159 39.7721 59.2479 39.6521 59.0847C37.6085 56.517 35.3385 54.1379 32.8697 51.9759C31.5257 50.7615 30.1673 49.6767 28.8281 48.6543C28.0457 49.4991 24.4505 53.3391 22.1321 54.3327C19.9049 55.2927 16.8089 55.8831 14.5865 54.6159C12.3641 53.3487 11.5049 50.5551 13.0169 48.4239C15.1241 45.4719 21.6569 45.5439 24.7529 46.5327C24.9209 46.5855 26.5673 47.3151 27.7577 47.8623C27.1433 47.4111 26.5193 46.9311 25.9241 46.5087C23.6921 44.9151 21.5465 43.5999 19.6409 42.4431C18.5513 41.7951 17.5529 41.2335 16.6121 40.7151C15.4121 41.1471 10.5641 42.8367 8.09206 42.6351C5.62006 42.4335 2.65366 41.6367 1.26646 39.4719C-0.120743 37.3071 0.402457 34.4367 2.73046 33.2559C5.95606 31.6047 11.7257 34.6959 14.0153 36.9807C14.2121 37.1823 16.9481 40.6335 16.8953 40.6575L16.8233 40.6815C17.7401 41.1615 18.7145 41.6895 19.7657 42.2847C21.6857 43.3983 23.8841 44.6847 26.1593 46.2255C28.6285 47.8671 30.999 49.6526 33.2585 51.5727C35.8049 53.709 38.1551 56.0688 40.2809 58.6239C40.3075 58.6538 40.3316 58.686 40.3529 58.7199C39.9545 57.7311 38.9129 54.9375 38.8841 54.7167C38.1257 51.5679 38.5097 45.0351 41.6057 43.1439C43.8377 41.7855 46.5881 42.8847 47.6729 45.1455C48.7577 47.4063 47.9657 50.5023 46.8521 52.6527C45.6041 55.0767 40.9577 58.7391 40.5881 59.0319C42.6912 61.6834 44.6154 64.472 46.3481 67.3791C47.3609 69.0687 48.3353 70.8015 49.2857 72.5487C48.9689 71.6847 48.6953 70.9119 48.6665 70.8015C47.9081 67.6527 48.2921 61.1199 51.3881 59.2335C53.6201 57.8703 56.3705 58.9743 57.4553 61.2303C58.5401 63.4863 57.7481 66.5871 56.6393 68.7375C55.5305 70.8879 51.6137 74.1231 50.5721 74.9535C50.9273 75.6303 51.2969 76.2975 51.6521 76.9743C53.3561 80.2191 55.0457 83.4639 56.8025 86.5743C57.4169 87.6783 58.0697 88.7391 58.7225 89.8095C58.4441 89.0415 58.2137 88.3935 58.1897 88.2927C57.4313 85.1439 57.8153 78.6111 60.9113 76.7199C63.1385 75.3615 65.8937 76.4607 66.9785 78.7215C68.0633 80.9823 67.2664 84.0783 66.1576 86.2287C65.0489 88.3791 61.5113 91.2975 60.2777 92.2959C60.9737 93.3663 61.6648 94.4415 62.3848 95.4543C62.8937 96.1311 63.3449 96.8175 63.8825 97.4703L65.4569 99.4239C66.4985 100.624 67.5689 101.877 68.6153 103.024C69.3401 103.83 70.0553 104.579 70.7513 105.342C70.1225 104.253 68.9369 102.088 68.8601 101.896C67.8776 99.2209 67.5983 96.3386 68.0489 93.5247C67.9279 93.2313 67.8331 92.9277 67.7657 92.6175C67.2521 90.1647 68.7689 87.6159 71.3657 87.3375C74.9753 86.9535 79.2472 91.9071 80.5576 94.8687C80.6393 95.0415 81.2633 97.0335 81.6376 98.2911C81.5321 97.5183 81.4168 96.7647 81.316 95.9679C81.1049 94.3887 80.9417 92.8047 80.7592 91.1055C80.7016 90.2799 80.6393 89.4447 80.5816 88.6047C80.524 87.7647 80.5289 86.8815 80.4953 86.0127C80.4665 83.9967 80.5337 81.9471 80.6488 79.8879C79.2664 80.0703 74.3417 80.6415 72.0089 79.9503C69.676 79.2591 66.9305 77.7375 66.0281 75.3375C65.1257 72.9375 66.2633 70.2447 68.7881 69.5775C72.2969 68.6559 77.2745 72.9039 79.0169 75.6303C79.1273 75.8031 80.1592 77.9007 80.7017 79.0623C80.7832 77.8239 80.8553 76.5903 80.9753 75.3423C81.3161 71.7327 81.7768 68.0943 82.2233 64.4607C82.3624 63.3471 82.4825 62.2335 82.612 61.1007C82.132 61.1679 76.2857 61.9743 73.6745 61.2015C71.356 60.5103 68.5961 58.9887 67.6985 56.5887C66.8008 54.1887 67.9289 51.4959 70.4585 50.8287C73.9625 49.9071 78.9401 54.1551 80.6825 56.8815C80.8169 57.0879 82.2952 60.1119 82.636 60.8943C82.9145 58.4511 83.1689 56.0079 83.3225 53.5887C83.5501 50.3259 83.5646 47.0518 83.3657 43.7871C83.1353 43.8159 77.0489 44.6895 74.3753 43.8927C72.0569 43.2063 69.2969 41.6799 68.3992 39.2847C67.5016 36.8895 68.6296 34.1871 71.1592 33.5247C74.6632 32.5983 79.6409 36.8463 81.3832 39.5727C81.5225 39.7887 83.1113 43.0431 83.3609 43.6527C83.3609 43.4607 83.3609 43.2639 83.3609 43.0767C83.0518 39.8311 82.4592 36.6189 81.5897 33.4767C81.1097 31.7199 80.6009 30.0687 80.0489 28.4751C78.9305 28.7535 73.8089 29.9679 71.3273 29.5167C68.9273 29.0895 66.0473 27.8799 64.8809 25.5951C63.7145 23.3103 64.5497 20.5023 66.9881 19.5663C70.3721 18.2607 75.7865 21.9375 77.8216 24.4575C77.9321 24.5919 78.9016 26.1135 79.5928 27.2271C79.3288 26.5119 79.0744 25.7871 78.8104 25.0863C77.8504 22.5279 76.7656 20.2431 75.8104 18.2271C75.2585 17.0847 74.7353 16.0671 74.2361 15.1167C72.9977 14.8143 68.0248 13.5471 66.076 12.0351C64.1273 10.5231 62.1353 8.13751 62.1641 5.57911C62.1929 3.02071 64.2185 0.908713 66.8153 1.20151C70.4201 1.60471 73.5353 7.35991 74.1737 10.5327C74.2265 10.8063 74.6009 15.1983 74.5385 15.1839H74.4664C74.9464 16.0863 75.484 17.0655 76.036 18.1407C77.0344 20.1375 78.148 22.4079 79.1945 24.9567C80.3474 27.6785 81.3442 30.4638 82.1801 33.2991C83.123 36.4858 83.7816 39.7497 84.1481 43.0527C84.1457 43.0927 84.1457 43.1327 84.1481 43.1727C84.3593 42.1311 85.0504 39.2415 85.132 39.0255C86.236 35.9775 90.1576 30.7455 93.772 30.8655C96.3832 30.9615 98.092 33.3999 97.7272 35.8815C97.3624 38.3631 95.0153 40.5087 92.9273 41.6895C90.5273 43.0239 84.6472 43.5135 84.1816 43.5519C84.4685 46.9232 84.5311 50.3099 84.3689 53.6895C84.2873 55.6575 84.1385 57.6399 83.9705 59.6223C84.1816 58.7295 84.3785 57.9327 84.4169 57.8223C85.5209 54.7791 89.4473 49.5423 93.0569 49.6623C95.6681 49.7535 97.3768 52.1919 97.012 54.6735C96.6472 57.1551 94.3 59.3055 92.2121 60.4863C90.124 61.6671 85.0553 62.2047 83.7257 62.3247C83.6488 63.0831 83.5865 63.8463 83.5097 64.6047C83.1449 68.2527 82.7609 71.8911 82.4969 75.4719C82.4057 76.7295 82.3577 77.9775 82.3097 79.2255C82.4969 78.4287 82.6649 77.7615 82.6985 77.6655C83.8025 74.6175 87.7289 69.3855 91.3385 69.5055C93.9497 69.6015 95.6585 72.0399 95.2937 74.5215C94.9289 77.0031 92.5817 79.1487 90.4697 80.3295C88.3577 81.5103 83.7977 81.9951 82.2185 82.1439C82.2185 83.4255 82.1897 84.7023 82.2185 85.9407C82.2664 86.7903 82.2569 87.6063 82.3529 88.4511C82.4489 89.2959 82.5113 90.1215 82.5881 90.9471C82.7945 92.5263 82.996 94.1583 83.2361 95.6943C83.3944 96.7647 83.5673 97.7823 83.716 98.8047C83.7977 97.5471 83.9993 95.0895 84.0425 94.8879C84.6713 91.7103 87.7577 85.9455 91.3577 85.5231C93.9545 85.2207 95.9897 87.3759 96.0281 89.8815C96.0665 92.3871 94.0504 94.8687 92.1449 96.3567C90.0424 97.9935 84.5225 99.3423 83.8313 99.5055C84.1337 101.234 84.4313 102.88 84.7337 104.43Z" fill="black"/>
<path d="M28.7225 48.0111C28.6841 48.0639 26.1257 44.4735 25.9913 44.2287C24.4313 41.3919 23.0777 34.9935 25.5641 32.3535C27.3545 30.4335 30.2969 30.7887 31.9433 32.6799C33.5897 34.5711 33.6377 37.7679 33.1337 40.1343C32.5433 42.9135 28.7225 48.0063 28.7225 48.0111Z" fill="black"/>
</g>
<g opacity="0.15">
<path d="M224.198 36.2988C226.223 38.2908 232.218 40.4316 232.223 40.4316C232.228 40.4316 232.434 36.0492 232.41 35.7708C232.151 32.5452 229.751 26.4588 226.218 25.6284C223.674 25.0284 221.418 26.934 221.082 29.4204C220.746 31.9068 222.474 34.5996 224.198 36.2988Z" fill="black"/>
<path d="M227.826 117.035C227.798 117.179 227.774 117.313 227.745 117.457L229.631 119.195C229.732 118.614 229.838 118.028 229.943 117.419C230.241 115.7 230.524 113.857 230.798 111.961C232.626 111.932 234.452 111.796 236.265 111.553C237.278 114.097 240.882 117.995 241.348 118.494C240.177 119.747 239.02 120.956 237.916 122.08C237.153 122.857 236.418 123.596 235.703 124.302L237.95 125.161C238.43 124.648 238.948 124.12 239.466 123.572C240.662 122.3 241.914 120.918 243.191 119.493C243.777 119.867 248.586 122.92 251.226 123.304C253.626 123.649 256.766 123.424 258.585 121.619C260.404 119.814 260.505 116.896 258.494 115.235C255.695 112.926 249.374 114.697 246.671 116.444C246.508 116.545 244.89 117.86 243.878 118.705C244.396 118.12 244.905 117.553 245.433 116.944C246.479 115.744 247.487 114.515 248.577 113.195L250.108 111.212C250.631 110.56 251.102 109.801 251.61 109.096C252.748 107.43 253.818 105.683 254.86 103.902C255.916 104.819 259.703 108.011 262.026 108.702C264.35 109.393 267.484 109.662 269.558 108.155C271.631 106.648 272.174 103.777 270.436 101.828C268.036 99.1213 261.527 99.9085 258.566 101.233C258.378 101.315 256.362 102.496 255.263 103.153C255.882 102.078 256.506 101.008 257.092 99.8989C258.796 96.6973 260.418 93.4093 262.055 90.1309C262.535 89.1277 263.063 88.1341 263.572 87.1357C263.942 87.4669 268.372 91.3597 270.969 92.1517C273.282 92.8525 276.426 93.1117 278.495 91.6045C280.564 90.0973 281.116 87.2269 279.374 85.2781C276.974 82.5709 270.465 83.3581 267.503 84.6829C267.282 84.7789 264.378 86.4829 263.663 86.9533C264.782 84.7597 265.914 82.5805 267.119 80.4781C268.732 77.632 270.528 74.8935 272.495 72.2797C272.668 72.4333 277.262 76.5181 279.93 77.3293C282.244 78.0301 285.388 78.2893 287.462 76.7821C289.535 75.2749 290.078 72.4045 288.335 70.4557C285.935 67.7485 279.426 68.5357 276.465 69.8605C276.234 69.9613 273.105 71.7805 272.572 72.1693C272.687 72.0205 272.788 71.8525 272.908 71.6893C274.952 69.1216 277.222 66.7424 279.69 64.5805C281.034 63.3661 282.393 62.2813 283.737 61.2589C284.514 62.1037 288.11 65.9437 290.457 66.9373C292.679 67.8973 295.775 68.4877 297.998 67.2205C300.22 65.9533 301.084 63.1549 299.567 61.0285C297.46 58.0765 290.927 58.1485 287.831 59.1373C287.663 59.1901 286.022 59.9197 284.826 60.4669C285.441 60.0157 286.065 59.5357 286.66 59.1133C288.892 57.5197 291.038 56.1997 292.943 55.0477C294.038 54.3997 295.031 53.8381 295.972 53.3197C297.172 53.7517 302.02 55.4413 304.492 55.2397C306.964 55.0381 309.93 54.1645 311.318 52.0141C312.705 49.8637 312.182 46.9885 309.854 45.7741C306.628 44.1229 300.858 47.2141 298.569 49.4989C298.372 49.6957 295.636 53.1517 295.689 53.1757L295.761 53.1997C294.844 53.6797 293.87 54.2077 292.818 54.8029C290.898 55.9165 288.705 57.2029 286.425 58.7437C283.945 60.4198 281.567 62.2406 279.302 64.1965C276.749 66.3258 274.393 68.6791 272.26 71.2285L272.188 71.3197C272.586 70.3357 273.628 67.5421 273.657 67.3213C274.415 64.1725 274.031 57.6397 270.935 55.7485C268.708 54.3901 265.953 55.4893 264.868 57.7501C263.783 60.0109 264.58 63.1069 265.689 65.2573C266.937 67.6573 271.583 71.3437 271.929 71.6365C269.824 74.2868 267.9 77.0754 266.169 79.9837C265.151 81.6733 264.177 83.4061 263.226 85.1533C263.543 84.2893 263.817 83.5165 263.846 83.4061C264.604 80.2573 264.22 73.7245 261.124 71.8333C258.892 70.4749 256.142 71.5741 255.057 73.8349C253.972 76.0957 254.764 79.1917 255.873 81.3421C256.982 83.4925 260.898 86.7277 261.94 87.5581C261.585 88.2349 261.22 88.9021 260.86 89.5789C259.156 92.8237 257.466 96.0685 255.71 99.2029C255.095 100.307 254.442 101.368 253.79 102.438C254.068 101.67 254.298 101.022 254.322 100.921C255.081 97.7677 254.697 91.2397 251.606 89.3485C249.374 87.9901 246.618 89.0893 245.538 91.3501C244.458 93.6109 245.246 96.7069 246.354 98.8573C247.463 101.008 251.001 103.926 252.234 104.924C251.538 105.995 250.847 107.07 250.127 108.083C249.618 108.76 249.167 109.446 248.63 110.099L247.06 112.048C246.014 113.252 244.943 114.5 243.897 115.652C243.172 116.459 242.457 117.208 241.761 117.971C242.39 116.876 243.575 114.716 243.652 114.524C244.635 111.85 244.914 108.967 244.463 106.153C244.584 105.86 244.679 105.556 244.746 105.246C245.26 102.793 243.743 100.244 241.146 99.9661C237.537 99.5869 233.265 104.54 231.954 107.502C231.878 107.675 231.249 109.667 230.874 110.924C230.98 110.152 231.095 109.398 231.196 108.601C231.407 107.022 231.57 105.438 231.753 103.739C231.81 102.913 231.873 102.078 231.93 101.238C231.988 100.398 231.988 99.5149 232.017 98.6461C232.046 96.6301 231.978 94.5805 231.863 92.5213C233.25 92.7037 238.17 93.2749 240.503 92.5837C242.836 91.8925 245.586 90.3709 246.484 87.9709C247.382 85.5709 246.249 82.8781 243.724 82.2109C240.215 81.2893 235.238 85.5373 233.495 88.2637C233.385 88.4365 232.353 90.5341 231.81 91.6957C231.734 90.4573 231.662 89.2237 231.542 87.9757C231.196 84.3661 230.735 80.7277 230.289 77.0893C230.15 75.9805 230.03 74.8669 229.9 73.7581C230.38 73.8253 236.226 74.6317 238.838 73.8589C241.156 73.1677 243.916 71.6461 244.814 69.2461C245.711 66.8461 244.583 64.1533 242.058 63.4861C238.55 62.5645 233.572 66.8125 231.83 69.5389C231.695 69.7453 230.217 72.7645 229.876 73.5517C229.598 71.1085 229.343 68.6653 229.19 66.2461C228.962 62.9833 228.948 59.7092 229.146 56.4445C229.377 56.4733 235.463 57.3469 238.137 56.5501C240.455 55.8589 243.215 54.3373 244.113 51.9421C245.01 49.5469 243.882 46.8445 241.358 46.1821C237.849 45.2605 232.871 49.5085 231.129 52.2349C230.99 52.4509 229.401 55.7053 229.156 56.3149C229.156 56.1229 229.156 55.9261 229.156 55.7389C229.476 52.4655 230.086 49.2271 230.98 46.0621C231.436 44.3053 231.969 42.6541 232.521 41.0605C233.639 41.3389 238.761 42.5533 241.242 42.1021C243.642 41.6749 246.522 40.4605 247.694 38.1805C248.865 35.9005 248.02 33.0877 245.582 32.1469C242.222 30.8461 236.783 34.5469 234.753 37.0429C234.642 37.1773 233.668 38.6989 232.982 39.8125C233.241 39.0973 233.495 38.3725 233.759 37.6717C234.743 35.1133 235.804 32.8285 236.759 30.8125C237.311 29.6701 237.834 28.6477 238.334 27.7021C239.572 27.3997 244.545 26.1325 246.494 24.6205C248.442 23.1085 250.434 20.7229 250.406 18.1645C250.377 15.6061 248.356 13.4941 245.764 13.7965C242.159 14.1997 239.044 19.9549 238.406 23.1277C238.348 23.4013 237.974 27.7933 238.036 27.7789H238.113C237.633 28.6813 237.09 29.6605 236.538 30.7357C235.54 32.7325 234.426 35.0029 233.385 37.5517C232.228 40.2845 231.233 43.0829 230.404 45.9325C229.456 49.118 228.798 52.3824 228.436 55.6861C228.436 55.7245 228.436 55.7677 228.436 55.8061C228.225 54.7645 227.534 51.8749 227.452 51.6589C226.348 48.6109 222.426 43.3789 218.812 43.4989C216.201 43.5949 214.492 46.0333 214.857 48.5149C215.222 50.9965 217.569 53.1421 219.657 54.3229C222.057 55.6573 227.937 56.1469 228.407 56.1853C228.116 59.5564 228.052 62.9432 228.215 66.3229C228.297 68.2909 228.446 70.2733 228.614 72.2557C228.402 71.3629 228.206 70.5661 228.167 70.4557C227.063 67.4125 223.137 62.1757 219.527 62.2957C216.916 62.3869 215.231 64.8253 215.572 67.3069C215.913 69.7885 218.284 71.9389 220.396 73.1197C222.508 74.3005 227.553 74.8381 228.887 74.9581C228.959 75.7165 229.022 76.4749 229.098 77.2381C229.468 80.8861 229.847 84.5245 230.111 88.1053C230.202 89.3629 230.25 90.6109 230.303 91.8589C230.111 91.0621 229.943 90.3949 229.91 90.2989C228.806 87.2509 224.884 82.0189 221.27 82.1389C218.658 82.2349 216.974 84.6733 217.314 87.1549C217.655 89.6365 220.026 91.7821 222.114 92.9629C224.202 94.1437 228.786 94.6285 230.366 94.7773C230.366 96.0589 230.394 97.3357 230.366 98.5741C230.313 99.4237 230.327 100.24 230.226 101.084C230.126 101.929 230.073 102.755 229.996 103.58C229.79 105.16 229.583 106.792 229.343 108.328C229.185 109.398 229.012 110.416 228.863 111.438C228.786 110.18 228.58 107.723 228.537 107.521C227.908 104.344 224.822 98.5789 221.222 98.1565C218.625 97.8541 216.59 100.009 216.551 102.515C216.513 105.02 218.529 107.502 220.439 108.985C222.537 110.627 228.057 111.976 228.748 112.139C228.426 113.838 228.129 115.484 227.826 117.035Z" fill="black"/>
<path d="M283.838 60.6156C283.881 60.6684 286.434 57.078 286.569 56.8332C288.134 53.9964 289.487 47.598 287.001 44.958C285.206 43.038 282.263 43.3932 280.622 45.2844C278.98 47.1756 278.922 50.3724 279.426 52.7388C280.017 55.518 283.838 60.6108 283.838 60.6156Z" fill="black"/>
</g>
<path d="M228.191 192.481V174.76C228.192 172.007 229.287 169.367 231.233 167.42C233.18 165.473 235.82 164.379 238.574 164.377H140.682C137.929 164.377 135.288 165.471 133.341 167.418C131.394 169.365 130.3 172.006 130.3 174.76V192.481C130.299 193.845 130.567 195.195 131.089 196.455C131.61 197.715 132.375 198.86 133.339 199.824C134.304 200.789 135.448 201.553 136.708 202.075C137.968 202.596 139.319 202.864 140.682 202.864H238.574C235.82 202.864 233.179 201.77 231.232 199.823C229.285 197.876 228.191 195.235 228.191 192.481Z" fill="#263238" stroke="#263238" stroke-linecap="round" stroke-linejoin="round"/>
<path d="M325.746 165.784L326.913 165.016C326.974 164.974 327.02 164.913 327.044 164.843C327.068 164.774 327.07 164.698 327.049 164.627C327.028 164.556 326.984 164.494 326.925 164.449C326.866 164.404 326.795 164.379 326.721 164.377H238.574C235.82 164.379 233.18 165.473 231.233 167.42C229.287 169.367 228.192 172.007 228.191 174.76V192.481C228.191 195.235 229.285 197.876 231.232 199.823C233.179 201.77 235.82 202.864 238.574 202.864H326.721C326.797 202.866 326.871 202.843 326.932 202.798C326.993 202.754 327.038 202.69 327.06 202.618C327.082 202.545 327.079 202.468 327.053 202.397C327.026 202.326 326.977 202.266 326.913 202.225L325.746 201.457V165.784Z" fill="#949494" stroke="#263238" stroke-linecap="round" stroke-linejoin="round"/>
<path d="M243.767 165.784H325.746V201.476H243.767C240.147 201.476 236.674 200.038 234.114 197.478C231.554 194.918 230.116 191.446 230.116 187.825V179.435C230.116 175.814 231.554 172.342 234.114 169.782C236.674 167.222 240.147 165.784 243.767 165.784Z" fill="white" stroke="#263238" stroke-linecap="round" stroke-linejoin="round"/>
<path d="M233.106 172.35H267.498" stroke="#263238" stroke-linecap="round" stroke-linejoin="round"/>
<path d="M258.47 175.614H290.558" stroke="#263238" stroke-linecap="round" stroke-linejoin="round"/>
<path d="M277.876 179.651H247.132" stroke="#263238" stroke-linecap="round" stroke-linejoin="round"/>
<path d="M233.874 191.948H254.049" stroke="#263238" stroke-linecap="round" stroke-linejoin="round"/>
<path d="M248.865 194.829H279.028" stroke="#263238" stroke-linecap="round" stroke-linejoin="round"/>
<path d="M245.212 197.521H253.281" stroke="#263238" stroke-linecap="round" stroke-linejoin="round"/>
<path d="M267.887 189.26H319.185" stroke="#263238" stroke-linecap="round" stroke-linejoin="round"/>
<path d="M325.142 180.995H314.577" stroke="#263238" stroke-linecap="round" stroke-linejoin="round"/>
<path d="M323.414 178.307H312.652" stroke="#263238" stroke-linecap="round" stroke-linejoin="round"/>
<path d="M323.414 195.601H296.514" stroke="#263238" stroke-linecap="round" stroke-linejoin="round"/>
<path d="M223.574 153.813V136.091C223.573 134.727 223.841 133.377 224.363 132.117C224.884 130.857 225.649 129.712 226.613 128.748C227.577 127.784 228.722 127.019 229.982 126.498C231.242 125.976 232.592 125.708 233.956 125.708H136.06C134.697 125.708 133.347 125.977 132.088 126.499C130.828 127.021 129.684 127.786 128.72 128.75C127.756 129.714 126.992 130.858 126.471 132.118C125.95 133.378 125.682 134.728 125.682 136.091V153.813C125.682 156.565 126.776 159.205 128.722 161.152C130.668 163.099 133.307 164.194 136.06 164.195H233.98C232.615 164.198 231.262 163.932 229.999 163.411C228.737 162.891 227.59 162.127 226.623 161.162C225.656 160.198 224.889 159.052 224.366 157.791C223.843 156.53 223.574 155.178 223.574 153.813Z" fill="#8C8C8C" stroke="#263238" stroke-linecap="round" stroke-linejoin="round"/>
<path d="M321.124 127.115L322.295 126.347C322.359 126.307 322.409 126.247 322.435 126.176C322.462 126.105 322.465 126.027 322.443 125.955C322.421 125.882 322.376 125.819 322.315 125.774C322.253 125.73 322.179 125.707 322.103 125.709H233.956C232.592 125.708 231.242 125.976 229.982 126.498C228.722 127.019 227.577 127.784 226.613 128.748C225.649 129.712 224.884 130.857 224.363 132.117C223.841 133.377 223.573 134.727 223.574 136.091V153.813C223.574 156.566 224.667 159.207 226.615 161.154C228.562 163.101 231.202 164.195 233.956 164.195H322.103C322.177 164.193 322.249 164.168 322.308 164.124C322.367 164.079 322.41 164.017 322.431 163.946C322.453 163.875 322.451 163.799 322.426 163.729C322.402 163.659 322.356 163.599 322.295 163.557L321.124 162.789V127.115Z" fill="#949494" stroke="#263238" stroke-linecap="round" stroke-linejoin="round"/>
<path d="M239.14 127.115H321.124V162.788H239.14C235.524 162.787 232.055 161.351 229.497 158.795C226.938 156.239 225.499 152.773 225.494 149.156V140.766C225.494 137.146 226.931 133.675 229.49 131.115C232.049 128.555 235.52 127.116 239.14 127.115Z" fill="white" stroke="#263238" stroke-linecap="round" stroke-linejoin="round"/>
<path d="M228.489 133.681H262.881" stroke="#263238" stroke-linecap="round" stroke-linejoin="round"/>
<path d="M253.852 136.945H285.94" stroke="#263238" stroke-linecap="round" stroke-linejoin="round"/>
<path d="M273.258 140.982H242.514" stroke="#263238" stroke-linecap="round" stroke-linejoin="round"/>
<path d="M229.257 153.28H249.431" stroke="#263238" stroke-linecap="round" stroke-linejoin="round"/>
<path d="M244.242 156.16H274.41" stroke="#263238" stroke-linecap="round" stroke-linejoin="round"/>
<path d="M240.594 158.848H248.663" stroke="#263238" stroke-linecap="round" stroke-linejoin="round"/>
<path d="M263.265 150.587H314.567" stroke="#263238" stroke-linecap="round" stroke-linejoin="round"/>
<path d="M320.524 142.326H309.959" stroke="#263238" stroke-linecap="round" stroke-linejoin="round"/>
<path d="M318.796 139.638H308.034" stroke="#263238" stroke-linecap="round" stroke-linejoin="round"/>
<path d="M318.796 156.928H291.897" stroke="#263238" stroke-linecap="round" stroke-linejoin="round"/>
<path d="M304.761 184.691L296.855 176.785L288.969 184.691V139.609H304.761V184.691Z" fill="#263238" stroke="#263238" stroke-linecap="round" stroke-linejoin="round"/>
<path d="M232.151 115.144V97.4172C232.15 94.6644 231.056 92.0248 229.109 90.0788C227.162 88.1327 224.522 87.0396 221.769 87.0396H319.66C321.023 87.0389 322.373 87.3069 323.633 87.8281C324.892 88.3494 326.037 89.1137 327.001 90.0774C327.965 91.0411 328.73 92.1853 329.252 93.4447C329.774 94.7041 330.042 96.0539 330.042 97.4172V115.144C330.042 116.507 329.774 117.857 329.252 119.116C328.73 120.375 327.965 121.52 327.001 122.483C326.037 123.447 324.892 124.211 323.633 124.733C322.373 125.254 321.023 125.522 319.66 125.521H221.769C224.522 125.521 227.162 124.428 229.109 122.482C231.056 120.536 232.15 117.896 232.151 115.144Z" fill="#0C66FF" stroke="#263238" stroke-linecap="round" stroke-linejoin="round"/>
<path d="M134.596 88.4413L133.43 87.6781C133.365 87.6379 133.316 87.5777 133.289 87.5068C133.263 87.4359 133.26 87.3582 133.282 87.2856C133.304 87.2131 133.349 87.1497 133.41 87.1053C133.472 87.0608 133.546 87.0378 133.622 87.0397H221.769C224.521 87.0397 227.162 88.1329 229.108 90.0789C231.055 92.0249 232.15 94.6645 232.151 97.4173V115.144C232.15 117.896 231.055 120.536 229.108 122.482C227.162 124.428 224.521 125.521 221.769 125.521H133.622C133.546 125.523 133.472 125.5 133.41 125.456C133.349 125.411 133.304 125.348 133.282 125.275C133.26 125.203 133.263 125.125 133.289 125.054C133.316 124.983 133.365 124.923 133.43 124.883L134.596 124.12V88.4413Z" fill="#949494" stroke="#263238" stroke-linecap="round" stroke-linejoin="round"/>
<path d="M216.575 124.12L134.596 124.12V88.446L216.575 88.446C220.195 88.446 223.666 89.8836 226.226 92.4427C228.786 95.0017 230.225 98.4727 230.226 102.092V110.444C230.229 112.239 229.879 114.017 229.194 115.676C228.509 117.335 227.504 118.843 226.236 120.113C224.969 121.383 223.463 122.391 221.805 123.078C220.147 123.766 218.37 124.12 216.575 124.12Z" fill="white" stroke="#263238" stroke-linecap="round" stroke-linejoin="round"/>
<path d="M227.236 95.0078H192.839" stroke="#263238" stroke-linecap="round" stroke-linejoin="round"/>
<path d="M201.873 98.2764H169.785" stroke="#263238" stroke-linecap="round" stroke-linejoin="round"/>
<path d="M182.466 102.309H213.206" stroke="#263238" stroke-linecap="round" stroke-linejoin="round"/>
<path d="M226.463 114.606H206.289" stroke="#263238" stroke-linecap="round" stroke-linejoin="round"/>
<path d="M211.478 117.491H181.31" stroke="#263238" stroke-linecap="round" stroke-linejoin="round"/>
<path d="M215.13 120.179H207.057" stroke="#263238" stroke-linecap="round" stroke-linejoin="round"/>
<path d="M192.455 111.918H141.153" stroke="#263238" stroke-linecap="round" stroke-linejoin="round"/>
<path d="M135.196 103.657H145.766" stroke="#263238" stroke-linecap="round" stroke-linejoin="round"/>
<path d="M136.929 100.964H147.686" stroke="#263238" stroke-linecap="round" stroke-linejoin="round"/>
<path d="M136.929 118.259H163.828" stroke="#263238" stroke-linecap="round" stroke-linejoin="round"/>
<path d="M231.215 58.0671C231.214 57.537 231.002 57.0292 230.627 56.6548C230.252 56.2805 229.744 56.0703 229.214 56.0703H80.1256C79.8548 56.057 79.5842 56.0989 79.3301 56.1933C79.076 56.2878 78.8437 56.4329 78.6474 56.6199C78.451 56.8068 78.2947 57.0317 78.1879 57.2809C78.0811 57.5301 78.026 57.7984 78.026 58.0695C78.026 58.3406 78.0811 58.6089 78.1879 58.858C78.2947 59.1072 78.451 59.3321 78.6474 59.519C78.8437 59.706 79.076 59.8511 79.3301 59.9456C79.5842 60.0401 79.8548 60.0819 80.1256 60.0687H227.006L216.263 198.789H127.151L122.111 193.456L115.391 198.789H54.004C53.7332 198.775 53.4626 198.817 53.2085 198.912C52.9544 199.006 52.7221 199.151 52.5258 199.338C52.3294 199.525 52.1731 199.75 52.0663 199.999C51.9595 200.248 51.9044 200.517 51.9044 200.788C51.9044 201.059 51.9595 201.327 52.0663 201.576C52.1731 201.826 52.3294 202.051 52.5258 202.237C52.7221 202.424 52.9544 202.57 53.2085 202.664C53.4626 202.758 53.7332 202.8 54.004 202.787H217.54C217.67 202.825 217.803 202.85 217.938 202.859C218.2 202.879 218.464 202.848 218.714 202.766C218.963 202.684 219.195 202.554 219.394 202.383C219.593 202.212 219.757 202.003 219.875 201.768C219.994 201.534 220.065 201.278 220.084 201.016L231.124 58.5855C231.177 58.4173 231.207 58.2431 231.215 58.0671Z" fill="#263238" stroke="#263238" stroke-linecap="round" stroke-linejoin="round"/>
<path d="M122.577 195.496C123.369 195.813 124.914 198.496 125.836 200.2H218.289L210.854 182.488C210.854 182.488 203.735 179.262 185.15 173.147C166.564 167.032 154.804 164.915 142.334 167.502C129.863 170.089 124.929 171.717 124.929 171.717C124.929 171.717 120.695 168.189 107.754 167.953C94.8136 167.718 56.3608 182.469 56.3608 182.469L53.6488 200.181H118.593C119.788 198.213 121.775 195.174 122.577 195.496Z" fill="white" stroke="#263238" stroke-linecap="round" stroke-linejoin="round"/>
<path d="M139.002 42.2223L123.878 179.397C123.878 179.397 140.38 172.523 151.036 172.197C159.772 171.913 186.076 178.105 195.268 180.357C197.453 180.891 199.67 181.282 201.906 181.528L210.854 182.526L221.51 46.7295C221.51 46.7295 203.98 42.6063 191.27 38.4783C178.559 34.3503 153.441 31.2207 139.002 42.2223Z" fill="white" stroke="#263238" stroke-linecap="round" stroke-linejoin="round"/>
<path d="M139.002 42.2221L123.878 179.397C123.878 179.397 113.226 172.523 104.994 172.197C98.7064 171.933 79.4584 177.28 70.6936 179.824C67.6356 180.708 64.5168 181.368 61.3624 181.797L56.3608 182.493L74.8792 48.7741C74.8792 48.7741 83.2408 45.9805 93.964 41.8525C104.687 37.7245 129.93 31.2205 139.002 42.2221Z" fill="white" stroke="#263238" stroke-linecap="round" stroke-linejoin="round"/>
<path d="M221.51 46.6909L228.196 60.2317L218.289 200.2L210.854 182.488L221.51 46.6909Z" fill="white" stroke="#263238" stroke-linecap="round" stroke-linejoin="round"/>
<path d="M118.593 200.2C118.593 200.2 114.023 197.07 109.444 195.928C104.865 194.785 91.804 196.384 79.204 197.531" stroke="#263238" stroke-linecap="round" stroke-linejoin="round"/>
<path d="M118.833 197.07C118.833 197.07 114.033 193.178 107.841 192.722" stroke="#263238" stroke-linecap="round" stroke-linejoin="round"/>
<path d="M120.897 194.781C120.897 194.781 113.337 188.598 103.943 188.598C96.8104 188.598 88.1368 190.201 88.1368 190.201" stroke="#263238" stroke-linecap="round" stroke-linejoin="round"/>
<path d="M121.583 189.285C121.583 189.285 115.626 184.931 110.356 184.485C105.086 184.038 98.4473 185.157 98.4473 185.157" stroke="#263238" stroke-linecap="round" stroke-linejoin="round"/>
<path d="M122.02 183.789C122.02 183.789 117.671 179.891 111.714 178.989C107.992 178.445 104.21 178.445 100.487 178.989" stroke="#263238" stroke-linecap="round" stroke-linejoin="round"/>
<path d="M124.329 185.392C124.329 185.392 131.663 180.112 144.009 181.494" stroke="#263238" stroke-linecap="round" stroke-linejoin="round"/>
<path d="M123.873 190.437C123.873 190.437 127.54 187.691 136.929 187.691" stroke="#263238" stroke-linecap="round" stroke-linejoin="round"/>
<path d="M124.559 195.237C124.559 195.237 132.119 192.256 138.993 192.942C145.866 193.629 146.778 194.09 155.255 195.006" stroke="#263238" stroke-linecap="round" stroke-linejoin="round"/>
<path d="M128.682 198.448C132.425 197.12 136.417 196.65 140.366 197.07" stroke="#263238" stroke-linecap="round" stroke-linejoin="round"/>
<path d="M141.282 187.912C141.282 187.912 148.612 188.368 152.274 189.741" stroke="#263238" stroke-linecap="round" stroke-linejoin="round"/>
<path d="M97.3 179.435L92.7208 180.577" stroke="#263238" stroke-linecap="round" stroke-linejoin="round"/>
<path d="M85.3911 191.118L81.9543 192.03" stroke="#263238" stroke-linecap="round" stroke-linejoin="round"/>
<path d="M146.778 182.181L150.446 182.872" stroke="#263238" stroke-linecap="round" stroke-linejoin="round"/>
<path d="M200.38 196.384C200.38 196.384 210.23 197.07 213.892 197.07" stroke="#263238" stroke-linecap="round" stroke-linejoin="round"/>
<path d="M213.892 195.467L209.999 195.242" stroke="#263238" stroke-linecap="round" stroke-linejoin="round"/>
<path d="M200.15 190.657C200.15 190.657 207.94 191.137 211.833 191.574" stroke="#263238" stroke-linecap="round" stroke-linejoin="round"/>
<path d="M57.4456 186.995C62.0993 186.491 66.6985 185.57 71.188 184.245" stroke="#263238" stroke-linecap="round" stroke-linejoin="round"/>
<path d="M62.7112 189.054C62.7112 189.054 68.212 188.598 71.4184 187.451" stroke="#263238" stroke-linecap="round" stroke-linejoin="round"/>
<path d="M209.082 186.534C209.082 186.534 202.67 187.451 193.506 185.392C188.29 184.194 183.014 183.276 177.7 182.642" stroke="#263238" stroke-linecap="round" stroke-linejoin="round"/>
<path d="M189.614 196.845L195.796 197.07" stroke="#263238" stroke-linecap="round" stroke-linejoin="round"/>
<path d="M224.658 54.8223L222.138 87.3519" stroke="#263238" stroke-linecap="round" stroke-linejoin="round"/>
<path d="M226.036 63.2988L224.889 77.502" stroke="#263238" stroke-linecap="round" stroke-linejoin="round"/>
<path d="M221.913 116.67L219.618 146.68" stroke="#263238" stroke-linecap="round" stroke-linejoin="round"/>
<path d="M218.476 155.382L216.186 185.392" stroke="#263238" stroke-linecap="round" stroke-linejoin="round"/>
<path d="M220.19 113.233L218.706 132.707" stroke="#263238" stroke-linecap="round" stroke-linejoin="round"/>
<path d="M218.356 136.139L216.873 155.613" stroke="#263238" stroke-linecap="round" stroke-linejoin="round"/>
<path d="M142.895 57.9901C142.895 57.9901 152.606 51.1885 170.092 54.1021" stroke="#B2B2B2" stroke-linecap="round" stroke-linejoin="round"/>
<path d="M142.382 62.3246C142.382 62.3246 152.121 55.499 169.607 58.3502" stroke="#B2B2B2" stroke-linecap="round" stroke-linejoin="round"/>
<path d="M141.873 66.6589C141.873 66.6589 151.636 59.8093 169.122 62.5933" stroke="#B2B2B2" stroke-linecap="round" stroke-linejoin="round"/>
<path d="M141.364 70.9887C141.364 70.9887 151.151 64.1151 168.633 66.8367" stroke="#B2B2B2" stroke-linecap="round" stroke-linejoin="round"/>
<path d="M140.85 75.3229C140.85 75.3229 150.666 68.4253 168.148 71.0845" stroke="#B2B2B2" stroke-linecap="round" stroke-linejoin="round"/>
<path d="M140.342 79.6573C140.342 79.6573 150.177 72.7357 167.663 75.3373" stroke="#B2B2B2" stroke-linecap="round" stroke-linejoin="round"/>
<path d="M139.828 83.9921C139.828 83.9921 149.692 77.0417 167.188 79.5713" stroke="#B2B2B2" stroke-linecap="round" stroke-linejoin="round"/>
<path d="M139.3 88.3261C139.3 88.3261 149.188 81.3517 166.66 83.8141" stroke="#B2B2B2" stroke-linecap="round" stroke-linejoin="round"/>
<path d="M138.82 92.6607C138.82 92.6607 148.732 85.6623 166.214 88.0623" stroke="#B2B2B2" stroke-linecap="round" stroke-linejoin="round"/>
<path d="M138.297 96.995C138.297 96.995 148.238 89.9678 165.719 92.3054" stroke="#B2B2B2" stroke-linecap="round" stroke-linejoin="round"/>
<path d="M137.788 101.329C137.788 101.329 147.748 94.2783 165.234 96.5295" stroke="#B2B2B2" stroke-linecap="round" stroke-linejoin="round"/>
<path d="M137.279 105.659C137.279 105.659 147.263 98.5885 164.75 100.792" stroke="#B2B2B2" stroke-linecap="round" stroke-linejoin="round"/>
<path d="M136.766 109.993C136.766 109.993 146.778 102.894 164.265 105.04" stroke="#B2B2B2" stroke-linecap="round" stroke-linejoin="round"/>
<path d="M136.257 114.328C136.257 114.328 146.294 107.205 163.78 109.283" stroke="#B2B2B2" stroke-linecap="round" stroke-linejoin="round"/>
<path d="M135.743 118.662C135.743 118.662 145.823 111.515 163.29 113.526" stroke="#B2B2B2" stroke-linecap="round" stroke-linejoin="round"/>
<path d="M135.234 122.996C135.234 122.996 145.314 115.825 162.806 117.769" stroke="#B2B2B2" stroke-linecap="round" stroke-linejoin="round"/>
<path d="M134.726 127.331C134.726 127.331 144.834 120.131 162.321 122.017" stroke="#B2B2B2" stroke-linecap="round" stroke-linejoin="round"/>
<path d="M134.212 131.665C134.212 131.665 144.35 124.441 161.86 126.261" stroke="#B2B2B2" stroke-linecap="round" stroke-linejoin="round"/>
<path d="M133.703 136C133.703 136 143.865 128.752 161.351 130.504" stroke="#B2B2B2" stroke-linecap="round" stroke-linejoin="round"/>
<path d="M133.194 140.33C133.194 140.33 143.38 133.058 160.862 134.757" stroke="#B2B2B2" stroke-linecap="round" stroke-linejoin="round"/>
<path d="M132.681 144.664C132.681 144.664 142.895 137.368 160.377 138.995" stroke="#B2B2B2" stroke-linecap="round" stroke-linejoin="round"/>
<path d="M132.172 148.998C132.172 148.998 142.406 141.678 159.892 143.238" stroke="#B2B2B2" stroke-linecap="round" stroke-linejoin="round"/>
<path d="M131.658 153.333C131.658 153.333 141.921 145.984 159.407 147.482" stroke="#B2B2B2" stroke-linecap="round" stroke-linejoin="round"/>
<path d="M131.14 157.667C131.14 157.667 141.426 150.294 158.913 151.729" stroke="#B2B2B2" stroke-linecap="round" stroke-linejoin="round"/>
<path d="M130.66 162.001C130.66 162.001 140.97 154.605 158.457 155.973" stroke="#B2B2B2" stroke-linecap="round" stroke-linejoin="round"/>
<path d="M130.127 166.336C130.127 166.336 140.466 158.91 157.967 160.216" stroke="#B2B2B2" stroke-linecap="round" stroke-linejoin="round"/>
<path d="M129.618 170.67C129.618 170.67 139.982 163.221 157.458 164.459" stroke="#B2B2B2" stroke-linecap="round" stroke-linejoin="round"/>
<path d="M178.18 54.7505C178.18 54.7505 191.778 52.8305 210.882 62.8481" stroke="#B2B2B2" stroke-linecap="round" stroke-linejoin="round"/>
<path d="M177.7 59.0368C177.7 59.0368 191.51 57.2031 210.465 67.1055" stroke="#B2B2B2" stroke-linecap="round" stroke-linejoin="round"/>
<path d="M177.22 63.3181C177.22 63.3181 191.241 61.5997 210.047 71.3629" stroke="#B2B2B2" stroke-linecap="round" stroke-linejoin="round"/>
<path d="M176.769 67.6047C176.769 67.6047 191.001 65.9967 209.654 75.6255" stroke="#B2B2B2" stroke-linecap="round" stroke-linejoin="round"/>
<path d="M176.294 71.8765C176.294 71.8765 190.742 70.3837 209.246 79.8733" stroke="#B2B2B2" stroke-linecap="round" stroke-linejoin="round"/>
<path d="M175.818 76.1965C175.818 76.1965 190.478 74.8141 208.833 84.1645" stroke="#B2B2B2" stroke-linecap="round" stroke-linejoin="round"/>
<path d="M175.348 80.4545C175.348 80.4545 190.228 79.1873 208.425 88.4033" stroke="#B2B2B2" stroke-linecap="round" stroke-linejoin="round"/>
<path d="M174.873 84.7406C174.873 84.7406 189.954 83.579 207.993 92.6606" stroke="#B2B2B2" stroke-linecap="round" stroke-linejoin="round"/>
<path d="M174.402 89.0225C174.402 89.0225 189.695 87.9761 207.599 96.9185" stroke="#B2B2B2" stroke-linecap="round" stroke-linejoin="round"/>
<path d="M173.927 93.3085C173.927 93.3085 189.431 92.3485 207.191 101.176" stroke="#B2B2B2" stroke-linecap="round" stroke-linejoin="round"/>
<path d="M173.452 97.5901C173.452 97.5901 189.172 96.7693 206.778 105.438" stroke="#B2B2B2" stroke-linecap="round" stroke-linejoin="round"/>
<path d="M172.982 101.877C172.982 101.877 188.908 101.166 206.37 109.696" stroke="#B2B2B2" stroke-linecap="round" stroke-linejoin="round"/>
<path d="M172.506 106.158C172.506 106.158 188.649 105.563 205.958 113.953" stroke="#B2B2B2" stroke-linecap="round" stroke-linejoin="round"/>
<path d="M172.036 110.445C172.036 110.445 188.385 109.965 205.545 118.216" stroke="#B2B2B2" stroke-linecap="round" stroke-linejoin="round"/>
<path d="M171.561 114.726C171.561 114.726 188.126 114.352 205.161 122.474" stroke="#B2B2B2" stroke-linecap="round" stroke-linejoin="round"/>
<path d="M171.086 119.013C171.086 119.013 187.862 118.749 204.724 126.731" stroke="#B2B2B2" stroke-linecap="round" stroke-linejoin="round"/>
<path d="M170.615 123.294C170.615 123.294 187.602 123.145 204.311 130.974" stroke="#B2B2B2" stroke-linecap="round" stroke-linejoin="round"/>
<path d="M170.14 127.581C170.14 127.581 187.338 127.542 203.903 135.261" stroke="#B2B2B2" stroke-linecap="round" stroke-linejoin="round"/>
<path d="M169.67 131.876C169.67 131.876 187.079 131.953 203.49 139.523" stroke="#B2B2B2" stroke-linecap="round" stroke-linejoin="round"/>
<path d="M169.194 136.148C169.194 136.148 186.815 136.336 203.082 143.766" stroke="#B2B2B2" stroke-linecap="round" stroke-linejoin="round"/>
<path d="M168.724 140.43C168.724 140.43 186.556 140.728 202.67 148.029" stroke="#B2B2B2" stroke-linecap="round" stroke-linejoin="round"/>
<path d="M168.249 144.717C168.249 144.717 186.292 145.125 202.257 152.286" stroke="#B2B2B2" stroke-linecap="round" stroke-linejoin="round"/>
<path d="M167.774 148.998C167.774 148.998 186.014 149.521 201.854 156.544" stroke="#B2B2B2" stroke-linecap="round" stroke-linejoin="round"/>
<path d="M167.303 153.285C167.303 153.285 185.769 153.918 201.436 160.806" stroke="#B2B2B2" stroke-linecap="round" stroke-linejoin="round"/>
<path d="M166.828 157.566C166.828 157.566 185.51 158.315 201.028 165.064" stroke="#B2B2B2" stroke-linecap="round" stroke-linejoin="round"/>
<path d="M166.358 161.853C166.358 161.853 185.246 162.712 200.615 169.321" stroke="#B2B2B2" stroke-linecap="round" stroke-linejoin="round"/>
<path d="M165.882 166.134C165.882 166.134 184.986 167.094 200.202 173.584" stroke="#B2B2B2" stroke-linecap="round" stroke-linejoin="round"/>
<path d="M80.1256 60.0684C80.1256 60.0684 84.9256 54.4285 100.478 54.1021" stroke="#B2B2B2" stroke-linecap="round" stroke-linejoin="round"/>
<path d="M79.54 64.3695C79.54 64.3695 84.34 58.8111 99.916 58.3887" stroke="#B2B2B2" stroke-linecap="round" stroke-linejoin="round"/>
<path d="M78.9496 68.6752C78.9496 68.6752 83.7496 63.1936 99.3544 62.6704" stroke="#B2B2B2" stroke-linecap="round" stroke-linejoin="round"/>
<path d="M78.364 72.9805C78.364 72.9805 83.164 67.5805 98.7976 66.9565" stroke="#B2B2B2" stroke-linecap="round" stroke-linejoin="round"/>
<path d="M77.7784 77.2815C77.7784 77.2815 82.5784 71.9631 98.236 71.2383" stroke="#B2B2B2" stroke-linecap="round" stroke-linejoin="round"/>
<path d="M77.188 81.5873C77.188 81.5873 81.988 76.3457 97.6744 75.5249" stroke="#B2B2B2" stroke-linecap="round" stroke-linejoin="round"/>
<path d="M76.6024 85.8878C76.6024 85.8878 81.4024 80.7278 97.1128 79.8062" stroke="#B2B2B2" stroke-linecap="round" stroke-linejoin="round"/>
<path d="M76.0168 90.1936C76.0168 90.1936 80.8168 85.1152 96.556 84.0928" stroke="#B2B2B2" stroke-linecap="round" stroke-linejoin="round"/>
<path d="M75.4264 94.4988C75.4264 94.4988 80.2552 89.4972 95.9944 88.374" stroke="#B2B2B2" stroke-linecap="round" stroke-linejoin="round"/>
<path d="M74.8408 98.7998C74.8408 98.7998 79.6696 93.8798 95.4328 92.6606" stroke="#B2B2B2" stroke-linecap="round" stroke-linejoin="round"/>
<path d="M74.2552 103.106C74.2552 103.082 79.084 98.2624 94.8712 96.9424" stroke="#B2B2B2" stroke-linecap="round" stroke-linejoin="round"/>
<path d="M73.6696 107.397C73.6696 107.373 78.4984 102.64 94.3096 101.219" stroke="#B2B2B2" stroke-linecap="round" stroke-linejoin="round"/>
<path d="M73.0601 111.717C73.0841 111.688 77.8937 107.037 93.7337 105.515" stroke="#B2B2B2" stroke-linecap="round" stroke-linejoin="round"/>
<path d="M72.4937 116.037C72.5177 116.003 77.3273 111.434 93.1912 109.797" stroke="#B2B2B2" stroke-linecap="round" stroke-linejoin="round"/>
<path d="M71.908 120.318C71.932 120.285 76.7416 115.797 92.6296 114.078" stroke="#B2B2B2" stroke-linecap="round" stroke-linejoin="round"/>
<path d="M71.3176 124.624C71.3464 124.585 76.156 120.184 92.0728 118.384" stroke="#B2B2B2" stroke-linecap="round" stroke-linejoin="round"/>
<path d="M70.7321 128.925C70.7609 128.886 75.5705 124.566 91.5113 122.646" stroke="#B2B2B2" stroke-linecap="round" stroke-linejoin="round"/>
<path d="M70.1464 133.23C70.1752 133.187 74.9848 128.949 90.9496 126.933" stroke="#B2B2B2" stroke-linecap="round" stroke-linejoin="round"/>
<path d="M69.556 137.536C69.5896 137.493 74.3992 133.331 90.388 131.214" stroke="#B2B2B2" stroke-linecap="round" stroke-linejoin="round"/>
<path d="M68.9705 141.836C69.0041 141.793 73.8137 137.718 89.8313 135.5" stroke="#B2B2B2" stroke-linecap="round" stroke-linejoin="round"/>
<path d="M68.3848 146.142C68.4184 146.094 73.228 142.101 89.2696 139.782" stroke="#B2B2B2" stroke-linecap="round" stroke-linejoin="round"/>
<path d="M67.78 150.443C67.8232 150.395 72.628 146.483 88.6936 144.069" stroke="#B2B2B2" stroke-linecap="round" stroke-linejoin="round"/>
<path d="M67.2089 154.748C67.2521 154.696 72.0569 150.865 88.1465 148.35" stroke="#B2B2B2" stroke-linecap="round" stroke-linejoin="round"/>
<path d="M66.6232 159.054C66.6664 158.997 71.4712 155.253 87.5896 152.637" stroke="#B2B2B2" stroke-linecap="round" stroke-linejoin="round"/>
<path d="M66.0328 163.355C66.0808 163.298 70.8904 159.635 87.028 156.918" stroke="#B2B2B2" stroke-linecap="round" stroke-linejoin="round"/>
<path d="M65.4473 167.661C65.4953 167.598 70.3049 164.017 86.4665 161.205" stroke="#B2B2B2" stroke-linecap="round" stroke-linejoin="round"/>
<path d="M64.8616 171.962C64.9096 171.899 69.7192 168.4 85.9048 165.486" stroke="#B2B2B2" stroke-linecap="round" stroke-linejoin="round"/>
<path d="M106.631 52.8111C106.631 52.8111 118.329 48.6015 129.297 56.0463" stroke="#B2B2B2" stroke-linecap="round" stroke-linejoin="round"/>
<path d="M106.094 57.0832C106.094 57.0832 117.753 52.8976 128.86 60.2704" stroke="#B2B2B2" stroke-linecap="round" stroke-linejoin="round"/>
<path d="M105.556 61.3505C105.556 61.3505 117.177 57.1937 128.423 64.4897" stroke="#B2B2B2" stroke-linecap="round" stroke-linejoin="round"/>
<path d="M105.023 65.6368C105.023 65.6368 116.606 61.504 127.986 68.728" stroke="#B2B2B2" stroke-linecap="round" stroke-linejoin="round"/>
<path d="M104.486 69.8941C108.325 68.761 112.359 68.4459 116.328 68.9693C120.297 69.4926 124.111 70.8428 127.526 72.9325" stroke="#B2B2B2" stroke-linecap="round" stroke-linejoin="round"/>
<path d="M103.953 74.1662C107.81 73.0349 111.86 72.7166 115.847 73.2313C119.833 73.7461 123.669 75.0827 127.113 77.1566" stroke="#B2B2B2" stroke-linecap="round" stroke-linejoin="round"/>
<path d="M103.415 78.4381C107.288 77.3121 111.351 76.9919 115.352 77.4971C119.354 78.0024 123.209 79.3224 126.681 81.3757" stroke="#B2B2B2" stroke-linecap="round" stroke-linejoin="round"/>
<path d="M102.882 82.71C102.882 82.71 114.306 78.6732 126.244 85.59" stroke="#B2B2B2" stroke-linecap="round" stroke-linejoin="round"/>
<path d="M102.34 86.9821C102.34 86.9821 113.726 82.9693 125.802 89.8189" stroke="#B2B2B2" stroke-linecap="round" stroke-linejoin="round"/>
<path d="M101.812 91.2544C101.812 91.2544 113.159 87.2656 125.37 94.0432" stroke="#B2B2B2" stroke-linecap="round" stroke-linejoin="round"/>
<path d="M101.274 95.526C101.274 95.526 112.583 91.566 124.934 98.262" stroke="#B2B2B2" stroke-linecap="round" stroke-linejoin="round"/>
<path d="M100.737 99.7933C100.737 99.7933 112.007 95.8621 124.502 102.486" stroke="#B2B2B2" stroke-linecap="round" stroke-linejoin="round"/>
<path d="M100.204 104.065C100.204 104.065 111.436 100.158 124.065 106.705" stroke="#B2B2B2" stroke-linecap="round" stroke-linejoin="round"/>
<path d="M99.6664 108.356C99.6664 108.356 110.86 104.473 123.628 110.948" stroke="#B2B2B2" stroke-linecap="round" stroke-linejoin="round"/>
<path d="M99.1337 112.609C99.1337 112.609 110.284 108.769 123.191 115.148" stroke="#B2B2B2" stroke-linecap="round" stroke-linejoin="round"/>
<path d="M98.5959 116.881C98.5959 116.881 109.713 113.041 122.754 119.372" stroke="#B2B2B2" stroke-linecap="round" stroke-linejoin="round"/>
<path d="M98.0632 121.154C98.0632 121.154 109.137 117.342 122.322 123.592" stroke="#B2B2B2" stroke-linecap="round" stroke-linejoin="round"/>
<path d="M97.54 125.426C97.54 125.426 108.58 121.638 121.9 127.826" stroke="#B2B2B2" stroke-linecap="round" stroke-linejoin="round"/>
<path d="M96.9928 129.697C96.9928 129.697 107.99 125.934 121.449 132.04" stroke="#B2B2B2" stroke-linecap="round" stroke-linejoin="round"/>
<path d="M96.4552 133.969C96.4552 133.969 107.414 130.23 121.012 136.259" stroke="#B2B2B2" stroke-linecap="round" stroke-linejoin="round"/>
<path d="M95.9176 138.242C95.9176 138.242 106.838 134.526 120.575 140.483" stroke="#B2B2B2" stroke-linecap="round" stroke-linejoin="round"/>
<path d="M95.3848 142.509C95.3848 142.509 106.262 138.822 120.143 144.702" stroke="#B2B2B2" stroke-linecap="round" stroke-linejoin="round"/>
<path d="M94.8472 146.781C94.8472 146.781 105.69 143.123 119.706 148.926" stroke="#B2B2B2" stroke-linecap="round" stroke-linejoin="round"/>
<path d="M94.3145 151.077C94.3145 151.077 105.114 147.443 119.274 153.169" stroke="#B2B2B2" stroke-linecap="round" stroke-linejoin="round"/>
<path d="M93.7769 155.325C93.7769 155.325 104.538 151.715 118.833 157.369" stroke="#B2B2B2" stroke-linecap="round" stroke-linejoin="round"/>
<path d="M93.244 159.597C93.244 159.597 103.967 156.011 118.396 161.589" stroke="#B2B2B2" stroke-linecap="round" stroke-linejoin="round"/>
<path d="M92.7064 163.868C92.7064 163.868 103.391 160.307 117.964 165.812" stroke="#B2B2B2" stroke-linecap="round" stroke-linejoin="round"/>
<path d="M142.463 39.7982L135.777 100.854L141.762 92.411L146.337 97.3166L152.673 36.083C152.673 36.083 147.038 36.4574 142.463 39.7982Z" fill="#263238" stroke="#263238" stroke-linecap="round" stroke-linejoin="round"/>
<path d="M31.2088 204.213C31.2088 204.213 30.5944 204.443 31.132 204.981C31.6696 205.518 33.8296 205.907 35.7544 205.753C37.4244 205.541 39.0573 205.1 40.6072 204.443C41.3752 204.136 40.8376 202.441 40.8376 202.441L31.2088 204.213Z" fill="#263238" stroke="#263238" stroke-linecap="round" stroke-linejoin="round"/>
<path d="M34.66 190.211C34.66 190.211 35.8168 198.745 35.8168 199.129C35.8168 199.513 32.812 202.902 31.348 203.67C29.884 204.438 33.6616 205.134 35.2792 204.981C36.8968 204.827 39.2824 204.366 39.7432 204.059C40.204 203.752 40.7464 203.517 40.8232 202.441C40.9 201.366 40.2856 198.049 40.2856 198.049L40.42 189.928L34.66 190.211Z" fill="white" stroke="#263238" stroke-linecap="round" stroke-linejoin="round"/>
<path d="M40.3192 198.165C38.814 198.505 37.2567 198.547 35.7352 198.289C35.7928 198.769 35.8312 199.062 35.8312 199.129C35.6138 199.573 35.3252 199.979 34.9768 200.329C35.74 200.19 37.2904 200.046 38.2792 200.853C39.0136 201.453 39.3304 202.518 39.2104 204.016C39.2059 204.099 39.219 204.183 39.2488 204.261C39.4262 204.215 39.5971 204.147 39.7576 204.059C39.9566 203.938 40.1459 203.801 40.324 203.651C40.372 202.005 39.9208 200.771 38.9704 199.998C38.7535 199.822 38.5167 199.672 38.2648 199.552C39.0193 199.518 39.7694 199.419 40.5064 199.254C40.42 198.755 40.3528 198.352 40.3192 198.165Z" fill="#263238"/>
<path d="M37.6936 201.746C36.7043 201.15 35.5502 200.888 34.4008 200.997C34.0264 201.405 33.6136 201.827 33.2008 202.226C34.3672 202.029 36.0808 201.952 37.0408 202.658C37.3379 202.879 37.5768 203.17 37.7373 203.504C37.8978 203.839 37.975 204.207 37.9624 204.578C37.9624 204.578 37.9624 204.578 37.9624 204.602C38.3656 204.52 38.74 204.434 39.0424 204.347C39.0287 203.84 38.9002 203.342 38.6666 202.892C38.433 202.441 38.1003 202.049 37.6936 201.746Z" fill="#263238"/>
<path d="M61.324 203.689C61.2513 203.739 61.1894 203.802 61.1421 203.876C61.0947 203.95 61.0629 204.033 61.0485 204.119C61.0342 204.206 61.0376 204.295 61.0585 204.38C61.0795 204.465 61.1175 204.545 61.1704 204.616C61.5544 205.153 62.9416 205.153 63.7096 205.153C64.4776 205.153 68.4856 205.23 68.4856 205.23C68.4856 205.23 74.3368 205.153 75.2056 204.923C76.0744 204.692 76.1272 204.232 75.82 203.996C75.5357 203.852 75.2141 203.799 74.8984 203.843C73.4918 204.012 72.0718 204.037 70.66 203.92C68.9656 203.689 63.8824 203.766 63.1144 203.689C62.5184 203.645 61.92 203.645 61.324 203.689Z" fill="#263238" stroke="#263238" stroke-linecap="round" stroke-linejoin="round"/>
<path d="M58.5977 190.566C58.5977 190.566 61.1705 198.299 61.2473 198.683C61.3621 199.478 61.4135 200.28 61.4009 201.083C61.4009 202.158 60.7049 203.315 61.9385 204.083C63.1721 204.851 66.5609 204.318 68.2553 204.472C69.9989 204.588 71.7484 204.588 73.4921 204.472C75.8009 204.395 76.6505 203.162 76.1081 202.931C75.5657 202.701 75.3401 203.315 72.7961 201.851C70.2521 200.387 65.7881 198.232 65.6345 197.771C65.4809 197.31 64.6361 190.533 64.6361 190.533L58.5977 190.566Z" fill="white" stroke="#263238" stroke-linecap="round" stroke-linejoin="round"/>
<path d="M70.1801 200.411C69.6983 201.732 69.4577 203.128 69.4697 204.534C69.8345 204.534 70.1993 204.534 70.5737 204.534C70.5669 203.307 70.7648 202.087 71.1593 200.925L70.1801 200.411Z" fill="#263238"/>
<path d="M64.7704 204.501C64.9656 202.398 65.7846 200.403 67.1224 198.769C66.7384 198.553 66.4072 198.357 66.1624 198.193C64.7268 199.994 63.861 202.181 63.676 204.477C64.0168 204.501 64.3864 204.505 64.7704 204.501Z" fill="#263238"/>
<path d="M65.6345 197.761C65.6105 197.689 65.5721 197.464 65.5193 197.137C64.0566 197.556 62.5474 197.792 61.0265 197.838C61.1513 198.294 61.2329 198.611 61.2473 198.683L61.2857 198.937C62.9014 198.875 64.5021 198.602 66.0473 198.126C65.8853 198.035 65.7446 197.911 65.6345 197.761Z" fill="#263238"/>
<path d="M52.5448 82.0239C52.5448 82.0239 52.9096 85.2975 53.5912 86.7039C54.2728 88.1103 55.9096 89.2527 55.5112 92.1615C55.1128 95.0703 52.9624 96.5727 51.8248 96.8031C51.1941 96.938 50.5496 96.9976 49.9048 96.9807L50.1304 100.211C51.9963 100.141 53.8633 100.316 55.684 100.73C58.0552 101.387 61.924 102.702 63.6424 102.966C65.3608 103.23 71.9272 103.566 73.2424 105.011C74.5576 106.456 74.2264 107.776 73.4392 108.563C72.652 109.35 68.5096 109.149 63.052 109.149H57.5992C57.5992 109.149 58.8472 112.37 58.6504 114.674C58.4536 116.978 56.4808 121.053 56.4808 121.053C56.4808 121.053 56.6776 125.656 57.0712 129.213C57.4648 132.77 57.5512 135.064 57.5512 135.064C57.5512 135.064 59.7208 149.728 62.284 159.462C64.8472 169.197 64.588 183.726 65.2456 186.29C65.9032 188.853 66.2776 191.397 66.2776 191.397C66.2776 191.397 59.9656 192.645 57.7288 192.779C56.6347 192.858 55.5373 192.881 54.4408 192.846L53.1256 180.021C53.1256 180.021 50.5624 162.99 50.428 162.741C50.2936 162.491 46.6168 149.982 46.6168 149.982L44.3128 172.197L42.1432 192.448L32.26 191.219L32.4568 166.691C32.4568 166.691 31.9336 152.421 32.0632 146.502C32.1928 140.584 34.036 135.323 35.6776 133.216C37.3192 131.109 41.3992 125.056 41.3992 125.056L40.6792 120.914L36.8392 113.354C36.8392 113.354 27.9976 119.709 26.4856 120.765C24.9736 121.821 23.1256 121.029 22.6456 118.528C22.1656 116.027 33.9208 105.659 35.764 104.344C37.6072 103.029 43.924 99.4767 43.924 99.4767L43.66 96.3183C43.66 96.3183 41.4232 95.5983 40.636 93.8223C39.8488 92.0463 42.7384 89.8095 42.8056 88.3647C42.8728 86.9199 41.7544 84.2847 43.5928 83.6271C45.4312 82.9695 52.5448 82.0239 52.5448 82.0239Z" fill="white" stroke="#263238" stroke-linecap="round" stroke-linejoin="round"/>
<path d="M54.4408 192.865C55.5373 192.9 56.6347 192.877 57.7288 192.798C59.9656 192.664 66.2776 191.416 66.2776 191.416C66.2776 191.416 65.884 188.853 65.2264 186.285C64.5688 183.717 64.8328 169.187 62.2648 159.457C59.6968 149.728 57.532 135.059 57.532 135.059C57.532 135.059 57.4648 132.755 57.052 129.208C56.884 127.71 56.7544 126.025 56.6584 124.581L41.3416 124.715L41.3992 125.061C41.3992 125.061 37.324 131.113 35.6776 133.221C34.0312 135.328 32.1928 140.589 32.0632 146.507C31.9336 152.425 32.4568 166.696 32.4568 166.696L32.26 191.219L42.124 192.467L44.3128 172.197L46.6168 149.968C46.6168 149.968 50.2984 162.448 50.428 162.726C50.5576 163.005 53.1256 180.006 53.1256 180.006L54.4408 192.865Z" fill="#0C66FF" stroke="#263238" stroke-linecap="round" stroke-linejoin="round"/>
<path d="M51.4937 129.693L56.1881 129.625" stroke="#263238" stroke-linecap="round" stroke-linejoin="round"/>
<path d="M44.6969 129.794L50.3369 129.712" stroke="#263238" stroke-linecap="round" stroke-linejoin="round"/>
<path d="M53.6152 129.707L54.7336 139.571" stroke="#263238" stroke-linecap="round" stroke-linejoin="round"/>
<path d="M54.3881 130.993L56.9609 142.576" stroke="#263238" stroke-linecap="round" stroke-linejoin="round"/>
<path d="M43.9241 130.652L41.6969 139.057" stroke="#263238" stroke-linecap="round" stroke-linejoin="round"/>
<path d="M43.2856 140.992L43.1512 142.317" stroke="#263238" stroke-linecap="round" stroke-linejoin="round"/>
<path d="M44.1833 132.025L43.4441 139.403" stroke="#263238" stroke-linecap="round" stroke-linejoin="round"/>
<path d="M46.3289 86.339C46.6102 86.0636 46.9473 85.8517 47.3174 85.7176C47.6875 85.5835 48.082 85.5302 48.4745 85.5614" stroke="#263238" stroke-miterlimit="10"/>
<path d="M51.2152 84.5149C51.5306 84.1533 51.9715 83.9251 52.4488 83.8765" stroke="#263238" stroke-miterlimit="10"/>
<path d="M55.8616 86.4396C55.8616 86.902 55.7245 87.3539 55.4676 87.7383C55.2108 88.1228 54.8457 88.4224 54.4186 88.5993C53.9914 88.7762 53.5214 88.8225 53.068 88.7323C52.6145 88.6421 52.198 88.4195 51.8711 88.0926C51.5442 87.7657 51.3215 87.3491 51.2313 86.8957C51.1411 86.4422 51.1874 85.9722 51.3643 85.5451C51.5413 85.1179 51.8409 84.7529 52.2253 84.496C52.6097 84.2391 53.0617 84.1021 53.524 84.1021C54.144 84.1021 54.7385 84.3483 55.1769 84.7867C55.6153 85.2251 55.8616 85.8197 55.8616 86.4396Z" stroke="#263238" stroke-linecap="round" stroke-linejoin="round"/>
<path d="M49.9673 91.854C50.3925 92.0995 50.8659 92.2498 51.3548 92.2946C51.8438 92.3393 52.3366 92.2774 52.7993 92.1132" stroke="#263238" stroke-linecap="round" stroke-linejoin="round"/>
<path d="M50.4281 88.3982C50.4281 88.8596 50.2912 89.3106 50.0349 89.6943C49.7786 90.0779 49.4142 90.3769 48.988 90.5535C48.5617 90.73 48.0927 90.7762 47.6401 90.6862C47.1876 90.5962 46.772 90.374 46.4457 90.0478C46.1195 89.7215 45.8973 89.3059 45.8073 88.8533C45.7173 88.4008 45.7635 87.9318 45.94 87.5055C46.1166 87.0792 46.4156 86.7149 46.7992 86.4586C47.1828 86.2022 47.6339 86.0654 48.0953 86.0654C48.7139 86.0654 49.3073 86.3112 49.7448 86.7487C50.1823 87.1862 50.4281 87.7795 50.4281 88.3982Z" stroke="#263238" stroke-linecap="round" stroke-linejoin="round"/>
<path d="M49.1752 88.2637C49.2472 88.6765 49.1368 89.0413 48.9208 89.0797C48.7048 89.1181 48.4744 88.8157 48.3976 88.4077C48.3208 87.9997 48.436 87.6301 48.652 87.5917C48.868 87.5533 49.0984 87.8509 49.1752 88.2637Z" fill="#263238"/>
<path d="M53.0056 86.8957C53.0824 87.3037 52.972 87.6685 52.756 87.7069C52.54 87.7453 52.3048 87.4477 52.2328 87.0349C52.1608 86.6221 52.2712 86.2621 52.4824 86.2189C52.6936 86.1757 52.9336 86.4829 53.0056 86.8957Z" fill="#263238"/>
<path d="M45.892 89.2236L42.4072 90.8652" stroke="#263238" stroke-linecap="round" stroke-linejoin="round"/>
<path d="M50.3656 87.7165C50.4464 87.5964 50.5566 87.4992 50.6857 87.434C50.8148 87.3688 50.9586 87.3378 51.1031 87.3441C51.2476 87.3503 51.3881 87.3936 51.5111 87.4697C51.6341 87.5459 51.7355 87.6523 51.8056 87.7789" stroke="#263238" stroke-linecap="round" stroke-linejoin="round"/>
<path d="M50.9801 87.1167C51.1807 87.4277 51.4825 87.66 51.8345 87.7743C52.3625 87.9087 53.8745 88.0383 53.7545 88.7631C53.7052 89.0611 53.5836 89.3426 53.4004 89.5827C53.2171 89.8229 52.9778 90.0145 52.7033 90.1407" stroke="#263238" stroke-linecap="round" stroke-linejoin="round"/>
<path d="M43.4969 84.5725C43.4969 84.5725 43.9049 87.2893 43.5641 89.0605C43.2233 90.8317 41.7305 91.5037 41.9321 92.9341C42.1337 94.3645 44.3321 96.4669 44.3321 96.4669C43.7516 97.166 43.0248 97.7291 42.2028 98.1164C41.3809 98.5037 40.4839 98.7059 39.5753 98.7085C36.3593 98.7565 33.7001 97.5517 33.7001 92.1853C33.7001 86.8189 34.4489 80.7661 38.3225 78.8653C42.1961 76.9645 49.4681 77.7085 51.1001 78.3229C52.7321 78.9373 54.5657 81.0397 53.9513 82.0573C53.3369 83.0749 46.2137 84.9133 43.4969 84.5725Z" fill="#263238" stroke="#263238" stroke-linecap="round" stroke-linejoin="round"/>
<path d="M43.4584 91.7196C43.4584 91.7196 41.4856 90.0108 40.6984 90.8652C39.9112 91.7196 40.8952 93.2316 41.6152 94.086C41.7294 94.2352 41.8775 94.355 42.0473 94.4354C42.217 94.5159 42.4035 94.5546 42.5913 94.5485C42.779 94.5424 42.9626 94.4916 43.1268 94.4003C43.291 94.309 43.431 94.1799 43.5352 94.0236" fill="white"/>
<path d="M43.4584 91.7196C43.4584 91.7196 41.4856 90.0108 40.6984 90.8652C39.9112 91.7196 40.8952 93.2316 41.6152 94.086C41.7294 94.2352 41.8775 94.355 42.0473 94.4354C42.217 94.5159 42.4035 94.5546 42.5913 94.5485C42.779 94.5424 42.9626 94.4916 43.1268 94.4003C43.291 94.309 43.431 94.1799 43.5352 94.0236" stroke="#263238" stroke-linecap="round" stroke-linejoin="round"/>
<path d="M49.9097 96.9853L47.5673 96.6685L50.0393 99.6493L49.9097 96.9853Z" fill="#263238" stroke="#263238" stroke-linecap="round" stroke-linejoin="round"/>
<path d="M71.692 108.419C70.7626 108.309 69.8725 107.98 69.0952 107.459C67.9528 106.633 67.5112 104.099 66.4984 102.261C65.4856 100.422 60.2584 91.4654 60.2584 91.4654C59.749 91.4414 59.2538 91.2896 58.8184 91.0238C58.1224 90.5774 57.4264 90.0062 56.3512 89.8814C55.276 89.7566 54.7 89.9438 54.3208 89.819C53.9416 89.6942 54.196 88.6142 55.084 88.379C55.972 88.1438 57.3016 88.6334 57.3016 88.6334C57.3696 87.9522 57.3044 87.2642 57.1096 86.6078C56.7928 85.7822 55.7176 84.8318 54.9544 84.3902C54.1912 83.9486 53.3704 83.9438 53.6872 83.5022C54.004 83.0606 54.4504 82.931 55.4008 83.0558C56.3512 83.1806 57.9976 84.8942 57.9976 84.8942C57.9976 84.8942 59.4376 86.0366 59.7688 86.0366C60.1 86.0366 61.42 85.9742 62.0536 86.9966C62.6872 88.019 63.2536 90.1646 63.1912 90.7358C63.1543 91.0933 63.1543 91.4536 63.1912 91.811C63.1912 91.811 70.3384 100.139 71.8312 101.593C73.324 103.048 74.3656 106.393 74.1112 107.233C73.9679 107.715 73.7474 108.171 73.4584 108.582" fill="white"/>
<path d="M71.692 108.419C70.7626 108.309 69.8725 107.98 69.0952 107.459C67.9528 106.633 67.5112 104.099 66.4984 102.261C65.4856 100.422 60.2584 91.4654 60.2584 91.4654C59.749 91.4414 59.2538 91.2896 58.8184 91.0238C58.1224 90.5774 57.4264 90.0062 56.3512 89.8814C55.276 89.7566 54.7 89.9438 54.3208 89.819C53.9416 89.6942 54.196 88.6142 55.084 88.379C55.972 88.1438 57.3016 88.6334 57.3016 88.6334C57.3696 87.9522 57.3044 87.2642 57.1096 86.6078C56.7928 85.7822 55.7176 84.8318 54.9544 84.3902C54.1912 83.9486 53.3704 83.9438 53.6872 83.5022C54.004 83.0606 54.4504 82.931 55.4008 83.0558C56.3512 83.1806 57.9976 84.8942 57.9976 84.8942C57.9976 84.8942 59.4376 86.0366 59.7688 86.0366C60.1 86.0366 61.42 85.9742 62.0536 86.9966C62.6872 88.019 63.2536 90.1646 63.1912 90.7358C63.1543 91.0933 63.1543 91.4536 63.1912 91.811C63.1912 91.811 70.3384 100.139 71.8312 101.593C73.324 103.048 74.3656 106.393 74.1112 107.233C73.9679 107.715 73.7474 108.171 73.4584 108.582" stroke="#263238" stroke-linecap="round" stroke-linejoin="round"/>
<path d="M59.4761 85.3166C59.4036 85.1631 59.2929 85.0308 59.1545 84.9326C58.1945 84.2318 57.8105 85.5902 57.8393 86.219C57.8819 86.7172 58.0102 87.2043 58.2185 87.659C58.2857 87.8222 58.4009 88.0094 58.5881 87.9998C58.6339 87.997 58.6786 87.9844 58.7192 87.9629C58.7598 87.9413 58.7953 87.9114 58.8233 87.875C59.1785 87.4766 58.8761 86.8622 59.0777 86.387C59.1929 86.1086 59.4809 85.907 59.5193 85.5998C59.5294 85.5032 59.5145 85.4057 59.4761 85.3166Z" fill="white" stroke="#263238" stroke-linecap="round" stroke-linejoin="round"/>
<path d="M60.7433 85.3836C60.6708 85.2301 60.5601 85.0979 60.4217 84.9996C59.4617 84.3036 59.0777 85.6572 59.1065 86.286C59.1491 86.7842 59.2773 87.2714 59.4857 87.726C59.5529 87.8844 59.6681 88.0764 59.8553 88.0668C59.9012 88.0622 59.9458 88.0484 59.9862 88.0261C60.0266 88.0039 60.0621 87.9736 60.0905 87.9372C60.4457 87.5436 60.1433 86.9292 60.3449 86.454C60.4601 86.1756 60.7481 85.974 60.7865 85.662C60.7951 85.5671 60.7803 85.4714 60.7433 85.3836Z" fill="white" stroke="#263238" stroke-linecap="round" stroke-linejoin="round"/>
<path d="M61.9097 85.9117C61.8459 85.7731 61.7465 85.6538 61.6217 85.5661C60.7721 84.9325 60.4073 86.1613 60.4313 86.7277C60.4686 87.1839 60.5838 87.6304 60.7721 88.0477C60.8345 88.1917 60.9401 88.3645 61.1081 88.3549C61.15 88.3512 61.1907 88.3392 61.2279 88.3194C61.265 88.2996 61.2977 88.2725 61.3241 88.2397C61.6457 87.8845 61.3673 87.3277 61.5497 86.8957C61.6553 86.6461 61.9145 86.4493 61.9529 86.1805C61.9625 86.0886 61.9476 85.9959 61.9097 85.9117Z" fill="white" stroke="#263238" stroke-linecap="round" stroke-linejoin="round"/>
<path d="M60.0472 89.2622C60.1125 89.8221 60.2835 90.3645 60.5512 90.8606C60.8783 91.1934 61.3188 91.3905 61.7848 91.4126" stroke="#263238" stroke-linecap="round" stroke-linejoin="round"/>
<path d="M56.4808 121.052C56.4808 121.052 58.4536 116.972 58.6504 114.673C58.8472 112.374 57.5992 109.148 57.5992 109.148C57.5992 109.148 53.8648 102.064 52.7992 100.273C52.276 100.23 51.796 100.211 51.3592 100.206C51.8183 100.866 52.2091 101.57 52.5256 102.308C52.7224 103.033 54.3688 107.171 54.3688 107.171L50.2264 111.308L43.8232 108.356C43.5705 106.514 43.0397 104.721 42.2488 103.038C41.9106 102.372 41.5257 101.73 41.0968 101.118L40.2616 101.598C40.5307 101.967 40.7775 102.352 41.0008 102.75C42.1144 104.723 42.3784 108.726 42.3784 108.726C42.3784 108.726 39.8824 112.211 39.292 114.049C39.0415 114.819 38.7351 115.57 38.3752 116.296L40.6984 120.899L41.044 122.876L56.5048 121.595C56.4904 121.259 56.4808 121.052 56.4808 121.052Z" fill="#0C66FF" stroke="#263238" stroke-linecap="round" stroke-linejoin="round"/>
<path d="M25.2905 114.568C25.2905 114.568 21.8009 117.337 21.7433 118.806C21.6857 120.275 33.5465 131.128 34.4537 131.766C35.3609 132.405 36.2057 132.611 36.7145 132.385C37.2233 132.16 40.1033 130.523 40.1033 130.523C40.1033 130.523 43.6025 130.24 43.8281 129.904C44.0537 129.568 43.8857 129.505 43.2089 129.448C42.5321 129.39 41.6825 129.222 41.5145 129.222C41.3465 129.222 40.4969 129.112 40.4969 129.112C40.4969 129.112 44.284 127.701 44.5097 127.643C44.7353 127.585 45.7529 127.528 45.5801 127.134C45.4073 126.741 44.3369 126.174 43.3769 125.891C42.4169 125.608 40.0457 125.382 39.3689 125.891C38.6921 126.4 35.9801 129.563 35.9801 129.563C34.6839 128.082 33.7039 126.353 33.1001 124.48C32.1401 121.427 28.4153 117.179 27.1721 116.32" fill="white"/>
<path d="M25.2905 114.568C25.2905 114.568 21.8009 117.337 21.7433 118.806C21.6857 120.275 33.5465 131.128 34.4537 131.766C35.3609 132.405 36.2057 132.611 36.7145 132.385C37.2233 132.16 40.1033 130.523 40.1033 130.523C40.1033 130.523 43.6025 130.24 43.8281 129.904C44.0537 129.568 43.8857 129.505 43.2089 129.448C42.5321 129.39 41.6825 129.222 41.5145 129.222C41.3465 129.222 40.4969 129.112 40.4969 129.112C40.4969 129.112 44.2841 127.701 44.5097 127.643C44.7353 127.585 45.7529 127.528 45.5801 127.134C45.4073 126.741 44.3369 126.174 43.3769 125.891C42.4169 125.608 40.0457 125.382 39.3689 125.891C38.6921 126.4 35.9801 129.563 35.9801 129.563C34.6839 128.082 33.7039 126.353 33.1001 124.48C32.1401 121.427 28.4153 117.179 27.1721 116.32" stroke="#263238" stroke-linecap="round" stroke-linejoin="round"/>
<path d="M40.3289 127.912C40.3289 127.912 41.7401 127.403 42.7577 127.062C43.7753 126.721 44.5625 126.443 45.0713 126.779" stroke="#263238" stroke-linecap="round" stroke-linejoin="round"/>
<path d="M39.8777 126.836C40.9983 126.368 42.1743 126.046 43.3769 125.876" stroke="#263238" stroke-linecap="round" stroke-linejoin="round"/>
<path d="M39.5369 126.27C40.0467 125.952 40.5973 125.705 41.1737 125.536" stroke="#263238" stroke-linecap="round" stroke-linejoin="round"/>
</g>
<defs>
<clipPath id="clip0_564_2348">
<rect width="345" height="206" fill="white" transform="translate(0 0.369141)"/>
</clipPath>
</defs>
</svg>
