<svg width="54" height="35" viewBox="0 0 54 35" fill="none" xmlns="http://www.w3.org/2000/svg">
<path d="M26.9174 6.28436C27.6751 9.01304 28.0866 11.809 28.1286 14.5127C28.1705 17.2164 27.842 19.7747 27.1619 22.0418C26.4818 24.3088 25.4634 26.2401 24.1648 27.7254C22.8661 29.2107 21.3127 30.2209 19.5933 30.6983C17.8738 31.1757 16.022 31.111 14.1435 30.5078C12.265 29.9047 10.3967 28.7749 8.64512 27.183C6.89357 25.5911 5.29312 23.5683 3.93517 21.23C2.57721 18.8918 1.48834 16.2839 0.730713 13.5552L13.8241 9.91977L26.9174 6.28436Z" fill="#051019"/>
<path d="M48.0952 0.40448C48.8528 3.13316 49.2643 5.92915 49.3063 8.63281C49.3482 11.3365 49.0198 13.8949 48.3397 16.1619C47.6596 18.4289 46.6411 20.3603 45.3425 21.8455C44.0439 23.3308 42.4905 24.341 40.771 24.8184C39.0516 25.2958 37.1997 25.2311 35.3213 24.628C33.4428 24.0248 31.5744 22.895 29.8229 21.3031C28.0713 19.7113 26.4709 17.6884 25.1129 15.3502C23.7549 13.0119 22.6661 10.404 21.9084 7.67529L35.0018 4.03989L48.0952 0.40448Z" fill="#051019"/>
</svg>
