<svg width="37" height="36" viewBox="0 0 37 36" fill="none" xmlns="http://www.w3.org/2000/svg">
<path d="M17.375 27.375H14C12.35 27.375 11 28.725 11 30.375V30.75H9.5C8.885 30.75 8.375 31.26 8.375 31.875C8.375 32.49 8.885 33 9.5 33H27.5C28.115 33 28.625 32.49 28.625 31.875C28.625 31.26 28.115 30.75 27.5 30.75H26V30.375C26 28.725 24.65 27.375 23 27.375H19.625V23.94C19.25 23.985 18.875 24 18.5 24C18.125 24 17.75 23.985 17.375 23.94V27.375Z" fill="url(#paint0_linear_144_556)"/>
<path d="M28.22 17.46C29.21 17.085 30.08 16.47 30.77 15.78C32.165 14.235 33.08 12.39 33.08 10.23C33.08 8.07 31.385 6.375 29.225 6.375H28.385C27.41 4.38 25.37 3 23 3H14C11.63 3 9.59004 4.38 8.61504 6.375H7.77504C5.61504 6.375 3.92004 8.07 3.92004 10.23C3.92004 12.39 4.83504 14.235 6.23004 15.78C6.92004 16.47 7.79004 17.085 8.78004 17.46C10.34 21.3 14.09 24 18.5 24C22.91 24 26.66 21.3 28.22 17.46ZM22.76 12.675L21.83 13.815C21.68 13.98 21.575 14.31 21.59 14.535L21.68 16.005C21.74 16.905 21.095 17.37 20.255 17.04L18.89 16.5C18.68 16.425 18.32 16.425 18.11 16.5L16.745 17.04C15.905 17.37 15.26 16.905 15.32 16.005L15.41 14.535C15.425 14.31 15.32 13.98 15.17 13.815L14.24 12.675C13.655 11.985 13.91 11.22 14.78 10.995L16.205 10.635C16.43 10.575 16.7 10.365 16.82 10.17L17.615 8.94C18.11 8.175 18.89 8.175 19.385 8.94L20.18 10.17C20.3 10.365 20.57 10.575 20.795 10.635L22.22 10.995C23.09 11.22 23.345 11.985 22.76 12.675Z" fill="url(#paint1_linear_144_556)"/>
<defs>
<linearGradient id="paint0_linear_144_556" x1="12.9046" y1="24.5758" x2="15.9765" y2="35.1868" gradientUnits="userSpaceOnUse">
<stop stop-color="#38A1FF"/>
<stop offset="1" stop-color="#63B5FF"/>
</linearGradient>
<linearGradient id="paint1_linear_144_556" x1="10.4427" y1="4.47368" x2="20.6482" y2="26.3744" gradientUnits="userSpaceOnUse">
<stop stop-color="#38A1FF"/>
<stop offset="1" stop-color="#63B5FF"/>
</linearGradient>
</defs>
</svg>
