<svg width="24" height="24" viewBox="0 0 24 24" fill="none" xmlns="http://www.w3.org/2000/svg">
<g clip-path="url(#clip0_306_1782)">
<path d="M23.3141 12.2677C23.3141 11.432 23.2391 10.6285 23.0999 9.85703H11.9999V14.416H18.3427C18.0695 15.8892 17.2391 17.1374 15.9909 17.9731V20.9302H19.7999C22.0284 18.8785 23.3141 15.857 23.3141 12.2677Z" fill="#4285F4"/>
<path d="M12.0002 23.7854C15.1823 23.7854 17.8499 22.7302 19.7999 20.9302L15.9909 17.9731C14.9356 18.6802 13.5859 19.0979 12.0002 19.0979C8.93055 19.0979 6.33233 17.0247 5.40555 14.239H1.46805V17.2926C3.40733 21.1444 7.39305 23.7854 12.0002 23.7854Z" fill="#34A853"/>
<path d="M5.40555 14.239C5.16983 13.5319 5.03557 12.7768 5.03557 12.0001C5.03557 11.2233 5.1695 10.4679 5.40521 9.76077V6.7072H1.46771C0.642713 8.34955 0.213415 10.1621 0.214143 12.0001C0.214143 13.9018 0.669834 15.7015 1.46805 17.2926L5.40555 14.239Z" fill="#FBBC05"/>
<path d="M12.0002 4.90167C13.7305 4.90167 15.2841 5.49632 16.5055 6.66417L19.8859 3.28382C17.8448 1.38203 15.177 0.214172 12.0002 0.214172C7.39305 0.214172 3.407 2.85541 1.46771 6.7072L5.40521 9.76077C6.332 6.97505 8.93055 4.90167 12.0002 4.90167Z" fill="#EA4335"/>
</g>
<defs>
<clipPath id="clip0_306_1782">
<rect width="24" height="24" fill="white"/>
</clipPath>
</defs>
</svg>
